<svg width="56" height="56" viewBox="0 0 56 56" fill="none" xmlns="http://www.w3.org/2000/svg">
<rect width="56" height="56" rx="14" fill="#00CCB1"/>
<path fill-rule="evenodd" clip-rule="evenodd" d="M14 14.5785C14 13.2898 15.0447 12.2451 16.3333 12.2451C17.622 12.2451 18.6667 13.2898 18.6667 14.5785V16.9118H14V14.5785ZM28.0002 16.9124C28.0001 19.4896 25.9108 21.5788 23.3335 21.5788C20.7562 21.5788 18.6669 19.4895 18.6669 16.9122H14.0002C14.0002 22.0668 18.1789 26.2455 23.3335 26.2455C28.4882 26.2455 32.6669 22.0668 32.6669 16.9122H32.6662V14.5791C32.6662 13.2904 31.6216 12.2457 30.3329 12.2457C29.0442 12.2457 27.9996 13.2904 27.9996 14.5791V16.9124H28.0002ZM37.3341 14.5787C37.3341 13.2901 38.3788 12.2454 39.6675 12.2454C40.9561 12.2454 42.0008 13.2901 42.0008 14.5787V41.4121C42.0008 42.7007 40.9561 43.7454 39.6675 43.7454C38.3788 43.7454 37.3341 42.7007 37.3341 41.4121V14.5787ZM16.3339 43.747C15.0453 43.747 14.0006 42.7023 14.0006 41.4136V39.0803H18.6673V41.4136C18.6673 42.7023 17.6226 43.747 16.3339 43.747ZM23.3333 34.4136C25.9107 34.4136 28 36.5029 28 39.0802H28.0002V41.413C28.0002 42.7016 29.0448 43.7463 30.3335 43.7463C31.6222 43.7463 32.6668 42.7016 32.6668 41.413V39.0796H32.6667C32.6663 33.9252 28.4878 29.7469 23.3333 29.7469C18.1787 29.7469 14 33.9256 14 39.0802H18.6667C18.6667 36.5029 20.756 34.4136 23.3333 34.4136Z" fill="white"/>
</svg>
