<svg width="65" height="65" viewBox="0 0 65 65" fill="none" xmlns="http://www.w3.org/2000/svg">
<path fill-rule="evenodd" clip-rule="evenodd" d="M15.4974 4.70745C15.3536 4.76808 15.1636 4.99258 15.075 5.20633C14.9418 5.5282 14.9444 5.67508 15.0903 6.06145C15.2345 6.44333 15.4584 6.64508 16.3251 7.17383C16.9074 7.52908 17.6546 7.88708 17.9858 7.96945L18.5878 8.11933L18.3295 8.3942C18.1875 8.54533 18.0713 8.81608 18.0713 8.99583C18.0713 9.59058 18.5936 9.91033 19.8658 10.0943C20.2683 10.1526 20.6211 10.2237 20.6499 10.2525C20.7726 10.3752 20.5136 10.7388 20.1811 10.9108C19.7608 11.1282 19.7073 11.5206 20.0713 11.7155C20.2088 11.7891 20.3213 11.9218 20.3213 12.0106C20.3213 12.2577 20.8318 12.668 21.3425 12.8315C21.5949 12.9122 21.8753 13.0675 21.9658 13.1765C22.1056 13.345 22.0883 13.4026 21.8508 13.5603C21.697 13.6625 21.5713 13.8125 21.5713 13.8938C21.5713 13.9751 21.8244 14.4011 22.1338 14.8405C22.4431 15.2798 22.6963 15.6893 22.6963 15.7505C22.6963 15.8117 22.4291 15.6672 22.1025 15.4295C20.5029 14.2647 18.1245 13.1586 16.2048 12.6867C14.7439 12.3275 11.7245 12.304 10.2588 12.6403C7.51263 13.2703 4.51013 15.0535 3.40263 16.7121C2.90126 17.463 3.37238 18.4655 4.22663 18.4655C4.68951 18.4655 5.06413 18.29 6.45751 17.4207C7.57551 16.7233 8.11939 16.6448 8.92526 17.0648C9.21601 17.2165 9.58413 17.3405 9.74326 17.3405C9.99376 17.3405 10.7866 16.8756 11.8011 16.134L12.0935 15.9202L11.8949 16.3956C11.4 17.58 11.77 17.9852 13.1194 17.7366C14.1928 17.5388 14.3394 17.5478 14.2955 17.8092C14.264 17.997 14.3915 18.0368 15.1963 18.0905C16.0296 18.146 16.1338 18.1807 16.1338 18.403C16.1338 18.6055 16.015 18.6731 15.5088 18.7591C11.5813 19.4262 7.89776 22.3201 5.93938 26.2771C5.13663 27.8992 5.11538 28.538 5.85163 28.9186C6.63726 29.325 7.26663 28.933 8.32126 27.3802C8.70676 26.8127 8.79938 26.7442 9.10101 26.8036C9.59863 26.9017 10.0118 26.571 10.2444 25.8883C10.3549 25.564 10.5399 25.1942 10.6554 25.0665C10.8586 24.8421 10.8795 24.8478 11.286 25.2418L11.7065 25.6493L12.3596 25.3075C12.7188 25.1193 13.0681 24.9651 13.1358 24.9647C13.2034 24.9643 13.4699 24.9055 13.728 24.8337C14.0813 24.7357 14.2558 24.589 14.4335 24.2407C14.5635 23.9862 14.8988 23.5941 15.1785 23.3695L15.6873 22.9608L15.6115 23.7727C15.5223 24.7276 15.6344 24.8337 16.4804 24.5957C17.6534 24.2658 17.6784 24.2781 17.0088 24.8532C14.5566 26.9592 12.3213 30.5788 12.3213 32.4432C12.3213 33.1163 12.7668 33.5905 13.3993 33.5905C14.042 33.5905 14.7515 32.8348 15.3089 31.5562C15.6601 30.7507 15.7781 30.5905 16.0198 30.5905C16.7235 30.5905 17.3213 30.0015 17.3213 29.3081C17.3213 29.146 17.4005 28.9048 17.4975 28.7722C17.6714 28.5345 17.6771 28.5345 17.9394 28.7717C18.0855 28.904 18.1768 29.0861 18.1421 29.1763C18.0535 29.4072 18.1136 29.3892 18.8864 28.9531C19.3766 28.6765 19.5936 28.4711 19.6461 28.2343C19.7951 27.5616 19.842 27.4655 20.0214 27.4655C20.1223 27.4655 20.3209 27.6623 20.4629 27.903C20.6048 28.1436 20.752 28.3405 20.7899 28.3405C20.8278 28.3405 21.2449 28.1178 21.7169 27.8457L22.575 27.351L23.154 27.5992L23.733 27.8473L23.6539 27.0627C23.6104 26.6311 23.4006 25.7155 23.1878 25.028C22.6401 23.2591 22.3234 21.9685 22.3223 21.5015C22.3218 21.2806 22.4334 20.8025 22.5705 20.439C23.3156 18.463 25.5824 17.3713 27.4644 18.0821C28.9234 18.6331 29.6985 19.5276 30.1445 21.1752C30.3941 22.0978 30.21 22.052 32.4756 21.7552C33.8386 21.5767 34.0681 21.5155 33.998 21.349C33.6249 20.4627 33.7229 19.4695 34.2519 18.7758C34.5665 18.3633 34.7575 18.2678 35.4274 18.188L35.721 18.153L35.3224 17.653C35.1031 17.378 34.8825 17.0792 34.8321 16.9892C34.7816 16.8991 34.4484 16.7982 34.0915 16.7651C33.2839 16.6901 32.6941 16.351 32.2783 15.7225C31.9099 15.1658 31.6508 13.8986 31.7153 12.9686C31.7391 12.623 31.7209 12.3403 31.6748 12.3403C31.3554 12.3407 29.2011 15.3357 28.4604 16.8092C28.2444 17.239 28.0219 17.5905 27.966 17.5905C27.9101 17.5905 27.7966 17.2225 27.7138 16.7727C27.4954 15.5876 26.8045 13.5578 26.1879 12.2902C24.3093 8.4277 21.3818 5.8422 17.8245 4.90383C16.9556 4.67458 15.8055 4.57758 15.4974 4.70745ZM41.7588 5.2182C39.6303 5.64545 37.3643 7.2857 36.3018 9.1682L35.9224 9.84045H34.8856C34.0516 9.84045 33.7913 9.88708 33.5539 10.0792C33.2679 10.3105 33.2575 10.3836 33.2195 12.4305C33.1834 14.382 33.1993 14.5665 33.4275 14.8481C33.6538 15.1271 33.763 15.153 34.7168 15.153H35.7588L36.2303 16.0905C37.1594 17.9376 38.867 19.3953 40.8569 20.0401C41.714 20.3178 42.1214 20.3742 43.3213 20.3818C44.8951 20.3917 45.4139 20.2832 46.7588 19.6627C48.3363 18.9348 49.8839 17.3882 50.5833 15.8407L50.8659 15.2155H52.0116C53.6641 15.2155 53.6338 15.2658 53.6338 12.5277C53.6338 9.78908 53.6649 9.84045 52.0078 9.84045H50.8579L50.2743 8.96258C49.4853 7.7762 48.9076 7.15845 48.0295 6.56208C46.2705 5.36758 43.7286 4.82283 41.7588 5.2182ZM43.7266 8.6537C41.793 9.39783 40.4414 10.979 39.9473 13.0747C39.6596 14.2946 40.0715 16.1816 40.78 16.8901C41.3258 17.4358 42.3213 17.2477 42.3213 16.5987C42.3213 16.4756 42.1533 16.1635 41.948 15.9051C41.182 14.9413 41.1093 13.7116 41.7405 12.3995C42.4261 10.9742 43.4794 10.0831 44.7105 9.8862C45.2686 9.79695 45.8213 9.3727 45.8213 9.03358C45.8213 8.69845 45.3485 8.34008 44.915 8.34658C44.6915 8.34995 44.1568 8.48808 43.7266 8.6537ZM25.3838 19.5071C24.4284 19.9421 23.8193 20.7412 23.8241 21.553C23.8266 21.9848 24.484 24.6698 24.6205 24.8063C24.6729 24.8587 27.9365 23.9031 28.711 23.6086C29.043 23.4825 29.2463 23.0712 29.0701 22.8822C29.0168 22.8248 28.8828 22.3736 28.7724 21.8792C28.524 20.7672 28.21 20.2206 27.5609 19.7707C26.9675 19.3596 25.9724 19.2391 25.3838 19.5071ZM36.203 19.8518C35.8974 19.9117 35.5599 20.0496 35.453 20.1581C35.277 20.337 35.2958 20.3887 35.6529 20.7103C36.6246 21.5855 39.1779 22.7691 40.9534 23.1676C43.3155 23.6978 46.3809 23.2736 48.7588 22.0873C51.367 20.7862 51.9049 19.981 50.3086 19.7671C49.8458 19.7051 49.65 19.7545 49.0713 20.079C46.1403 21.7226 44.3735 22.1468 41.9618 21.7862C40.5108 21.5693 39.1256 21.0305 37.9419 20.2225C37.1629 19.6907 37.0965 19.6766 36.203 19.8518ZM51.6963 27.23V31.8695L52.137 32.47C52.7371 33.2873 53.2598 34.4792 53.5825 35.7662C53.7308 36.3571 53.8926 36.8405 53.9424 36.8405C53.9921 36.8405 54.5055 36.6678 55.0833 36.4567C55.661 36.2457 56.8308 35.8252 57.6828 35.5223C58.5346 35.2195 59.2599 34.9435 59.2943 34.9091C59.3286 34.8748 59.2848 34.4937 59.1966 34.0623C58.5638 30.9611 57.5551 28.7967 55.7743 26.7185C54.8501 25.64 51.9206 22.5905 51.8088 22.5905C51.7441 22.5905 51.6963 24.5653 51.6963 27.23ZM33.4463 23.1081C33.0681 23.1701 32.2481 23.3075 31.6241 23.4133L30.4894 23.6058L30.2351 24.2077C30.0306 24.6917 29.8978 24.8351 29.5573 24.9396C29.3244 25.011 28.2619 25.3353 27.1963 25.6605C26.1306 25.9855 25.2145 26.2903 25.1605 26.3378C25.1065 26.3855 25.2033 26.8696 25.3754 27.4137C26.2189 30.0795 27.7841 31.2095 29.8864 30.6705C31.4805 30.2618 33.2085 29.9655 33.9971 29.9655H34.8213V26.4655V22.9655L34.4775 22.9803C34.2885 22.9885 33.8244 23.046 33.4463 23.1081ZM36.3511 28.4342L36.3838 33.778L39.5088 33.8176C41.2275 33.8395 44.3354 33.819 46.415 33.7721L50.1963 33.6867V28.3886C50.1963 25.4746 50.1753 23.0905 50.1495 23.0905C50.1238 23.0905 49.8566 23.2273 49.5558 23.3945C48.874 23.7735 47.7575 24.1931 46.6963 24.4693L45.8838 24.6808L46.3838 24.7746C47.1628 24.9207 47.9031 25.4098 48.2554 26.011C48.5623 26.5345 48.5713 26.6157 48.5713 28.8497C48.5713 31.0678 48.56 31.1716 48.2524 31.7762C47.919 32.4313 47.3106 32.9491 46.5839 33.1961C45.8989 33.4288 40.4948 33.3906 39.8075 33.1481C39.1999 32.9337 38.6531 32.4686 38.344 31.903C38.0759 31.4123 37.9643 27.2318 38.197 26.4005C38.4705 25.4236 39.3498 24.8531 40.6211 24.8277L41.2588 24.815L40.8213 24.6916C39.0779 24.2 38.1491 23.8855 37.3494 23.5161C36.8426 23.282 36.4034 23.0905 36.3733 23.0905C36.3431 23.0905 36.3333 25.4952 36.3511 28.4342ZM40.3541 26.3057C39.6439 26.3941 39.5713 26.6433 39.5713 28.9933C39.5713 30.8977 39.5934 31.1126 39.8123 31.3315C40.1601 31.6793 40.8046 31.7368 43.8599 31.6925L46.586 31.653L46.8259 31.3405C47.0393 31.0625 47.066 30.8051 47.0685 29.007C47.07 27.8953 47.0363 26.8948 46.9936 26.7836C46.8036 26.2886 46.3299 26.2146 43.4838 26.2355C41.985 26.2465 40.5766 26.2781 40.3541 26.3057ZM26.6423 32.268C26.4994 33.6288 26.2946 39.357 26.1324 46.528C26.0391 50.653 25.9591 54.0421 25.9545 54.0592C25.95 54.0763 25.8354 54.0905 25.6999 54.0905C25.3279 54.0905 22.5826 55.0172 21.8403 55.3933C20.5639 56.0401 18.9093 57.2223 18.0713 58.0862C16.5298 59.6752 15.5713 61.1649 15.5713 61.9713V62.3405H26.0156H36.46L35.956 61.6366C35.0816 60.4156 34.9066 59.787 34.8664 57.7225L34.8311 55.9171L34.439 55.6101C33.9214 55.2051 32.5816 54.6673 31.4333 54.4036C30.9248 54.2868 30.4385 54.1703 30.3525 54.1448C30.2493 54.1141 30.1956 53.8317 30.1943 53.3131C30.1933 52.8813 30.1379 50.9811 30.0714 49.0905C29.8835 43.746 29.5719 33.7238 29.5715 33.0112L29.5713 32.3696L28.79 32.3165C28.3018 32.2832 27.765 32.1452 27.3589 31.9482L26.7089 31.633L26.6423 32.268ZM40.7315 35.21C36.1953 35.2713 35.6794 35.2992 35.4503 35.4955C35.2223 35.6907 35.1963 35.8603 35.1963 37.1517C35.1963 38.4238 35.2253 38.6195 35.4463 38.8405C35.6908 39.085 35.8629 39.0905 43.3121 39.0905H50.9281L51.1871 38.7611C51.413 38.4739 51.4458 38.2617 51.4421 37.1048C51.4385 35.9487 51.4045 35.7377 51.1783 35.4655L50.9185 35.153L48.3386 35.1475C46.9198 35.1445 43.4965 35.1726 40.7315 35.21ZM57.1598 37.2828C55.7991 37.7786 54.651 38.2191 54.6085 38.2616C54.508 38.3619 54.7841 39.5988 55.0911 40.4238C55.4216 41.3122 55.7559 41.6964 56.4989 42.0424C58.1054 42.7904 59.923 42.0063 60.402 40.3586C60.5901 39.7114 60.5849 39.6362 60.2488 38.1943C60.0571 37.3728 59.8405 36.6288 59.7671 36.541C59.6615 36.4147 59.118 36.5693 57.1598 37.2828ZM36.3779 40.7481C36.3446 40.8347 36.3324 42.5926 36.3506 44.6543L36.3838 48.403L39.4775 48.4363L42.5713 48.4698V44.5301V40.5905H39.5049C37.1529 40.5905 36.4243 40.6272 36.3779 40.7481ZM44.1279 40.7481C44.0946 40.8347 44.0824 42.5926 44.1006 44.6543L44.1338 48.403L47.165 48.4365L50.1963 48.47V44.5302V40.5905H47.1924C44.8906 40.5905 44.1743 40.6273 44.1279 40.7481ZM36.3763 50.1274C36.342 50.2166 36.3298 51.1024 36.3489 52.0962L36.3838 53.903L39.4775 53.9363L42.5713 53.9698V51.9676V49.9655H39.5049C37.109 49.9655 36.4248 50.0008 36.3763 50.1274ZM44.0713 51.9655V53.9655H47.1338H50.1963V51.9655V49.9655H47.1338H44.0713V51.9655ZM36.3213 56.3405V57.2155H39.4463H42.5713V56.3405V55.4655H39.4463H36.3213V56.3405ZM44.0713 56.403V57.3405H47.1338H50.1963V56.403V55.4655H47.1338H44.0713V56.403ZM36.39 59.0592C36.7498 60.7403 37.9715 61.8405 39.4788 61.8405C40.358 61.8405 40.9686 61.5764 41.638 60.9072C42.2449 60.3002 42.5713 59.6272 42.5713 58.9822C42.5713 58.717 42.5534 58.7155 39.4439 58.7155H36.3165L36.39 59.0592ZM44.0713 58.9726C44.0713 59.8877 44.966 61.191 45.8789 61.6057C47.0283 62.1277 48.5571 61.7557 49.4831 60.7286C50.0129 60.1408 50.1963 59.7497 50.1963 59.2073V58.8405H47.1338C45.065 58.8405 44.0713 58.8833 44.0713 58.9726Z" fill="#DDDDDD"/>
</svg>
