<svg width="164" height="259" viewBox="0 0 164 259" fill="none" xmlns="http://www.w3.org/2000/svg">
<path d="M140.278 26.2442C141.678 26.2442 142.812 25.11 142.812 23.7109C142.812 22.3117 141.678 21.1775 140.278 21.1775C138.879 21.1775 137.744 22.3117 137.744 23.7109C137.744 25.11 138.879 26.2442 140.278 26.2442Z" fill="black"/>
<path d="M142.88 22.1692C144.747 20.3591 147.099 19.0987 149.582 18.5087C152.025 17.9272 154.786 17.8426 156.861 19.0818C157.358 19.3905 157.817 19.7966 158.132 20.2428C158.441 20.7038 158.64 21.2472 158.718 21.8013C158.898 22.9093 158.527 24.0999 157.671 24.6074C156.85 25.1593 155.562 24.9923 154.853 24.3008C154.496 23.9603 154.246 23.4697 154.143 22.9368C154.026 22.3595 154.234 21.9493 154.058 21.1182C153.161 21.3804 153.085 22.3215 153.094 23.0383C153.115 23.8017 153.405 24.5799 153.965 25.172C155.097 26.3478 156.969 26.5677 158.365 25.7049C159.784 24.7893 160.19 23.0235 159.928 21.6025C159.788 20.8729 159.496 20.1751 159.044 19.5724C158.572 18.974 158.005 18.5362 157.379 18.1831C156.118 17.5022 154.72 17.2695 153.371 17.2695C152.013 17.278 150.687 17.5 149.407 17.8828C146.858 18.6694 144.542 20.1328 142.782 22.0804L142.88 22.1692Z" fill="black"/>
<path d="M147.463 31.385C147.826 28.0692 151.951 25.8107 154.625 27.6589C155.947 28.4773 156.93 29.9259 157.04 31.4526C157.148 32.9858 156.357 34.54 155.572 36.1049C154.817 37.6549 153.971 39.5475 154.392 41.5438C154.832 43.4829 156.065 44.8892 156.894 46.3504C157.309 47.0842 157.639 47.8624 157.708 48.6639C157.776 49.4484 157.558 50.2943 157.059 50.9117C156.577 51.544 155.722 51.8866 154.95 51.525C154.21 51.2289 153.525 50.3831 153.85 49.5076C153.396 50.3408 154.005 51.3875 154.823 51.7914C155.234 52.0198 155.739 52.1128 156.23 52.005C156.702 51.8908 157.14 51.6286 157.476 51.2776C158.14 50.5607 158.455 49.5922 158.443 48.6258C158.421 47.6573 158.093 46.7522 157.7 45.9296C156.913 44.2823 155.767 42.8972 155.5 41.3239C155.221 39.7738 155.923 38.2195 156.738 36.6822C157.493 35.1343 158.457 33.4108 158.337 31.3575C158.172 29.3549 156.972 27.5426 155.259 26.5826C153.569 25.5443 151.272 25.6246 149.646 26.6523C148.013 27.6505 146.824 29.4162 146.777 31.3384L147.463 31.385Z" fill="black"/>
<path d="M154.98 38.3991C156.127 37.234 156.67 35.4132 156.266 33.6771C156.067 32.8143 155.659 31.9748 155.018 31.3404C154.703 31.0211 154.356 30.7293 153.963 30.5136C153.764 30.4078 153.55 30.3296 153.335 30.2704C153.106 30.2534 152.931 30.042 152.55 30.5305C152.546 31.148 152.74 31.0845 152.873 31.2368L153.29 31.573C153.569 31.7845 153.844 31.9981 154.088 32.2497C154.559 32.7572 155.006 33.3155 155.27 33.9816C155.792 35.3012 155.693 36.9654 154.877 38.323L154.98 38.3991Z" fill="black"/>
<path d="M155.615 43.2247C155.628 42.1441 154.87 41.0445 153.749 40.5772C153.191 40.3298 152.527 40.279 151.89 40.4376C151.264 40.611 150.725 40.9853 150.31 41.4611C149.915 41.9538 149.638 42.565 149.6 43.2268C149.574 43.8824 149.811 44.5824 150.259 45.0328C151.089 45.9548 152.616 46.1831 153.426 45.3923C152.385 45.646 151.486 45.0708 151.053 44.4005C150.625 43.728 150.784 42.9033 151.306 42.2943C151.82 41.6641 152.595 41.3554 153.432 41.5372C154.268 41.7191 155.101 42.2985 155.615 43.2247Z" fill="black"/>
<path d="M146.739 19.5194C147.649 18.6503 149.138 18.7497 149.882 19.456C150.257 19.8091 150.458 20.3251 150.481 20.8326C150.504 21.3443 150.342 21.8244 150.086 22.1818L150.033 22.2537L149.997 22.3446C149.992 22.3573 149.957 22.4102 149.887 22.4376C149.819 22.4694 149.76 22.4609 149.737 22.463C149.713 22.4672 149.629 22.444 149.561 22.3594C149.525 22.3192 149.491 22.2706 149.47 22.2177C149.436 22.1564 149.335 22.1099 149.115 21.8455C148.774 21.7779 148.601 21.9555 148.544 22.1226C148.499 22.2981 148.491 22.482 148.518 22.6618C148.577 23.017 148.791 23.3935 149.187 23.5986C149.582 23.8016 150.02 23.7783 150.375 23.6345C150.731 23.4886 151.063 23.2031 151.213 22.7802L151.126 22.943C151.625 22.2727 151.729 21.4184 151.581 20.6782C151.435 19.9318 151.02 19.2339 150.392 18.8004C149.117 17.9271 147.389 18.3521 146.636 19.4348L146.739 19.5194Z" fill="black"/>
<path d="M147.913 32.4801C148.541 32.4801 149.049 31.9717 149.049 31.3446C149.049 30.7174 148.541 30.209 147.913 30.209C147.286 30.209 146.777 30.7174 146.777 31.3446C146.777 31.9717 147.286 32.4801 147.913 32.4801Z" fill="black"/>
<path d="M154.837 51.2013C155.464 51.2013 155.973 50.6929 155.973 50.0658C155.973 49.4386 155.464 48.9302 154.837 48.9302C154.21 48.9302 153.701 49.4386 153.701 50.0658C153.701 50.6929 154.21 51.2013 154.837 51.2013Z" fill="black"/>
<path d="M141.909 21.2049C143.857 19.4455 145.321 17.1299 146.108 14.5818C146.491 13.3024 146.713 11.9765 146.721 10.6189C146.721 9.26976 146.489 7.87195 145.808 6.61161C145.454 5.98779 145.014 5.42106 144.416 4.94738C143.813 4.49696 143.115 4.20303 142.385 4.06347C140.966 3.80336 139.2 4.20727 138.282 5.6262C137.419 7.02188 137.639 8.89334 138.815 10.0247C139.407 10.5851 140.188 10.8769 140.949 10.8959C141.666 10.9044 142.605 10.8304 142.87 9.93165C142.038 9.75401 141.63 9.96336 141.051 9.84705C140.518 9.74344 140.027 9.49602 139.686 9.13653C138.995 8.42812 138.828 7.14028 139.38 6.31979C139.887 5.46124 141.078 5.09118 142.186 5.27304C142.743 5.35129 143.286 5.55007 143.745 5.85881C144.19 6.17389 144.596 6.63278 144.907 7.12972C146.146 9.20632 146.061 11.9638 145.48 14.4063C144.89 16.8889 143.629 19.2404 141.818 21.1076L141.909 21.2049Z" fill="black"/>
<path d="M132.648 17.2145C134.57 17.1679 136.337 15.9795 137.337 14.347C138.365 12.7208 138.445 10.4243 137.407 8.73468C136.447 7.02181 134.634 5.82281 132.631 5.65787C130.577 5.53733 128.853 6.5016 127.305 7.25654C125.767 8.07068 124.213 8.77274 122.662 8.49361C121.088 8.22716 119.703 7.08101 118.055 6.29436C117.233 5.90103 116.327 5.57328 115.358 5.55213C114.392 5.53733 113.421 5.8524 112.706 6.51852C112.355 6.85475 112.093 7.29249 111.978 7.76406C111.873 8.25466 111.964 8.76218 112.192 9.17031C112.598 9.98869 113.643 10.5977 114.476 10.1431C113.601 10.4687 112.755 9.78354 112.459 9.04341C112.097 8.27156 112.44 7.41725 113.072 6.9351C113.69 6.43816 114.536 6.21825 115.32 6.28591C116.122 6.3557 116.9 6.68558 117.634 7.10005C119.096 7.929 120.505 9.16184 122.442 9.60169C124.439 10.0225 126.332 9.17665 127.882 8.42172C129.448 7.63718 131.002 6.84628 132.536 6.95413C134.063 7.06409 135.512 8.04742 136.33 9.36908C138.179 12.042 135.92 16.1656 132.603 16.5293L132.648 17.2145Z" fill="black"/>
<path d="M125.666 9.11526C127.022 8.299 128.687 8.19962 130.009 8.72194C130.673 8.98627 131.233 9.43246 131.741 9.90403C131.993 10.1472 132.208 10.4221 132.418 10.7013L132.754 11.1178C132.904 11.2511 132.841 11.4456 133.461 11.4435C133.949 11.0629 133.735 10.8873 133.719 10.6589C133.659 10.4411 133.581 10.2297 133.475 10.0309C133.26 9.63757 132.968 9.28866 132.648 8.97569C132.014 8.33495 131.174 7.92681 130.311 7.72803C128.575 7.32413 126.753 7.86762 125.588 9.01376L125.666 9.11526Z" fill="black"/>
<path d="M120.761 8.37748C121.686 8.89134 122.265 9.7245 122.449 10.5598C122.631 11.3972 122.322 12.1733 121.692 12.685C121.083 13.2052 120.258 13.3638 119.585 12.9388C118.915 12.5053 118.34 11.6066 118.593 10.5661C117.802 11.3761 118.029 12.9028 118.953 13.7318C119.403 14.1801 120.101 14.419 120.759 14.3916C121.423 14.3535 122.035 14.0786 122.525 13.681C123.001 13.2644 123.376 12.7252 123.549 12.1014C123.708 11.467 123.657 10.803 123.41 10.2426C122.942 9.12394 121.842 8.36479 120.761 8.37748Z" fill="black"/>
<path d="M144.555 17.3518C145.638 16.599 146.063 14.8713 145.19 13.5962C144.756 12.9681 144.058 12.5536 143.312 12.4077C142.571 12.2597 141.717 12.3612 141.046 12.8624L141.209 12.7757C140.786 12.9258 140.5 13.2599 140.355 13.6131C140.213 13.9684 140.187 14.4082 140.39 14.8015C140.596 15.197 140.974 15.4105 141.327 15.4697C141.509 15.4972 141.691 15.4888 141.867 15.4444C142.034 15.3873 142.214 15.2139 142.144 14.8734C141.88 14.6556 141.835 14.552 141.774 14.5182C141.721 14.497 141.67 14.4632 141.632 14.4272C141.547 14.3596 141.524 14.275 141.528 14.2517C141.531 14.2306 141.522 14.1692 141.554 14.1016C141.581 14.0339 141.632 13.9979 141.647 13.9916L141.738 13.9557L141.81 13.9028C142.167 13.649 142.647 13.4841 143.159 13.5074C143.665 13.5306 144.181 13.7315 144.534 14.1058C145.241 14.8502 145.34 16.3389 144.471 17.2482L144.555 17.3518Z" fill="black"/>
<path d="M132.642 17.2125C133.268 17.2125 133.775 16.705 133.775 16.079C133.775 15.453 133.268 14.9456 132.642 14.9456C132.015 14.9456 131.508 15.453 131.508 16.079C131.508 16.705 132.015 17.2125 132.642 17.2125Z" fill="black"/>
<path d="M113.916 10.2912C114.543 10.2912 115.052 9.78275 115.052 9.15559C115.052 8.52843 114.543 8.02002 113.916 8.02002C113.289 8.02002 112.78 8.52843 112.78 9.15559C112.78 9.78275 113.289 10.2912 113.916 10.2912Z" fill="black"/>
<path d="M23.7117 26.244C25.1112 26.244 26.2457 25.1098 26.2457 23.7106C26.2457 22.3115 25.1112 21.1772 23.7117 21.1772C22.3122 21.1772 21.1777 22.3115 21.1777 23.7106C21.1777 25.1098 22.3122 26.244 23.7117 26.244Z" fill="black"/>
<path d="M21.2037 22.0801C19.4439 20.1325 17.1278 18.6713 14.579 17.8825C13.2993 17.4998 11.9731 17.2777 10.6152 17.2693C9.2657 17.2693 7.86547 17.5019 6.60695 18.1828C5.98297 18.536 5.41611 18.9758 4.94231 19.5722C4.49178 20.1748 4.19776 20.8727 4.05816 21.6022C3.79588 23.0212 4.202 24.7869 5.62127 25.7047C7.01728 26.5674 8.88921 26.3475 10.0208 25.1718C10.5813 24.5797 10.8732 23.8015 10.8923 23.0381C10.9007 22.3212 10.8267 21.3823 9.92774 21.118C9.75007 21.949 9.95947 22.3593 9.84313 22.9366C9.73949 23.4695 9.49202 23.9601 9.13244 24.3005C8.42386 24.992 7.13574 25.1591 6.31505 24.6072C5.4563 24.0997 5.08613 22.9091 5.26803 21.801C5.34629 21.2449 5.54512 20.7014 5.85394 20.2425C6.1691 19.7984 6.62809 19.3924 7.12515 19.0816C9.20224 17.8424 11.9604 17.9269 14.4034 18.5085C16.8866 19.0985 19.2387 20.3588 21.1043 22.169L21.2037 22.0801Z" fill="black"/>
<path d="M17.2096 31.3382C17.163 29.416 15.9743 27.6502 14.3414 26.6521C12.7148 25.6244 10.4178 25.544 8.72777 26.5823C7.01449 27.5424 5.81518 29.3546 5.6502 31.3572C5.52964 33.4106 6.49416 35.134 7.24928 36.6819C8.06362 38.2193 8.76584 39.7736 8.48664 41.3236C8.22013 42.8969 7.07371 44.282 6.28687 45.9293C5.89345 46.7519 5.5656 47.657 5.54444 48.6255C5.52964 49.5919 5.84479 50.5626 6.51106 51.2773C6.84737 51.6284 7.28521 51.8906 7.7569 52.0048C8.24973 52.1105 8.75526 52.0196 9.16349 51.7912C9.98205 51.3873 10.5912 50.3405 10.1365 49.5074C10.4622 50.3828 9.77689 51.2287 9.03658 51.5247C8.26455 51.8863 7.41003 51.5438 6.92777 50.9115C6.43071 50.294 6.21071 49.4481 6.2784 48.6636C6.3482 47.8622 6.67816 47.0839 7.09273 46.3502C7.92188 44.8889 9.15503 43.4827 9.59499 41.5435C10.0159 39.5473 9.16982 37.6547 8.41471 36.1046C7.62998 34.5377 6.83892 32.9855 6.9468 31.4524C7.05679 29.9256 8.04035 28.4771 9.36232 27.6587C12.0359 25.8105 16.1605 28.0689 16.5243 31.3847L17.2096 31.3382Z" fill="black"/>
<path d="M9.11125 38.3186C8.2948 36.9631 8.19539 35.2989 8.71783 33.9772C8.98223 33.3132 9.42852 32.7528 9.9002 32.2453C10.1434 31.9937 10.4184 31.7779 10.6976 31.5686L11.1143 31.2324C11.2476 31.0822 11.4422 31.1457 11.4379 30.5261C11.0572 30.0376 10.8816 30.2491 10.6532 30.266C10.4354 30.3252 10.2238 30.4034 10.025 30.5091C9.63159 30.7248 9.28257 31.0167 8.96952 31.336C8.32863 31.9704 7.92042 32.8099 7.7216 33.6727C7.3176 35.4088 7.86119 37.2295 9.00761 38.3947L9.11125 38.3186Z" fill="black"/>
<path d="M8.37223 43.2247C8.88621 42.3006 9.71958 41.7212 10.5551 41.5372C11.3927 41.3554 12.1689 41.6641 12.6808 42.2943C13.2011 42.9033 13.3598 43.728 12.9346 44.4005C12.501 45.0708 11.6021 45.646 10.5614 45.3923C11.3715 46.1831 12.8987 45.9569 13.7278 45.0328C14.1762 44.5824 14.4153 43.8845 14.3878 43.2268C14.3497 42.5628 14.0747 41.9517 13.677 41.4611C13.2604 40.9853 12.721 40.611 12.097 40.4376C11.4625 40.279 10.7983 40.3298 10.2378 40.5772C9.11675 41.0445 8.35954 42.1441 8.37223 43.2247Z" fill="black"/>
<path d="M17.3485 19.4369C16.5955 18.3542 14.8674 17.9291 13.5919 18.8025C12.9637 19.236 12.5492 19.9338 12.4032 20.6803C12.2552 21.4204 12.3567 22.2748 12.858 22.9451L12.7713 22.7823C12.9214 23.2052 13.2556 23.4907 13.6089 23.6366C13.9642 23.7783 14.4042 23.8037 14.7976 23.6007C15.1931 23.3955 15.4068 23.017 15.466 22.6639C15.4935 22.482 15.485 22.3002 15.4406 22.1246C15.3835 21.9576 15.21 21.7778 14.8695 21.8476C14.6495 22.1119 14.548 22.1563 14.5142 22.2198C14.493 22.2727 14.4592 22.3234 14.4232 22.3615C14.3555 22.4461 14.2709 22.4693 14.2476 22.4651C14.2265 22.463 14.1651 22.4714 14.0974 22.4397C14.0276 22.4122 13.9938 22.3615 13.9875 22.3467L13.9515 22.2557L13.8986 22.1838C13.6448 21.8264 13.4798 21.3464 13.5031 20.8347C13.5264 20.3293 13.7273 19.8133 14.1017 19.458C14.8462 18.7517 16.3353 18.6524 17.2448 19.5215L17.3485 19.4369Z" fill="black"/>
<path d="M16.0772 32.48C16.7046 32.48 17.2131 31.9716 17.2131 31.3444C17.2131 30.7173 16.7046 30.2089 16.0772 30.2089C15.4499 30.2089 14.9414 30.7173 14.9414 31.3444C14.9414 31.9716 15.4499 32.48 16.0772 32.48Z" fill="black"/>
<path d="M9.15244 51.2011C9.77975 51.2011 10.2883 50.6927 10.2883 50.0655C10.2883 49.4384 9.77975 48.9299 9.15244 48.9299C8.52513 48.9299 8.0166 49.4384 8.0166 50.0655C8.0166 50.6927 8.52513 51.2011 9.15244 51.2011Z" fill="black"/>
<path d="M22.1694 21.1095C20.3588 19.2423 19.0982 16.8907 18.508 14.4081C17.9264 11.9657 17.8418 9.20609 19.0812 7.13161C19.3901 6.63466 19.7983 6.17578 20.2425 5.86069C20.7015 5.55195 21.2472 5.35317 21.8013 5.27493C22.9097 5.09518 24.1005 5.46524 24.6082 6.32167C25.1602 7.14216 24.9931 8.43 24.3015 9.13842C23.9609 9.49579 23.4702 9.74532 22.9372 9.84894C22.3597 9.96524 21.9494 9.75801 21.1181 9.93353C21.3804 10.8301 22.3217 10.9063 23.0387 10.8978C23.8023 10.8767 24.5807 10.5869 25.1729 10.0266C26.349 8.89522 26.5689 7.02376 25.7059 5.62809C24.7901 4.20915 23.0239 3.80313 21.6025 4.06535C20.8728 4.20492 20.1748 4.49672 19.572 4.94926C18.9734 5.42083 18.5334 5.98756 18.1823 6.6135C17.5012 7.87384 17.2686 9.27164 17.2686 10.6208C17.277 11.9784 17.4991 13.3043 17.8819 14.5837C18.6688 17.1318 20.1325 19.4474 22.0806 21.2068L22.1694 21.1095Z" fill="black"/>
<path d="M31.3854 16.5271C28.0689 16.1634 25.8099 12.0398 27.6585 9.36687C28.4771 8.04521 29.926 7.06191 31.4531 6.95195C32.9866 6.8441 34.5412 7.63497 36.1065 8.41951C37.6569 9.17444 39.5499 10.0203 41.5467 9.59948C43.4863 9.15963 44.8928 7.9268 46.3544 7.09785C47.0884 6.68338 47.8668 6.35349 48.6684 6.28371C49.4532 6.21604 50.2992 6.43384 50.9168 6.9329C51.5493 7.41504 51.8919 8.26938 51.5302 9.04123C51.2341 9.78137 50.3881 10.4665 49.5124 10.1408C50.3458 10.5955 51.3927 9.98648 51.7967 9.16811C52.0252 8.75998 52.1182 8.25246 52.0104 7.76185C51.8961 7.29029 51.6339 6.85255 51.2828 6.51632C50.5657 5.85231 49.597 5.53724 48.6303 5.54993C47.6616 5.57108 46.7563 5.89674 45.9335 6.29218C44.2858 7.07883 42.9004 8.22496 41.3267 8.4914C39.7763 8.77054 38.2216 8.06848 36.6839 7.25433C35.1356 6.4994 33.4118 5.53513 31.3579 5.65566C29.3549 5.82061 27.5422 7.0196 26.5819 8.73248C25.5433 10.4221 25.6237 12.7186 26.6517 14.3448C27.6501 15.9773 29.4162 17.1657 31.3389 17.2123L31.3854 16.5271Z" fill="black"/>
<path d="M38.4025 9.01376C37.2371 7.86762 35.4159 7.32413 33.6794 7.72803C32.8164 7.92681 31.9767 8.33495 31.3421 8.97569C31.0227 9.29077 30.7309 9.63757 30.5151 10.0309C30.4093 10.2297 30.3311 10.4433 30.2719 10.6589C30.2549 10.8873 30.0434 11.0629 30.532 11.4435C31.1496 11.4477 31.0862 11.2532 31.2364 11.1178L31.5727 10.7013C31.7821 10.4221 31.9978 10.1472 32.2495 9.90403C32.7572 9.43246 33.3156 8.98627 33.9818 8.72194C35.3017 8.19962 36.9663 8.299 38.3243 9.11526L38.4025 9.01376Z" fill="black"/>
<path d="M43.2273 8.37723C42.1464 8.36454 41.0465 9.12158 40.5791 10.2424C40.3316 10.8006 40.2808 11.4646 40.4395 12.1011C40.6129 12.7271 40.9873 13.2663 41.4632 13.6808C41.9561 14.0762 42.5673 14.3532 43.2294 14.3913C43.8851 14.4167 44.5852 14.1798 45.0357 13.7315C45.9579 12.9026 46.1864 11.3758 45.3953 10.5659C45.6491 11.6063 45.0738 12.505 44.4033 12.9385C43.7307 13.3657 42.9058 13.2071 42.2966 12.6848C41.6663 12.1709 41.3575 11.397 41.5394 10.5595C41.7234 9.72637 42.3029 8.89321 43.2273 8.37723Z" fill="black"/>
<path d="M19.5198 17.2524C18.6504 16.3431 18.7498 14.8543 19.4563 14.11C19.8095 13.7357 20.3256 13.5348 20.8333 13.5115C21.3451 13.4882 21.8253 13.6511 22.1827 13.9069L22.2547 13.9598L22.3456 13.9958C22.3583 14 22.4112 14.036 22.4387 14.1057C22.4704 14.1734 22.4619 14.2326 22.4641 14.2559C22.4683 14.2791 22.445 14.3637 22.3604 14.4314C22.3202 14.4674 22.2716 14.5012 22.2187 14.5223C22.1574 14.5562 22.1108 14.6577 21.8485 14.8776C21.7809 15.2181 21.9585 15.3914 22.1256 15.4485C22.3012 15.493 22.4852 15.5014 22.665 15.4739C23.0204 15.4147 23.3968 15.2011 23.602 14.8057C23.8051 14.4102 23.7818 13.9725 23.638 13.6172C23.492 13.262 23.2065 12.93 22.7834 12.7798L22.9463 12.8666C22.2758 12.3675 21.4213 12.2639 20.681 12.4119C19.9343 12.5578 19.2363 12.9723 18.8027 13.6003C17.9292 14.8755 18.3543 16.6032 19.4373 17.356L19.5198 17.2524Z" fill="black"/>
<path d="M32.1485 15.2752C32.5927 15.7193 32.5927 16.4361 32.1485 16.8802C31.7043 17.3243 30.9873 17.3243 30.5431 16.8802C30.0989 16.4361 30.0989 15.7193 30.5431 15.2752C30.9873 14.8332 31.7064 14.8332 32.1485 15.2752Z" fill="black"/>
<path d="M50.0724 10.2908C50.6997 10.2908 51.2082 9.78238 51.2082 9.15522C51.2082 8.52807 50.6997 8.01965 50.0724 8.01965C49.4451 8.01965 48.9365 8.52807 48.9365 9.15522C48.9365 9.78238 49.4451 10.2908 50.0724 10.2908Z" fill="black"/>
<path d="M7.83587 53.9948C7.47629 53.9948 7.18652 54.2844 7.18652 54.6439V176.438C7.18652 176.797 7.47629 177.087 7.83587 177.087C8.19545 177.087 8.48524 176.797 8.48524 176.438V54.6439C8.48524 54.2866 8.19333 53.9948 7.83587 53.9948Z" fill="black"/>
<path d="M10.9175 58.146C10.7378 58.146 10.5918 58.4167 10.5918 58.7508V172.329C10.5918 172.663 10.7378 172.936 10.9175 172.936C11.0973 172.936 11.2433 172.665 11.2433 172.329V58.7508C11.2433 58.4167 11.0973 58.146 10.9175 58.146Z" fill="black"/>
<path d="M156.154 53.9948C156.514 53.9948 156.804 54.2844 156.804 54.6439V176.438C156.804 176.797 156.514 177.087 156.154 177.087C155.795 177.087 155.505 176.797 155.505 176.438V54.6439C155.503 54.2866 155.795 53.9948 156.154 53.9948Z" fill="black"/>
<path d="M153.071 58.1459C153.251 58.1459 153.397 58.4165 153.397 58.7507V172.329C153.397 172.663 153.251 172.936 153.071 172.936C152.891 172.936 152.745 172.665 152.745 172.329V58.7507C152.745 58.4165 152.891 58.1459 153.071 58.1459Z" fill="black"/>
<path d="M7.83587 205C7.47629 205 7.18652 204.645 7.18652 204.204V54.7937C7.18652 54.3527 7.47629 53.9973 7.83587 53.9973C8.19545 53.9973 8.48524 54.3527 8.48524 54.7937V204.204C8.48524 204.642 8.19333 205 7.83587 205Z" fill="black"/>
<path d="M10.9175 199.907C10.7378 199.907 10.5918 199.575 10.5918 199.163V59.831C10.5918 59.4212 10.7378 59.0891 10.9175 59.0891C11.0973 59.0891 11.2433 59.4212 11.2433 59.831V199.163C11.2433 199.573 11.0973 199.907 10.9175 199.907Z" fill="black"/>
<path d="M156.154 205C156.514 205 156.804 204.645 156.804 204.204V54.7933C156.804 54.3523 156.514 53.9969 156.154 53.9969C155.795 53.9969 155.505 54.3523 155.505 54.7933V204.204C155.503 204.642 155.795 205 156.154 205Z" fill="black"/>
<path d="M153.071 199.908C153.251 199.908 153.397 199.576 153.397 199.163V59.8312C153.397 59.4213 153.251 59.0892 153.071 59.0892C152.891 59.0892 152.745 59.4213 152.745 59.8312V199.163C152.745 199.573 152.891 199.908 153.071 199.908Z" fill="black"/>
<path d="M54.6562 8.28847C54.6562 7.92898 54.7853 7.63928 54.9439 7.63928H108.938C109.096 7.63928 109.225 7.92898 109.225 8.28847C109.225 8.64796 109.096 8.93766 108.938 8.93766H54.9439C54.7853 8.93766 54.6562 8.64796 54.6562 8.28847Z" fill="black"/>
<path d="M56.4971 11.3715C56.4971 11.1918 56.6176 11.0459 56.7656 11.0459H107.119C107.267 11.0459 107.388 11.1918 107.388 11.3715C107.388 11.5513 107.267 11.6972 107.119 11.6972H56.7656C56.6176 11.6972 56.4971 11.5513 56.4971 11.3715Z" fill="black"/>
<path d="M109.226 8.28835C109.226 7.92886 109.097 7.63916 108.939 7.63916H54.9449C54.7863 7.63916 54.6572 7.92886 54.6572 8.28835C54.6572 8.64784 54.7863 8.93754 54.9449 8.93754H108.939C109.097 8.93754 109.226 8.64784 109.226 8.28835Z" fill="black"/>
<path d="M107.386 11.3715C107.386 11.1918 107.265 11.0459 107.117 11.0459H56.7637C56.6156 11.0459 56.4951 11.1918 56.4951 11.3715C56.4951 11.5513 56.6156 11.6972 56.7637 11.6972H107.117C107.265 11.6972 107.386 11.5513 107.386 11.3715Z" fill="black"/>
<path d="M14.8112 14.8112C15.1332 14.4892 15.1603 13.9885 14.8699 13.6087C12.3281 10.1814 12.3195 9.35896 14.8644 6.16175C15.1551 5.7906 15.133 5.25869 14.8113 4.937C14.4852 4.61084 13.9667 4.5932 13.5866 4.87499C10.3358 7.33052 9.63398 7.33531 6.13513 4.87398C5.74637 4.60149 5.25467 4.6196 4.93715 4.93712C4.61069 5.26358 4.58811 5.75976 4.86954 6.14851C7.41584 9.56239 7.4244 10.3849 4.88396 13.5776C4.58877 13.9622 4.60641 14.4807 4.93703 14.8113C5.25872 15.133 5.76828 15.1596 6.15731 14.8688C9.42153 12.4178 10.1144 12.413 13.6043 14.8833C14.0065 15.1513 14.4982 15.1242 14.8112 14.8112Z" fill="black"/>
<path d="M140.283 237.651C141.682 237.651 142.817 236.517 142.817 235.118C142.817 233.718 141.682 232.584 140.283 232.584C138.884 232.584 137.749 233.718 137.749 235.118C137.749 236.517 138.884 237.651 140.283 237.651Z" fill="black"/>
<path d="M142.792 236.75C144.552 238.698 146.868 240.159 149.417 240.948C150.696 241.331 152.023 241.553 153.38 241.561C154.73 241.561 156.128 241.328 157.389 240.647C158.013 240.294 158.58 239.854 159.053 239.258C159.504 238.655 159.798 237.958 159.937 237.228C160.2 235.807 159.794 234.043 158.374 233.126C156.978 232.263 155.106 232.483 153.975 233.659C153.414 234.251 153.122 235.029 153.103 235.792C153.095 236.509 153.169 237.448 154.068 237.712C154.246 236.881 154.036 236.471 154.153 235.894C154.256 235.361 154.504 234.87 154.863 234.53C155.572 233.838 156.86 233.671 157.681 234.223C158.539 234.731 158.91 235.921 158.728 237.029C158.649 237.585 158.451 238.129 158.142 238.588C157.827 239.032 157.368 239.438 156.87 239.749C154.793 240.988 152.035 240.903 149.592 240.322C147.109 239.732 144.757 238.472 142.889 236.661L142.792 236.75Z" fill="black"/>
<path d="M146.784 227.49C146.831 229.412 148.019 231.178 149.652 232.176C151.279 233.204 153.576 233.284 155.266 232.246C156.979 231.286 158.179 229.474 158.344 227.471C158.464 225.418 157.5 223.694 156.745 222.146C155.93 220.609 155.228 219.055 155.507 217.505C155.774 215.931 156.92 214.546 157.707 212.899C158.1 212.076 158.428 211.171 158.449 210.203C158.462 209.236 158.149 208.266 157.483 207.551C157.146 207.2 156.709 206.938 156.237 206.823C155.744 206.718 155.238 206.809 154.83 207.037C154.012 207.443 153.403 208.488 153.857 209.321C153.532 208.445 154.217 207.599 154.957 207.303C155.729 206.942 156.584 207.284 157.066 207.917C157.563 208.534 157.783 209.38 157.715 210.165C157.646 210.966 157.316 211.744 156.901 212.478C156.072 213.939 154.839 215.345 154.399 217.285C153.978 219.281 154.824 221.173 155.579 222.724C156.364 224.29 157.155 225.843 157.047 227.376C156.937 228.903 155.953 230.351 154.631 231.17C151.958 233.018 147.833 230.759 147.469 227.443L146.784 227.49Z" fill="black"/>
<path d="M154.883 220.512C155.7 221.867 155.799 223.532 155.277 224.853C155.012 225.517 154.566 226.078 154.094 226.585C153.851 226.837 153.576 227.052 153.297 227.262L152.88 227.598C152.747 227.748 152.552 227.685 152.557 228.304C152.937 228.793 153.113 228.579 153.341 228.564C153.559 228.505 153.771 228.427 153.97 228.321C154.363 228.106 154.712 227.814 155.025 227.494C155.666 226.86 156.074 226.02 156.273 225.158C156.677 223.422 156.133 221.601 154.987 220.436L154.883 220.512Z" fill="black"/>
<path d="M155.62 215.606C155.106 216.53 154.273 217.109 153.437 217.293C152.6 217.475 151.823 217.166 151.312 216.536C150.791 215.927 150.633 215.102 151.058 214.43C151.491 213.76 152.39 213.184 153.431 213.438C152.621 212.647 151.094 212.873 150.265 213.798C149.816 214.248 149.577 214.946 149.605 215.604C149.643 216.268 149.918 216.879 150.315 217.369C150.732 217.845 151.271 218.219 151.895 218.393C152.53 218.551 153.194 218.501 153.755 218.253C154.876 217.786 155.633 216.686 155.62 215.606Z" fill="black"/>
<path d="M146.646 239.394C147.399 240.476 149.128 240.901 150.403 240.028C151.031 239.594 151.446 238.897 151.592 238.15C151.74 237.41 151.638 236.556 151.137 235.885L151.224 236.048C151.073 235.625 150.739 235.34 150.386 235.194C150.031 235.052 149.591 235.027 149.197 235.23C148.802 235.435 148.588 235.813 148.529 236.167C148.501 236.348 148.51 236.53 148.554 236.706C148.611 236.873 148.785 237.053 149.125 236.983C149.345 236.719 149.447 236.674 149.481 236.611C149.502 236.558 149.536 236.507 149.572 236.469C149.639 236.384 149.724 236.361 149.747 236.365C149.768 236.367 149.83 236.359 149.897 236.391C149.965 236.418 150.001 236.469 150.007 236.484L150.043 236.575L150.096 236.647C150.35 237.004 150.515 237.484 150.492 237.996C150.469 238.501 150.268 239.017 149.893 239.372C149.149 240.079 147.66 240.178 146.75 239.309L146.646 239.394Z" fill="black"/>
<path d="M147.92 228.621C148.547 228.621 149.056 228.113 149.056 227.486C149.056 226.859 148.547 226.35 147.92 226.35C147.293 226.35 146.784 226.859 146.784 227.486C146.784 228.113 147.293 228.621 147.92 228.621Z" fill="black"/>
<path d="M154.843 209.9C155.47 209.9 155.979 209.392 155.979 208.765C155.979 208.138 155.47 207.629 154.843 207.629C154.216 207.629 153.707 208.138 153.707 208.765C153.707 209.392 154.216 209.9 154.843 209.9Z" fill="black"/>
<path d="M141.823 237.719C143.634 239.586 144.895 241.937 145.485 244.42C146.066 246.862 146.151 249.622 144.911 251.696C144.603 252.193 144.194 252.652 143.75 252.967C143.291 253.276 142.746 253.475 142.191 253.553C141.083 253.733 139.892 253.363 139.385 252.506C138.832 251.686 139 250.398 139.691 249.69C140.032 249.332 140.522 249.083 141.056 248.979C141.633 248.863 142.043 249.07 142.875 248.895C142.612 247.998 141.671 247.922 140.954 247.93C140.19 247.951 139.412 248.241 138.82 248.802C137.644 249.933 137.424 251.804 138.287 253.2C139.203 254.619 140.969 255.025 142.39 254.763C143.12 254.623 143.818 254.331 144.421 253.879C145.019 253.407 145.459 252.841 145.813 252.215C146.494 250.954 146.726 249.556 146.726 248.207C146.718 246.85 146.496 245.524 146.113 244.244C145.326 241.696 143.862 239.381 141.914 237.621L141.823 237.719Z" fill="black"/>
<path d="M132.608 242.301C135.925 242.665 138.184 246.789 136.335 249.461C135.517 250.783 134.068 251.766 132.541 251.876C131.007 251.984 129.452 251.193 127.887 250.409C126.337 249.654 124.444 248.808 122.447 249.229C120.507 249.669 119.101 250.902 117.639 251.731C116.905 252.145 116.127 252.475 115.325 252.545C114.541 252.612 113.694 252.395 113.077 251.895C112.444 251.413 112.102 250.559 112.463 249.787C112.76 249.047 113.606 248.362 114.481 248.687C113.648 248.233 112.601 248.842 112.197 249.66C111.968 250.068 111.875 250.576 111.983 251.066C112.097 251.538 112.36 251.976 112.711 252.312C113.428 252.976 114.397 253.291 115.363 253.278C116.332 253.257 117.237 252.929 118.06 252.536C119.708 251.75 121.093 250.603 122.667 250.337C124.217 250.058 125.772 250.76 127.31 251.574C128.858 252.329 130.582 253.293 132.636 253.173C134.639 253.008 136.451 251.809 137.412 250.096C138.45 248.406 138.37 246.11 137.342 244.484C136.344 242.851 134.577 241.663 132.653 241.616L132.608 242.301Z" fill="black"/>
<path d="M125.593 249.817C126.758 250.963 128.579 251.506 130.316 251.102C131.179 250.904 132.019 250.495 132.653 249.855C132.973 249.54 133.264 249.193 133.48 248.799C133.586 248.601 133.664 248.387 133.723 248.171C133.74 247.943 133.952 247.768 133.465 247.387C132.848 247.383 132.911 247.577 132.759 247.713L132.423 248.129C132.211 248.408 131.998 248.683 131.746 248.926C131.238 249.398 130.68 249.844 130.013 250.108C128.694 250.631 127.029 250.531 125.671 249.715L125.593 249.817Z" fill="black"/>
<path d="M120.767 250.451C121.847 250.464 122.947 249.706 123.415 248.586C123.662 248.027 123.713 247.363 123.554 246.727C123.381 246.101 123.007 245.562 122.531 245.147C122.04 244.752 121.427 244.475 120.765 244.437C120.109 244.411 119.409 244.648 118.958 245.097C118.036 245.925 117.808 247.452 118.599 248.262C118.345 247.222 118.92 246.323 119.591 245.89C120.263 245.462 121.088 245.621 121.697 246.143C122.328 246.657 122.636 247.431 122.455 248.269C122.271 249.104 121.691 249.937 120.767 250.451Z" fill="black"/>
<path d="M144.474 241.578C145.344 242.487 145.244 243.976 144.538 244.72C144.185 245.095 143.668 245.296 143.163 245.319C142.651 245.342 142.171 245.179 141.813 244.923L141.742 244.871L141.651 244.835C141.638 244.83 141.585 244.794 141.558 244.725C141.526 244.657 141.534 244.598 141.532 244.575C141.528 244.551 141.551 244.467 141.636 244.399C141.676 244.363 141.725 244.329 141.778 244.308C141.839 244.274 141.885 244.173 142.148 243.953C142.215 243.612 142.038 243.439 141.871 243.382C141.695 243.338 141.511 243.329 141.331 243.357C140.976 243.416 140.599 243.629 140.394 244.025C140.191 244.42 140.214 244.858 140.358 245.213C140.504 245.568 140.79 245.9 141.213 246.051L141.05 245.964C141.72 246.463 142.575 246.567 143.315 246.419C144.062 246.273 144.76 245.858 145.193 245.23C146.067 243.955 145.642 242.227 144.559 241.474L144.474 241.578Z" fill="black"/>
<path d="M132.648 243.887C133.275 243.887 133.783 243.379 133.783 242.752C133.783 242.125 133.275 241.616 132.648 241.616C132.02 241.616 131.512 242.125 131.512 242.752C131.512 243.379 132.02 243.887 132.648 243.887Z" fill="black"/>
<path d="M113.921 250.808C114.548 250.808 115.057 250.3 115.057 249.673C115.057 249.046 114.548 248.537 113.921 248.537C113.294 248.537 112.785 249.046 112.785 249.673C112.785 250.3 113.294 250.808 113.921 250.808Z" fill="black"/>
<path d="M23.7195 237.651C25.119 237.651 26.2535 236.517 26.2535 235.118C26.2535 233.719 25.119 232.584 23.7195 232.584C22.32 232.584 21.1855 233.719 21.1855 235.118C21.1855 236.517 22.32 237.651 23.7195 237.651Z" fill="black"/>
<path d="M21.1189 236.659C19.2512 238.47 16.8992 239.73 14.4181 240.32C11.9751 240.901 9.21478 240.986 7.1398 239.747C6.64274 239.438 6.18374 239.032 5.86858 238.586C5.55977 238.127 5.36094 237.581 5.28268 237.027C5.10289 235.919 5.47306 234.729 6.3297 234.221C7.15038 233.669 8.43851 233.836 9.14709 234.528C9.50455 234.868 9.75414 235.359 9.85778 235.892C9.97411 236.469 9.76683 236.879 9.94239 237.71C10.8392 237.448 10.9154 236.507 10.9069 235.79C10.8858 235.027 10.596 234.249 10.0355 233.657C8.90386 232.481 7.03193 232.261 5.63592 233.124C4.21665 234.039 3.81053 235.805 4.07281 237.226C4.21241 237.956 4.50432 238.654 4.95696 239.256C5.42864 239.855 5.99551 240.292 6.62159 240.646C7.88223 241.326 9.28035 241.559 10.6298 241.559C11.9878 241.551 13.314 241.329 14.5936 240.946C17.1424 240.159 19.4585 238.696 21.2183 236.748L21.1189 236.659Z" fill="black"/>
<path d="M16.5359 227.446C16.172 230.762 12.0475 233.02 9.37391 231.172C8.05194 230.354 7.06838 228.905 6.95839 227.378C6.85051 225.845 7.64157 224.291 8.4263 222.726C9.18141 221.176 10.0275 219.283 9.60658 217.287C9.16451 215.348 7.93346 213.942 7.10432 212.481C6.68975 211.747 6.35979 210.969 6.28999 210.167C6.22019 209.383 6.44018 208.537 6.93936 207.919C7.42161 207.287 8.27613 206.944 9.04817 207.306C9.78848 207.602 10.4738 208.448 10.148 209.323C10.6028 208.49 9.99364 207.443 9.17507 207.039C8.76685 206.811 8.2592 206.718 7.76849 206.826C7.2968 206.94 6.85896 207.202 6.52265 207.553C5.85849 208.27 5.54334 209.239 5.55603 210.205C5.57718 211.174 5.90292 212.079 6.29846 212.901C7.0853 214.549 8.23172 215.934 8.49823 217.507C8.77743 219.057 8.0752 220.611 7.26087 222.149C6.50575 223.697 5.54123 225.42 5.66179 227.473C5.82677 229.476 7.02608 231.288 8.73936 232.248C10.4294 233.287 12.7264 233.206 14.353 232.179C15.9859 231.18 17.1746 229.415 17.2212 227.492L16.5359 227.446Z" fill="black"/>
<path d="M9.01737 220.432C7.87096 221.597 7.32737 223.417 7.73136 225.154C7.93019 226.016 8.3384 226.856 8.97929 227.49C9.29445 227.81 9.64136 228.101 10.0348 228.317C10.2336 228.423 10.4472 228.501 10.663 228.56C10.8914 228.577 11.067 228.789 11.4477 228.3C11.4519 227.683 11.2573 227.746 11.1241 227.594L10.7074 227.258C10.4282 227.048 10.1532 226.833 9.90997 226.581C9.43829 226.073 8.99199 225.515 8.7276 224.849C8.20515 223.529 8.30456 221.865 9.12102 220.508L9.01737 220.432Z" fill="black"/>
<path d="M8.38297 215.606C8.37028 216.686 9.1275 217.786 10.2485 218.253C10.8069 218.501 11.4711 218.552 12.1078 218.393C12.7339 218.22 13.2732 217.845 13.6878 217.37C14.0833 216.879 14.3604 216.266 14.3985 215.604C14.4239 214.948 14.187 214.248 13.7386 213.798C12.9094 212.876 11.3823 212.647 10.5722 213.438C11.6128 213.185 12.5118 213.76 12.9454 214.43C13.3726 215.103 13.214 215.927 12.6916 216.536C12.1776 217.166 11.4034 217.475 10.5658 217.293C9.73032 217.109 8.89907 216.53 8.38297 215.606Z" fill="black"/>
<path d="M17.2611 239.309C16.3516 240.178 14.8625 240.079 14.118 239.373C13.7436 239.02 13.5426 238.504 13.5194 237.996C13.4961 237.484 13.659 237.004 13.9149 236.647L13.9678 236.575L14.0037 236.484C14.008 236.471 14.0439 236.419 14.1137 236.391C14.1814 236.359 14.2407 236.368 14.2639 236.366C14.2872 236.361 14.3718 236.385 14.4395 236.469C14.4754 236.509 14.5093 236.558 14.5304 236.611C14.5643 236.672 14.6658 236.719 14.8858 236.983C15.2263 237.051 15.3998 236.873 15.4569 236.706C15.5013 236.531 15.5098 236.347 15.4823 236.167C15.423 235.812 15.2094 235.435 14.8139 235.23C14.4183 235.027 13.9805 235.05 13.6251 235.194C13.2698 235.34 12.9377 235.626 12.7875 236.048L12.8742 235.886C12.3751 236.556 12.2714 237.41 12.4195 238.15C12.5654 238.897 12.98 239.595 13.6082 240.028C14.8836 240.902 16.6117 240.477 17.3647 239.394L17.2611 239.309Z" fill="black"/>
<path d="M16.086 228.622C16.7133 228.622 17.2219 228.113 17.2219 227.486C17.2219 226.859 16.7133 226.351 16.086 226.351C15.4587 226.351 14.9502 226.859 14.9502 227.486C14.9502 228.113 15.4587 228.622 16.086 228.622Z" fill="black"/>
<path d="M9.16221 209.901C9.78952 209.901 10.2981 209.392 10.2981 208.765C10.2981 208.138 9.78952 207.63 9.16221 207.63C8.5349 207.63 8.02637 208.138 8.02637 208.765C8.02637 209.392 8.5349 209.901 9.16221 209.901Z" fill="black"/>
<path d="M22.0884 237.626C20.1403 239.385 18.6787 241.701 17.8897 244.249C17.5069 245.528 17.2848 246.854 17.2764 248.212C17.2764 249.561 17.509 250.961 18.1901 252.219C18.5433 252.843 18.9833 253.41 19.5798 253.883C20.1826 254.334 20.8806 254.628 21.6103 254.767C23.0296 255.029 24.7958 254.623 25.7138 253.205C26.5767 251.809 26.3568 249.937 25.1807 248.806C24.5885 248.246 23.808 247.954 23.0465 247.935C22.3295 247.926 21.3903 248 21.126 248.899C21.9572 249.077 22.3654 248.867 22.945 248.984C23.478 249.087 23.9687 249.335 24.3093 249.694C25.0009 250.403 25.168 251.69 24.616 252.511C24.1083 253.369 22.9175 253.74 21.8091 253.558C21.2529 253.479 20.7093 253.281 20.2503 252.972C19.8061 252.657 19.4 252.198 19.0891 251.701C17.8496 249.624 17.9342 246.867 18.5158 244.424C19.106 241.942 20.3666 239.59 22.1772 237.723L22.0884 237.626Z" fill="black"/>
<path d="M31.3486 241.616C29.426 241.663 27.6598 242.851 26.6615 244.484C25.6335 246.11 25.5531 248.407 26.5916 250.096C27.5519 251.809 29.3646 253.008 31.3677 253.173C33.4215 253.293 35.1454 252.329 36.6937 251.574C38.2314 250.76 39.7861 250.058 41.3365 250.337C42.9101 250.604 44.2956 251.75 45.9433 252.536C46.7661 252.93 47.6714 253.258 48.6401 253.279C49.6067 253.293 50.5776 252.978 51.2925 252.312C51.6436 251.976 51.9059 251.538 52.0201 251.067C52.1259 250.574 52.0349 250.069 51.8065 249.661C51.4004 248.842 50.3555 248.233 49.5222 248.688C50.3978 248.362 51.2439 249.047 51.54 249.787C51.9017 250.559 51.559 251.414 50.9266 251.896C50.309 252.393 49.4629 252.613 48.6782 252.545C47.8765 252.475 47.0981 252.145 46.3642 251.731C44.9026 250.902 43.4939 249.669 41.5564 249.229C39.5597 248.808 37.6666 249.654 36.1162 250.409C34.5489 251.194 32.9964 251.985 31.4629 251.877C29.9357 251.767 28.4868 250.783 27.6683 249.462C25.8196 246.789 28.0786 242.665 31.3952 242.301L31.3486 241.616Z" fill="black"/>
<path d="M38.3301 249.713C36.9743 250.53 35.3097 250.629 33.9877 250.107C33.3236 249.842 32.763 249.396 32.2554 248.925C32.0037 248.681 31.7879 248.406 31.5785 248.127L31.2422 247.711C31.092 247.577 31.1555 247.383 30.5379 247.385C30.0493 247.766 30.2608 247.941 30.2777 248.17C30.3369 248.387 30.4152 248.599 30.521 248.798C30.7367 249.191 31.0286 249.54 31.348 249.853C31.9825 250.494 32.8223 250.902 33.6852 251.1C35.4218 251.504 37.2429 250.961 38.4084 249.815L38.3301 249.713Z" fill="black"/>
<path d="M43.2351 250.451C42.3107 249.937 41.7312 249.104 41.5472 248.269C41.3653 247.431 41.6741 246.655 42.3044 246.144C42.9136 245.623 43.7385 245.465 44.4111 245.89C45.0816 246.323 45.6569 247.222 45.4031 248.262C46.1942 247.453 45.9679 245.926 45.0435 245.097C44.593 244.649 43.895 244.41 43.2372 244.437C42.573 244.475 41.9618 244.75 41.471 245.148C40.9951 245.564 40.6207 246.103 40.4473 246.727C40.2886 247.362 40.3394 248.026 40.5869 248.586C41.0565 249.707 42.1563 250.464 43.2351 250.451Z" fill="black"/>
<path d="M19.4431 241.479C18.3602 242.231 17.935 243.959 18.8086 245.234C19.2422 245.862 19.9402 246.277 20.6868 246.423C21.4272 246.571 22.2817 246.469 22.9522 245.968L22.7893 246.055C23.2123 245.905 23.4979 245.57 23.6438 245.217C23.7856 244.862 23.8109 244.422 23.6079 244.029C23.4027 243.633 23.0241 243.42 22.6709 243.361C22.489 243.333 22.3071 243.342 22.1315 243.386C21.9644 243.443 21.7846 243.617 21.8544 243.957C22.1188 244.177 22.1632 244.278 22.2246 244.312C22.2775 244.333 22.3282 244.367 22.3663 244.403C22.4509 244.471 22.4741 244.555 22.4699 244.579C22.4678 244.6 22.4763 244.661 22.4445 244.729C22.417 244.797 22.3663 244.832 22.3515 244.839L22.2605 244.875L22.1886 244.928C21.8311 245.181 21.351 245.346 20.8391 245.323C20.3336 245.3 19.8175 245.099 19.4622 244.725C18.7557 243.98 18.6563 242.492 19.5256 241.582L19.4431 241.479Z" fill="black"/>
<path d="M32.1563 243.553C32.6005 243.109 32.6005 242.392 32.1563 241.948C31.7121 241.504 30.9951 241.504 30.5509 241.948C30.1067 242.392 30.1067 243.109 30.5509 243.553C30.9951 243.997 31.7142 243.997 32.1563 243.553Z" fill="black"/>
<path d="M50.0802 250.808C50.7075 250.808 51.216 250.3 51.216 249.673C51.216 249.046 50.7075 248.537 50.0802 248.537C49.4529 248.537 48.9443 249.046 48.9443 249.673C48.9443 250.3 49.4529 250.808 50.0802 250.808Z" fill="black"/>
<path d="M109.23 250.54C109.23 250.899 109.101 251.189 108.943 251.189H54.9488C54.7902 251.189 54.6611 250.899 54.6611 250.54C54.6611 250.18 54.7902 249.89 54.9488 249.89H108.943C109.101 249.89 109.23 250.182 109.23 250.54Z" fill="black"/>
<path d="M107.392 247.459C107.392 247.638 107.271 247.784 107.123 247.784H56.7696C56.6215 247.784 56.501 247.638 56.501 247.459C56.501 247.279 56.6215 247.133 56.7696 247.133H107.123C107.271 247.133 107.392 247.279 107.392 247.459Z" fill="black"/>
<path d="M14.8112 253.896C15.1332 253.574 15.1603 253.073 14.8699 252.693C12.3281 249.266 12.3195 248.443 14.8644 245.246C15.1551 244.875 15.133 244.343 14.8113 244.021C14.4852 243.695 13.9667 243.678 13.5866 243.959C10.3358 246.415 9.63398 246.42 6.13513 243.958C5.74637 243.686 5.25467 243.704 4.93715 244.022C4.61069 244.348 4.58811 244.844 4.86954 245.233C7.41584 248.647 7.4244 249.469 4.88396 252.662C4.58877 253.047 4.60641 253.565 4.93703 253.896C5.25872 254.217 5.76828 254.244 6.15731 253.953C9.42153 251.502 10.1144 251.497 13.6043 253.968C14.0065 254.236 14.4982 254.209 14.8112 253.896Z" fill="black"/>
<path d="M159.063 253.896C159.385 253.574 159.412 253.073 159.122 252.693C156.58 249.266 156.571 248.443 159.116 245.246C159.407 244.875 159.385 244.343 159.063 244.021C158.737 243.695 158.219 243.678 157.839 243.959C154.588 246.415 153.886 246.42 150.387 243.958C149.998 243.686 149.507 243.704 149.189 244.022C148.863 244.348 148.84 244.844 149.121 245.233C151.668 248.647 151.676 249.469 149.136 252.662C148.841 253.047 148.858 253.565 149.189 253.896C149.511 254.217 150.02 254.244 150.409 253.953C153.673 251.502 154.366 251.497 157.856 253.968C158.258 254.236 158.75 254.209 159.063 253.896Z" fill="black"/>
<path d="M159.063 14.8112C159.385 14.4892 159.412 13.9885 159.122 13.6087C156.58 10.1814 156.571 9.35896 159.116 6.16175C159.407 5.7906 159.385 5.25869 159.063 4.937C158.737 4.61084 158.219 4.5932 157.839 4.87499C154.588 7.33052 153.886 7.33531 150.387 4.87398C149.998 4.60149 149.507 4.6196 149.189 4.93712C148.863 5.26358 148.84 5.75976 149.121 6.14851C151.668 9.56239 151.676 10.3849 149.136 13.5776C148.841 13.9622 148.858 14.4807 149.189 14.8113C149.511 15.133 150.02 15.1596 150.409 14.8688C153.673 12.4178 154.366 12.413 157.856 14.8833C158.258 15.1513 158.75 15.1242 159.063 14.8112Z" fill="black"/>
</svg>
