<svg width="32" height="32" viewBox="0 0 32 32" fill="none" xmlns="http://www.w3.org/2000/svg">
<path fill-rule="evenodd" clip-rule="evenodd" d="M24.6406 12.4208C24.5953 12.7602 24.328 13 24.0018 13C23.6846 13 23.4219 12.7647 23.3539 12.4253C22.8374 9.40724 22.484 9.05882 19.589 8.64706C19.2447 8.59729 19 8.32579 19 8C19 7.66516 19.2537 7.39367 19.598 7.34842C22.5022 7.0181 22.9144 6.59729 23.3539 3.57919C23.4083 3.23982 23.6711 3 24.0018 3C24.3235 3 24.5817 3.23982 24.6406 3.57466C25.1662 6.59276 25.5241 6.9457 28.4146 7.34842C28.7499 7.39819 29.0036 7.66968 29.0036 8C29.0036 8.32579 28.7453 8.60633 28.4101 8.64706C25.5014 8.97738 25.0891 9.39819 24.6406 12.4208ZM14.0168 9.71614C13.3696 9.42795 12.6304 9.42795 11.9832 9.71614C11.5089 9.9273 11.1837 10.3069 10.9278 10.6691C10.6749 11.027 10.3999 11.5034 10.0787 12.0598L10.0787 12.0598L10.0555 12.1L9.01629 13.9L8.99307 13.9402C8.67185 14.4965 8.39678 14.9729 8.21326 15.3709C8.02752 15.7736 7.86135 16.245 7.91562 16.7613C7.98968 17.466 8.35926 18.1061 8.93246 18.5225C9.35248 18.8277 9.84379 18.9195 10.2855 18.96C10.7218 19 11.2718 19 11.9142 19H11.9143L11.9608 19H14.0392L14.0857 19H14.0858C14.7282 19 15.2782 19 15.7145 18.96C16.1562 18.9195 16.6475 18.8277 17.0675 18.5225C17.6407 18.1061 18.0103 17.466 18.0844 16.7613C18.1387 16.245 17.9725 15.7736 17.7867 15.3709C17.6032 14.9729 17.3282 14.4965 17.0069 13.9402L16.9837 13.9L15.9445 12.1L15.9213 12.0598L15.9213 12.0598C15.6001 11.5034 15.3251 11.027 15.0722 10.6691C14.8163 10.3069 14.4911 9.9273 14.0168 9.71614ZM12.5613 11.8232C12.716 11.6041 12.7911 11.5484 12.8017 11.541C12.9283 11.4863 13.0718 11.4863 13.1983 11.541C13.209 11.5484 13.284 11.6041 13.4387 11.8232C13.6322 12.0969 13.8615 12.4922 14.2124 13.1L15.2517 14.9C15.6026 15.5078 15.8302 15.9041 15.9706 16.2084C16.0829 16.452 16.0936 16.5448 16.0947 16.5578C16.0788 16.6947 16.007 16.819 15.8964 16.9012C15.8847 16.9067 15.7989 16.9439 15.5318 16.9684C15.198 16.999 14.741 17 14.0392 17H11.9608C11.259 17 10.802 16.999 10.4682 16.9684C10.2011 16.9439 10.1153 16.9067 10.1036 16.9012C9.99296 16.819 9.9212 16.6947 9.90528 16.5578C9.90639 16.5448 9.91711 16.452 10.0294 16.2084C10.1698 15.9041 10.3974 15.5078 10.7483 14.9L11.7876 13.1C12.1385 12.4922 12.3678 12.0969 12.5613 11.8232ZM6.36391 20L6.4 20H8.6L8.63609 20H8.63619C9.02524 20 9.37534 20 9.66663 20.0238C9.9786 20.0492 10.3101 20.1069 10.635 20.2725C11.1054 20.5122 11.4878 20.8946 11.7275 21.365C11.8931 21.6899 11.9508 22.0214 11.9762 22.3334C12 22.6247 12 22.9748 12 23.3639L12 23.4V25.6L12 25.6361C12 26.0252 12 26.3753 11.9762 26.6666C11.9508 26.9786 11.8931 27.3101 11.7275 27.635C11.4878 28.1054 11.1054 28.4878 10.635 28.7275C10.3101 28.8931 9.9786 28.9508 9.66663 28.9762C9.37534 29 9.02523 29 8.63617 29H8.63607L8.6 29H6.4L6.36394 29H6.36383C5.97477 29 5.62467 29 5.33337 28.9762C5.0214 28.9508 4.68993 28.8931 4.36503 28.7275C3.89462 28.4878 3.51217 28.1054 3.27249 27.635C3.10694 27.3101 3.04925 26.9786 3.02376 26.6666C2.99996 26.3753 2.99998 26.0252 3 25.6362V25.6361L3 25.6V23.4L3 23.3639V23.3638C2.99998 22.9748 2.99996 22.6247 3.02376 22.3334C3.04925 22.0214 3.10694 21.6899 3.27249 21.365C3.51217 20.8946 3.89462 20.5122 4.36503 20.2725C4.68993 20.1069 5.0214 20.0492 5.33337 20.0238C5.62466 20 5.97476 20 6.36381 20H6.36391ZM5.28079 22.0513C5.27559 22.0532 5.27341 22.0543 5.27301 22.0545C5.17893 22.1024 5.10244 22.1789 5.0545 22.273C5.05429 22.2734 5.05318 22.2756 5.05133 22.2808C5.0494 22.2862 5.04618 22.2962 5.04235 22.3125C5.03429 22.3467 5.02473 22.4031 5.01712 22.4962C5.00078 22.6962 5 22.9635 5 23.4V25.6C5 26.0365 5.00078 26.3038 5.01712 26.5038C5.02473 26.5969 5.03429 26.6533 5.04235 26.6875C5.04618 26.7038 5.0494 26.7138 5.05133 26.7192C5.05318 26.7244 5.05429 26.7266 5.0545 26.727C5.10244 26.8211 5.17893 26.8976 5.27301 26.9455L5.27342 26.9457C5.27432 26.9461 5.27655 26.9472 5.28079 26.9487C5.28621 26.9506 5.29622 26.9538 5.3125 26.9577C5.34673 26.9657 5.40309 26.9753 5.49624 26.9829C5.6962 26.9992 5.96346 27 6.4 27H8.6C9.03654 27 9.30381 26.9992 9.50377 26.9829C9.59692 26.9753 9.65328 26.9657 9.6875 26.9577C9.70378 26.9538 9.7138 26.9506 9.71921 26.9487C9.72264 26.9475 9.72476 26.9466 9.72592 26.946L9.727 26.9455C9.82108 26.8976 9.89757 26.8211 9.94551 26.727C9.94571 26.7266 9.94682 26.7244 9.94868 26.7192C9.95061 26.7138 9.95382 26.7038 9.95766 26.6875C9.96572 26.6533 9.97528 26.5969 9.98289 26.5038C9.99923 26.3038 10 26.0365 10 25.6V23.4C10 22.9635 9.99923 22.6962 9.98289 22.4962C9.97528 22.4031 9.96572 22.3467 9.95766 22.3125C9.95382 22.2962 9.95061 22.2862 9.94868 22.2808C9.948 22.2789 9.94743 22.2774 9.94696 22.2763C9.94613 22.2742 9.94564 22.2733 9.94551 22.273C9.89757 22.1789 9.82108 22.1024 9.727 22.0545C9.7266 22.0543 9.72441 22.0532 9.71921 22.0513C9.7138 22.0494 9.70378 22.0462 9.6875 22.0423C9.65328 22.0343 9.59692 22.0247 9.50377 22.0171C9.30381 22.0008 9.03654 22 8.6 22H6.4C5.96346 22 5.6962 22.0008 5.49624 22.0171C5.40309 22.0247 5.34673 22.0343 5.3125 22.0423C5.29622 22.0462 5.28621 22.0494 5.28079 22.0513ZM16 24.5C16 23.1193 17.1193 22 18.5 22C19.8807 22 21 23.1193 21 24.5C21 25.8807 19.8807 27 18.5 27C17.1193 27 16 25.8807 16 24.5ZM18.5 20C16.0147 20 14 22.0147 14 24.5C14 26.9853 16.0147 29 18.5 29C20.9853 29 23 26.9853 23 24.5C23 22.0147 20.9853 20 18.5 20Z" fill="#DDDDDD"/>
</svg>
