<svg width="100" height="100" viewBox="0 0 100 100" fill="none" xmlns="http://www.w3.org/2000/svg">
<g clip-path="url(#clip0_111_16365)">
<path fill-rule="evenodd" clip-rule="evenodd" d="M36.6089 58.3609C34.4325 56.1845 30.9039 56.1845 28.7275 58.3609L8.78416 78.3043L4.36475 73.8849L24.3081 53.9415C28.9253 49.3244 36.4111 49.3243 41.0283 53.9415L78.3676 91.2808L73.9482 95.7002L36.6089 58.3609Z" fill="#DDDDDD"/>
</g>
<rect x="15.625" y="15.625" width="68.75" height="68.75" rx="9.375" stroke="#DDDDDD" stroke-width="6.25" stroke-linecap="square"/>
<path d="M59.375 56.25C60.394 56.25 61.2291 55.5006 61.3706 54.44C62.7717 44.9943 64.0597 43.6793 73.146 42.6471C74.1933 42.5198 75 41.6431 75 40.625C75 39.5928 74.2074 38.7443 73.1601 38.5888C64.1304 37.3303 63.0123 36.2274 61.3706 26.7958C61.1866 25.7494 60.3799 25 59.375 25C58.3418 25 57.5209 25.7494 57.3511 26.81C55.9783 36.2415 54.6903 37.5566 45.6182 38.5888C44.5426 38.7302 43.75 39.5786 43.75 40.625C43.75 41.6431 44.5143 42.4915 45.5899 42.6471C54.6337 43.9338 55.7377 45.0226 57.3511 54.4542C57.5634 55.5147 58.3843 56.25 59.375 56.25Z" fill="#DDDDDD"/>
<defs>
<clipPath id="clip0_111_16365">
<rect x="12.5" y="12.5" width="75" height="75" rx="12.5" fill="white"/>
</clipPath>
</defs>
</svg>
