<svg width="90" height="90" viewBox="0 0 90 90" fill="none" xmlns="http://www.w3.org/2000/svg">
<g filter="url(#filter0_i_109_1408)">
<path d="M45 89.9978C47.9348 89.9978 50.3397 87.8395 50.7473 84.7853C54.7826 57.5823 58.4919 53.7951 84.6603 50.8223C87.6766 50.4558 90 47.931 90 44.9989C90 42.0261 87.7174 39.5827 84.7011 39.1348C58.6957 35.5104 55.4755 32.3341 50.7473 5.17182C50.2174 2.15832 47.894 0 45 0C42.0245 0 39.6603 2.15832 39.1712 5.21254C35.2174 32.3748 31.5082 36.162 5.38043 39.1348C2.28261 39.542 0 41.9854 0 44.9989C0 47.931 2.20109 50.3743 5.29891 50.8223C31.3451 54.5281 34.5245 57.6638 39.1712 84.826C39.7826 87.8802 42.1467 89.9978 45 89.9978Z" fill="black" fill-opacity="0.3"/>
</g>
<defs>
<filter id="filter0_i_109_1408" x="0" y="0" width="90" height="91.1229" filterUnits="userSpaceOnUse" color-interpolation-filters="sRGB">
<feFlood flood-opacity="0" result="BackgroundImageFix"/>
<feBlend mode="normal" in="SourceGraphic" in2="BackgroundImageFix" result="shape"/>
<feColorMatrix in="SourceAlpha" type="matrix" values="0 0 0 0 0 0 0 0 0 0 0 0 0 0 0 0 0 0 127 0" result="hardAlpha"/>
<feOffset dy="1.69213"/>
<feGaussianBlur stdDeviation="0.562573"/>
<feComposite in2="hardAlpha" operator="arithmetic" k2="-1" k3="1"/>
<feColorMatrix type="matrix" values="0 0 0 0 0 0 0 0 0 0 0 0 0 0 0 0 0 0 0.4 0"/>
<feBlend mode="normal" in2="shape" result="effect1_innerShadow_109_1408"/>
</filter>
</defs>
</svg>
