<svg width="1510" height="299" viewBox="0 0 1510 299" fill="none" xmlns="http://www.w3.org/2000/svg">
<g opacity="0.8">
<g opacity="0.6">
<path d="M788.051 130.022C788.705 129.513 788.821 128.57 788.312 127.917C787.803 127.263 786.86 127.147 786.207 127.656C785.553 128.165 785.437 129.108 785.946 129.761C786.455 130.414 787.398 130.531 788.051 130.022Z" fill="white"/>
<path d="M732.027 111.288C732.681 110.779 732.797 109.836 732.288 109.183C731.779 108.529 730.836 108.413 730.183 108.922C729.529 109.431 729.413 110.374 729.922 111.027C730.431 111.681 731.374 111.797 732.027 111.288Z" fill="white"/>
<path d="M700.027 150.288C700.681 149.779 700.797 148.836 700.288 148.183C699.779 147.529 698.836 147.413 698.183 147.922C697.529 148.431 697.413 149.374 697.922 150.027C698.431 150.681 699.374 150.797 700.027 150.288Z" fill="white"/>
<path d="M769.14 124.475C769.575 124.135 769.653 123.507 769.314 123.071C768.974 122.636 768.346 122.558 767.91 122.897C767.475 123.237 767.397 123.865 767.736 124.301C768.076 124.736 768.704 124.814 769.14 124.475Z" fill="white"/>
<path d="M643.018 153.192C643.453 152.852 643.531 152.224 643.192 151.788C642.852 151.353 642.224 151.275 641.788 151.614C641.353 151.954 641.275 152.582 641.614 153.018C641.954 153.453 642.582 153.531 643.018 153.192Z" fill="white"/>
<path d="M791.707 111.95C792.361 111.441 792.477 110.498 791.968 109.845C791.459 109.192 790.516 109.075 789.863 109.584C789.209 110.093 789.093 111.036 789.602 111.689C790.111 112.343 791.054 112.459 791.707 111.95Z" fill="white"/>
<path d="M874.027 134.288C874.681 133.779 874.797 132.836 874.288 132.183C873.779 131.529 872.836 131.413 872.183 131.922C871.529 132.431 871.413 133.374 871.922 134.027C872.431 134.681 873.374 134.797 874.027 134.288Z" fill="white"/>
<path d="M892.027 168.288C892.681 167.779 892.797 166.836 892.288 166.183C891.779 165.529 890.836 165.413 890.183 165.922C889.529 166.431 889.413 167.374 889.922 168.027C890.431 168.681 891.374 168.797 892.027 168.288Z" fill="white"/>
<path d="M693.027 110.288C693.681 109.779 693.797 108.836 693.288 108.183C692.779 107.529 691.836 107.413 691.183 107.922C690.529 108.431 690.413 109.374 690.922 110.027C691.431 110.681 692.374 110.797 693.027 110.288Z" fill="white"/>
<path d="M800.979 126.281C801.414 125.941 801.492 125.313 801.153 124.877C800.813 124.442 800.185 124.364 799.749 124.703C799.314 125.043 799.236 125.671 799.575 126.107C799.915 126.542 800.543 126.62 800.979 126.281Z" fill="white"/>
<path opacity="0.5" d="M794.065 141.81C794.5 141.47 794.578 140.842 794.239 140.406C793.899 139.971 793.271 139.893 792.835 140.232C792.399 140.572 792.322 141.2 792.661 141.636C793.001 142.071 793.629 142.149 794.065 141.81Z" fill="white"/>
<path opacity="0.5" d="M594.018 122.192C594.453 121.852 594.531 121.224 594.192 120.788C593.852 120.353 593.224 120.275 592.788 120.614C592.353 120.954 592.275 121.582 592.614 122.018C592.954 122.453 593.582 122.531 594.018 122.192Z" fill="white"/>
<path opacity="0.5" d="M764.018 180.192C764.453 179.852 764.531 179.224 764.192 178.788C763.852 178.353 763.224 178.275 762.788 178.614C762.353 178.954 762.275 179.582 762.614 180.018C762.954 180.453 763.582 180.531 764.018 180.192Z" fill="white"/>
<path opacity="0.5" d="M682.018 175.192C682.453 174.852 682.531 174.224 682.192 173.788C681.852 173.353 681.224 173.275 680.788 173.614C680.353 173.954 680.275 174.582 680.614 175.018C680.954 175.453 681.582 175.531 682.018 175.192Z" fill="white"/>
<path opacity="0.5" d="M950.019 135.192C950.454 134.852 950.532 134.224 950.193 133.788C949.853 133.353 949.225 133.275 948.789 133.614C948.354 133.954 948.276 134.582 948.615 135.018C948.955 135.453 949.583 135.531 950.019 135.192Z" fill="white"/>
<path opacity="0.5" d="M818.268 141.961C818.703 141.621 818.781 140.993 818.442 140.557C818.102 140.122 817.474 140.044 817.038 140.383C816.603 140.723 816.525 141.351 816.864 141.787C817.204 142.222 817.832 142.3 818.268 141.961Z" fill="white"/>
<path d="M829.829 175.969C829.018 176.137 828.496 176.931 828.664 177.742C828.832 178.553 829.626 179.075 830.437 178.907C831.248 178.739 831.77 177.945 831.602 177.134C831.434 176.322 830.64 175.801 829.829 175.969Z" fill="white"/>
<path d="M844.322 189.295C843.781 189.407 843.434 189.936 843.546 190.477C843.658 191.017 844.187 191.365 844.728 191.253C845.269 191.141 845.616 190.612 845.504 190.071C845.392 189.53 844.863 189.183 844.322 189.295Z" fill="white"/>
<path d="M727.978 175.203C727.437 175.315 727.09 175.844 727.202 176.385C727.314 176.926 727.843 177.273 728.384 177.161C728.925 177.049 729.272 176.52 729.16 175.979C729.048 175.438 728.519 175.091 727.978 175.203Z" fill="white"/>
<path d="M818.54 190.551C817.728 190.719 817.207 191.513 817.375 192.324C817.543 193.135 818.337 193.657 819.148 193.489C819.959 193.321 820.481 192.527 820.313 191.716C820.145 190.905 819.351 190.383 818.54 190.551Z" fill="white"/>
<path d="M633.47 186.304C632.659 186.472 632.137 187.266 632.305 188.077C632.473 188.888 633.267 189.41 634.078 189.242C634.89 189.074 635.411 188.28 635.243 187.469C635.075 186.657 634.281 186.136 633.47 186.304Z" fill="white"/>
<path d="M651.47 133.304C650.659 133.472 650.137 134.266 650.305 135.077C650.473 135.888 651.267 136.41 652.078 136.242C652.89 136.074 653.411 135.28 653.243 134.469C653.075 133.657 652.281 133.136 651.47 133.304Z" fill="white"/>
<path d="M816.56 173.606C816.019 173.718 815.672 174.247 815.784 174.788C815.896 175.329 816.425 175.676 816.966 175.564C817.507 175.452 817.854 174.923 817.742 174.382C817.63 173.841 817.101 173.494 816.56 173.606Z" fill="white"/>
<path d="M741.978 151.203C741.437 151.315 741.09 151.844 741.202 152.385C741.314 152.926 741.843 153.273 742.384 153.161C742.925 153.049 743.272 152.52 743.16 151.979C743.048 151.438 742.519 151.091 741.978 151.203Z" fill="white"/>
<path d="M907.978 161.203C907.437 161.315 907.09 161.844 907.202 162.385C907.314 162.926 907.843 163.273 908.384 163.161C908.925 163.049 909.272 162.52 909.16 161.979C909.048 161.438 908.519 161.091 907.978 161.203Z" fill="white"/>
<path d="M929.978 118.203C929.437 118.315 929.09 118.844 929.202 119.385C929.314 119.926 929.843 120.273 930.384 120.161C930.925 120.049 931.272 119.52 931.16 118.979C931.048 118.438 930.519 118.091 929.978 118.203Z" fill="white"/>
<path opacity="0.5" d="M829.627 162.729C829.086 162.841 828.739 163.37 828.851 163.911C828.963 164.452 829.492 164.799 830.033 164.687C830.574 164.575 830.921 164.046 830.809 163.505C830.697 162.964 830.168 162.617 829.627 162.729Z" fill="white"/>
<path opacity="0.5" d="M1017.98 132.203C1017.44 132.315 1017.09 132.844 1017.2 133.385C1017.31 133.926 1017.84 134.273 1018.38 134.161C1018.92 134.049 1019.27 133.52 1019.16 132.979C1019.05 132.438 1018.52 132.091 1017.98 132.203Z" fill="white"/>
<path opacity="0.5" d="M807.978 151.882C807.437 151.994 807.09 152.523 807.202 153.064C807.314 153.605 807.843 153.952 808.384 153.84C808.925 153.728 809.272 153.199 809.16 152.658C809.048 152.117 808.519 151.77 807.978 151.882Z" fill="white"/>
<path d="M1290.98 275.512C1291.41 275.852 1291.49 276.48 1291.15 276.916C1290.81 277.351 1290.18 277.429 1289.75 277.09C1289.31 276.75 1289.24 276.122 1289.58 275.686C1289.91 275.251 1290.54 275.173 1290.98 275.512Z" fill="white"/>
<path opacity="0.5" d="M1284.06 259.984C1284.5 260.324 1284.58 260.952 1284.24 261.388C1283.9 261.823 1283.27 261.901 1282.84 261.562C1282.4 261.222 1282.32 260.594 1282.66 260.158C1283 259.723 1283.63 259.645 1284.06 259.984Z" fill="white"/>
<path opacity="0.5" d="M1084.02 279.601C1084.45 279.941 1084.53 280.569 1084.19 281.005C1083.85 281.441 1083.22 281.518 1082.79 281.179C1082.35 280.839 1082.27 280.211 1082.61 279.775C1082.95 279.34 1083.58 279.262 1084.02 279.601Z" fill="white"/>
<path opacity="0.5" d="M1254.02 221.601C1254.45 221.941 1254.53 222.569 1254.19 223.005C1253.85 223.441 1253.22 223.518 1252.79 223.179C1252.35 222.839 1252.27 222.211 1252.61 221.775C1252.95 221.34 1253.58 221.262 1254.02 221.601Z" fill="white"/>
<path opacity="0.5" d="M1172.02 226.601C1172.45 226.941 1172.53 227.569 1172.19 228.005C1171.85 228.441 1171.22 228.518 1170.79 228.179C1170.35 227.839 1170.27 227.211 1170.61 226.775C1170.95 226.34 1171.58 226.262 1172.02 226.601Z" fill="white"/>
<path opacity="0.5" d="M1440.01 266.601C1440.45 266.941 1440.53 267.569 1440.19 268.005C1439.85 268.441 1439.22 268.518 1438.79 268.179C1438.35 267.839 1438.27 267.211 1438.61 266.775C1438.95 266.34 1439.58 266.262 1440.01 266.601Z" fill="white"/>
<path opacity="0.5" d="M1308.27 259.832C1308.7 260.172 1308.78 260.8 1308.44 261.236C1308.1 261.671 1307.47 261.749 1307.04 261.41C1306.6 261.07 1306.52 260.442 1306.86 260.006C1307.2 259.571 1307.83 259.493 1308.27 259.832Z" fill="white"/>
<path d="M1319.83 225.824C1319.02 225.656 1318.5 224.862 1318.66 224.051C1318.83 223.24 1319.63 222.718 1320.44 222.886C1321.25 223.054 1321.77 223.848 1321.6 224.659C1321.43 225.47 1320.64 225.992 1319.83 225.824Z" fill="white"/>
<path d="M1334.32 212.498C1333.78 212.386 1333.43 211.857 1333.55 211.316C1333.66 210.775 1334.19 210.428 1334.73 210.54C1335.27 210.652 1335.62 211.181 1335.5 211.722C1335.39 212.263 1334.86 212.61 1334.32 212.498Z" fill="white"/>
<path d="M1217.98 226.59C1217.44 226.478 1217.09 225.949 1217.2 225.408C1217.31 224.867 1217.84 224.52 1218.38 224.632C1218.92 224.744 1219.27 225.273 1219.16 225.814C1219.05 226.354 1218.52 226.702 1217.98 226.59Z" fill="white"/>
<path d="M1308.54 211.242C1307.73 211.074 1307.21 210.28 1307.38 209.469C1307.54 208.658 1308.34 208.136 1309.15 208.304C1309.96 208.472 1310.48 209.266 1310.31 210.077C1310.14 210.888 1309.35 211.41 1308.54 211.242Z" fill="white"/>
<path d="M1123.47 215.489C1122.66 215.321 1122.14 214.527 1122.31 213.716C1122.47 212.905 1123.27 212.383 1124.08 212.551C1124.89 212.719 1125.41 213.513 1125.24 214.324C1125.07 215.136 1124.28 215.657 1123.47 215.489Z" fill="white"/>
<path d="M1141.47 268.489C1140.66 268.321 1140.14 267.527 1140.31 266.716C1140.47 265.905 1141.27 265.383 1142.08 265.551C1142.89 265.719 1143.41 266.513 1143.24 267.324C1143.07 268.136 1142.28 268.657 1141.47 268.489Z" fill="white"/>
<path d="M1306.56 228.187C1306.02 228.075 1305.67 227.546 1305.78 227.005C1305.9 226.464 1306.43 226.117 1306.97 226.229C1307.51 226.341 1307.85 226.87 1307.74 227.411C1307.63 227.952 1307.1 228.299 1306.56 228.187Z" fill="white"/>
<path d="M1231.98 250.59C1231.44 250.478 1231.09 249.949 1231.2 249.408C1231.31 248.867 1231.84 248.52 1232.38 248.632C1232.92 248.744 1233.27 249.273 1233.16 249.814C1233.05 250.354 1232.52 250.702 1231.98 250.59Z" fill="white"/>
<path d="M1397.98 240.59C1397.44 240.478 1397.09 239.949 1397.2 239.408C1397.31 238.867 1397.84 238.52 1398.38 238.632C1398.92 238.744 1399.27 239.273 1399.16 239.814C1399.05 240.354 1398.52 240.702 1397.98 240.59Z" fill="white"/>
<path d="M1419.98 283.59C1419.44 283.478 1419.09 282.949 1419.2 282.408C1419.31 281.867 1419.84 281.52 1420.38 281.632C1420.92 281.744 1421.27 282.273 1421.16 282.814C1421.05 283.354 1420.52 283.702 1419.98 283.59Z" fill="white"/>
<path opacity="0.5" d="M1319.63 239.065C1319.09 238.953 1318.74 238.424 1318.85 237.883C1318.96 237.342 1319.49 236.995 1320.03 237.107C1320.57 237.219 1320.92 237.748 1320.81 238.289C1320.7 238.83 1320.17 239.177 1319.63 239.065Z" fill="white"/>
<path opacity="0.5" d="M1507.98 269.59C1507.44 269.478 1507.09 268.949 1507.2 268.408C1507.31 267.867 1507.84 267.52 1508.38 267.632C1508.92 267.744 1509.27 268.273 1509.16 268.814C1509.05 269.354 1508.52 269.702 1507.98 269.59Z" fill="white"/>
<path opacity="0.5" d="M1297.98 249.911C1297.44 249.799 1297.09 249.27 1297.2 248.729C1297.31 248.188 1297.84 247.841 1298.38 247.953C1298.92 248.065 1299.27 248.594 1299.16 249.135C1299.05 249.676 1298.52 250.023 1297.98 249.911Z" fill="white"/>
<path d="M1149.98 181.512C1150.41 181.852 1150.49 182.48 1150.15 182.916C1149.81 183.351 1149.18 183.429 1148.75 183.09C1148.31 182.75 1148.24 182.122 1148.58 181.686C1148.91 181.251 1149.54 181.173 1149.98 181.512Z" fill="white"/>
<path opacity="0.5" d="M1143.06 165.984C1143.5 166.324 1143.58 166.952 1143.24 167.388C1142.9 167.823 1142.27 167.901 1141.84 167.562C1141.4 167.222 1141.32 166.594 1141.66 166.158C1142 165.723 1142.63 165.645 1143.06 165.984Z" fill="white"/>
<path opacity="0.5" d="M943.018 185.601C943.453 185.941 943.531 186.569 943.192 187.005C942.852 187.441 942.224 187.518 941.788 187.179C941.353 186.839 941.275 186.211 941.614 185.775C941.954 185.34 942.582 185.262 943.018 185.601Z" fill="white"/>
<path opacity="0.5" d="M1113.02 127.601C1113.45 127.941 1113.53 128.569 1113.19 129.005C1112.85 129.441 1112.22 129.518 1111.79 129.179C1111.35 128.839 1111.27 128.211 1111.61 127.775C1111.95 127.34 1112.58 127.262 1113.02 127.601Z" fill="white"/>
<path opacity="0.5" d="M1031.02 132.601C1031.45 132.941 1031.53 133.569 1031.19 134.005C1030.85 134.441 1030.22 134.518 1029.79 134.179C1029.35 133.839 1029.27 133.211 1029.61 132.775C1029.95 132.34 1030.58 132.262 1031.02 132.601Z" fill="white"/>
<path opacity="0.5" d="M1299.02 172.601C1299.45 172.941 1299.53 173.569 1299.19 174.005C1298.85 174.441 1298.22 174.518 1297.79 174.179C1297.35 173.839 1297.27 173.211 1297.61 172.775C1297.95 172.34 1298.58 172.262 1299.02 172.601Z" fill="white"/>
<path opacity="0.5" d="M1167.27 165.832C1167.7 166.172 1167.78 166.8 1167.44 167.236C1167.1 167.671 1166.47 167.749 1166.04 167.41C1165.6 167.07 1165.52 166.442 1165.86 166.006C1166.2 165.571 1166.83 165.493 1167.27 165.832Z" fill="white"/>
<path d="M1178.83 131.824C1178.02 131.656 1177.5 130.862 1177.66 130.051C1177.83 129.24 1178.63 128.718 1179.44 128.886C1180.25 129.054 1180.77 129.848 1180.6 130.659C1180.43 131.47 1179.64 131.992 1178.83 131.824Z" fill="white"/>
<path d="M1193.32 118.498C1192.78 118.386 1192.43 117.857 1192.55 117.316C1192.66 116.775 1193.19 116.428 1193.73 116.54C1194.27 116.652 1194.62 117.181 1194.5 117.722C1194.39 118.263 1193.86 118.61 1193.32 118.498Z" fill="white"/>
<path d="M1076.98 132.59C1076.44 132.478 1076.09 131.949 1076.2 131.408C1076.31 130.867 1076.84 130.52 1077.38 130.632C1077.92 130.744 1078.27 131.273 1078.16 131.814C1078.05 132.354 1077.52 132.702 1076.98 132.59Z" fill="white"/>
<path d="M1167.54 117.242C1166.73 117.074 1166.21 116.28 1166.38 115.469C1166.54 114.658 1167.34 114.136 1168.15 114.304C1168.96 114.472 1169.48 115.266 1169.31 116.077C1169.14 116.888 1168.35 117.41 1167.54 117.242Z" fill="white"/>
<path d="M982.47 121.489C981.659 121.321 981.137 120.527 981.305 119.716C981.473 118.905 982.267 118.383 983.078 118.551C983.89 118.719 984.411 119.513 984.243 120.324C984.075 121.136 983.281 121.657 982.47 121.489Z" fill="white"/>
<path d="M1000.47 174.489C999.659 174.321 999.137 173.527 999.305 172.716C999.473 171.905 1000.27 171.383 1001.08 171.551C1001.89 171.719 1002.41 172.513 1002.24 173.324C1002.07 174.136 1001.28 174.657 1000.47 174.489Z" fill="white"/>
<path d="M1165.56 134.187C1165.02 134.075 1164.67 133.546 1164.78 133.005C1164.9 132.464 1165.43 132.117 1165.97 132.229C1166.51 132.341 1166.85 132.87 1166.74 133.411C1166.63 133.952 1166.1 134.299 1165.56 134.187Z" fill="white"/>
<path d="M1090.98 156.59C1090.44 156.478 1090.09 155.949 1090.2 155.408C1090.31 154.867 1090.84 154.52 1091.38 154.632C1091.92 154.744 1092.27 155.273 1092.16 155.814C1092.05 156.354 1091.52 156.702 1090.98 156.59Z" fill="white"/>
<path d="M1256.98 146.59C1256.44 146.478 1256.09 145.949 1256.2 145.408C1256.31 144.867 1256.84 144.52 1257.38 144.632C1257.92 144.744 1258.27 145.273 1258.16 145.814C1258.05 146.354 1257.52 146.702 1256.98 146.59Z" fill="white"/>
<path d="M1278.98 189.59C1278.44 189.478 1278.09 188.949 1278.2 188.408C1278.31 187.867 1278.84 187.52 1279.38 187.632C1279.92 187.744 1280.27 188.273 1280.16 188.814C1280.05 189.354 1279.52 189.702 1278.98 189.59Z" fill="white"/>
<path opacity="0.5" d="M1178.63 145.065C1178.09 144.953 1177.74 144.424 1177.85 143.883C1177.96 143.342 1178.49 142.995 1179.03 143.107C1179.57 143.219 1179.92 143.748 1179.81 144.289C1179.7 144.83 1179.17 145.177 1178.63 145.065Z" fill="white"/>
<path opacity="0.5" d="M1366.98 175.59C1366.44 175.478 1366.09 174.949 1366.2 174.408C1366.31 173.867 1366.84 173.52 1367.38 173.632C1367.92 173.744 1368.27 174.273 1368.16 174.814C1368.05 175.354 1367.52 175.702 1366.98 175.59Z" fill="white"/>
<path opacity="0.5" d="M1156.98 155.911C1156.44 155.799 1156.09 155.27 1156.2 154.729C1156.31 154.188 1156.84 153.841 1157.38 153.953C1157.92 154.065 1158.27 154.594 1158.16 155.135C1158.05 155.676 1157.52 156.023 1156.98 155.911Z" fill="white"/>
<path d="M603.979 213.281C604.414 212.941 604.492 212.313 604.153 211.877C603.813 211.442 603.185 211.364 602.749 211.703C602.314 212.043 602.236 212.671 602.575 213.107C602.915 213.542 603.543 213.62 603.979 213.281Z" fill="white"/>
<path opacity="0.5" d="M597.065 228.809C597.5 228.469 597.578 227.841 597.239 227.405C596.899 226.97 596.271 226.892 595.835 227.231C595.399 227.571 595.322 228.199 595.661 228.635C596.001 229.07 596.629 229.148 597.065 228.809Z" fill="white"/>
<path opacity="0.5" d="M397.018 209.192C397.454 208.852 397.532 208.224 397.192 207.788C396.853 207.353 396.224 207.275 395.789 207.614C395.353 207.954 395.275 208.582 395.615 209.018C395.954 209.453 396.583 209.531 397.018 209.192Z" fill="white"/>
<path opacity="0.5" d="M567.018 267.192C567.453 266.852 567.531 266.224 567.192 265.788C566.852 265.353 566.224 265.275 565.788 265.614C565.353 265.954 565.275 266.582 565.614 267.018C565.954 267.453 566.582 267.531 567.018 267.192Z" fill="white"/>
<path opacity="0.5" d="M485.018 262.192C485.454 261.852 485.532 261.224 485.192 260.788C484.853 260.353 484.224 260.275 483.789 260.614C483.353 260.954 483.275 261.582 483.615 262.018C483.954 262.453 484.583 262.531 485.018 262.192Z" fill="white"/>
<path opacity="0.5" d="M753.018 222.192C753.453 221.852 753.531 221.224 753.192 220.788C752.852 220.353 752.224 220.275 751.788 220.614C751.353 220.954 751.275 221.582 751.614 222.018C751.954 222.453 752.582 222.531 753.018 222.192Z" fill="white"/>
<path opacity="0.5" d="M621.268 228.961C621.703 228.621 621.781 227.993 621.442 227.557C621.102 227.122 620.474 227.044 620.038 227.383C619.603 227.723 619.525 228.351 619.864 228.787C620.204 229.222 620.832 229.3 621.268 228.961Z" fill="white"/>
<path d="M632.829 262.969C632.018 263.137 631.496 263.931 631.664 264.742C631.832 265.553 632.626 266.075 633.437 265.907C634.248 265.739 634.77 264.945 634.602 264.134C634.434 263.322 633.64 262.801 632.829 262.969Z" fill="white"/>
<path d="M647.322 276.295C646.781 276.407 646.434 276.936 646.546 277.477C646.658 278.017 647.187 278.365 647.728 278.253C648.269 278.141 648.616 277.612 648.504 277.071C648.392 276.53 647.863 276.183 647.322 276.295Z" fill="white"/>
<path d="M530.978 262.203C530.437 262.315 530.09 262.844 530.202 263.385C530.314 263.926 530.843 264.273 531.384 264.161C531.925 264.049 532.272 263.52 532.16 262.979C532.048 262.438 531.519 262.091 530.978 262.203Z" fill="white"/>
<path d="M621.54 277.551C620.728 277.719 620.207 278.513 620.375 279.324C620.543 280.135 621.337 280.657 622.148 280.489C622.959 280.321 623.481 279.527 623.313 278.716C623.145 277.905 622.351 277.383 621.54 277.551Z" fill="white"/>
<path d="M436.47 273.304C435.658 273.472 435.137 274.266 435.305 275.077C435.473 275.888 436.267 276.41 437.078 276.242C437.889 276.074 438.411 275.28 438.243 274.469C438.075 273.657 437.281 273.136 436.47 273.304Z" fill="white"/>
<path d="M454.47 220.304C453.658 220.472 453.137 221.266 453.305 222.077C453.473 222.888 454.267 223.41 455.078 223.242C455.889 223.074 456.411 222.28 456.243 221.469C456.075 220.657 455.281 220.136 454.47 220.304Z" fill="white"/>
<path d="M619.56 260.606C619.019 260.718 618.672 261.247 618.784 261.788C618.896 262.329 619.425 262.676 619.966 262.564C620.507 262.452 620.854 261.923 620.742 261.382C620.63 260.841 620.101 260.494 619.56 260.606Z" fill="white"/>
<path d="M544.978 238.203C544.437 238.315 544.09 238.844 544.202 239.385C544.314 239.926 544.843 240.273 545.384 240.161C545.925 240.049 546.272 239.52 546.16 238.979C546.048 238.438 545.519 238.091 544.978 238.203Z" fill="white"/>
<path d="M710.978 248.203C710.437 248.315 710.09 248.844 710.202 249.385C710.314 249.926 710.843 250.273 711.384 250.161C711.925 250.049 712.272 249.52 712.16 248.979C712.048 248.438 711.519 248.091 710.978 248.203Z" fill="white"/>
<path d="M732.978 205.203C732.437 205.315 732.09 205.844 732.202 206.385C732.314 206.926 732.843 207.273 733.384 207.161C733.925 207.049 734.272 206.52 734.16 205.979C734.048 205.438 733.519 205.091 732.978 205.203Z" fill="white"/>
<path opacity="0.5" d="M632.627 249.728C632.086 249.84 631.739 250.369 631.851 250.91C631.963 251.451 632.492 251.798 633.033 251.686C633.574 251.574 633.921 251.045 633.809 250.504C633.697 249.963 633.168 249.616 632.627 249.728Z" fill="white"/>
<path opacity="0.5" d="M820.978 219.203C820.437 219.315 820.09 219.844 820.202 220.385C820.314 220.926 820.843 221.273 821.384 221.161C821.925 221.049 822.272 220.52 822.16 219.979C822.048 219.438 821.519 219.091 820.978 219.203Z" fill="white"/>
<path opacity="0.5" d="M610.978 238.882C610.437 238.994 610.09 239.523 610.202 240.064C610.314 240.605 610.843 240.952 611.384 240.84C611.925 240.728 612.272 240.199 612.16 239.658C612.048 239.117 611.519 238.77 610.978 238.882Z" fill="white"/>
<path d="M948.979 266.512C949.414 266.852 949.492 267.48 949.153 267.916C948.813 268.351 948.185 268.429 947.749 268.09C947.314 267.75 947.236 267.122 947.575 266.686C947.915 266.251 948.543 266.173 948.979 266.512Z" fill="white"/>
<path opacity="0.5" d="M942.065 250.984C942.5 251.324 942.578 251.952 942.239 252.388C941.899 252.823 941.271 252.901 940.835 252.562C940.399 252.222 940.322 251.594 940.661 251.158C941.001 250.723 941.629 250.645 942.065 250.984Z" fill="white"/>
<path opacity="0.5" d="M742.018 270.601C742.453 270.941 742.531 271.569 742.192 272.005C741.852 272.441 741.224 272.518 740.788 272.179C740.353 271.839 740.275 271.211 740.614 270.775C740.954 270.34 741.582 270.262 742.018 270.601Z" fill="white"/>
<path opacity="0.5" d="M912.018 212.601C912.453 212.941 912.531 213.569 912.192 214.005C911.852 214.441 911.224 214.518 910.788 214.179C910.353 213.839 910.275 213.211 910.614 212.775C910.954 212.34 911.582 212.262 912.018 212.601Z" fill="white"/>
<path opacity="0.5" d="M830.018 217.601C830.453 217.941 830.531 218.569 830.192 219.005C829.852 219.441 829.224 219.518 828.788 219.179C828.353 218.839 828.275 218.211 828.614 217.775C828.954 217.34 829.582 217.262 830.018 217.601Z" fill="white"/>
<path opacity="0.5" d="M1098.02 257.601C1098.45 257.941 1098.53 258.569 1098.19 259.005C1097.85 259.441 1097.22 259.518 1096.79 259.179C1096.35 258.839 1096.27 258.211 1096.61 257.775C1096.95 257.34 1097.58 257.262 1098.02 257.601Z" fill="white"/>
<path opacity="0.5" d="M966.268 250.832C966.703 251.172 966.781 251.8 966.442 252.236C966.102 252.671 965.474 252.749 965.038 252.41C964.603 252.07 964.525 251.442 964.864 251.006C965.204 250.571 965.832 250.493 966.268 250.832Z" fill="white"/>
<path d="M977.829 216.824C977.018 216.656 976.496 215.862 976.664 215.051C976.832 214.24 977.626 213.718 978.437 213.886C979.248 214.054 979.77 214.848 979.602 215.659C979.434 216.47 978.64 216.992 977.829 216.824Z" fill="white"/>
<path d="M992.322 203.498C991.781 203.386 991.434 202.857 991.546 202.316C991.658 201.775 992.187 201.428 992.728 201.54C993.269 201.652 993.616 202.181 993.504 202.722C993.392 203.263 992.863 203.61 992.322 203.498Z" fill="white"/>
<path d="M875.978 217.59C875.437 217.478 875.09 216.949 875.202 216.408C875.314 215.867 875.843 215.52 876.384 215.632C876.925 215.744 877.272 216.273 877.16 216.814C877.048 217.354 876.519 217.702 875.978 217.59Z" fill="white"/>
<path d="M966.54 202.242C965.729 202.074 965.207 201.28 965.375 200.469C965.543 199.658 966.337 199.136 967.148 199.304C967.96 199.472 968.481 200.266 968.313 201.077C968.145 201.888 967.351 202.41 966.54 202.242Z" fill="white"/>
<path d="M781.47 206.489C780.659 206.321 780.137 205.527 780.305 204.716C780.473 203.905 781.267 203.383 782.078 203.551C782.89 203.719 783.411 204.513 783.243 205.324C783.075 206.136 782.281 206.657 781.47 206.489Z" fill="white"/>
<path d="M799.47 259.489C798.659 259.321 798.137 258.527 798.305 257.716C798.473 256.905 799.267 256.383 800.078 256.551C800.89 256.719 801.411 257.513 801.243 258.324C801.075 259.136 800.281 259.657 799.47 259.489Z" fill="white"/>
<path d="M964.56 219.187C964.019 219.075 963.672 218.546 963.784 218.005C963.896 217.464 964.425 217.117 964.966 217.229C965.507 217.341 965.854 217.87 965.742 218.411C965.63 218.952 965.101 219.299 964.56 219.187Z" fill="white"/>
<path d="M889.978 241.59C889.437 241.478 889.09 240.949 889.202 240.408C889.314 239.867 889.843 239.52 890.384 239.632C890.925 239.744 891.272 240.273 891.16 240.814C891.048 241.354 890.519 241.702 889.978 241.59Z" fill="white"/>
<path d="M1055.98 231.59C1055.44 231.478 1055.09 230.949 1055.2 230.408C1055.31 229.867 1055.84 229.52 1056.38 229.632C1056.92 229.744 1057.27 230.273 1057.16 230.814C1057.05 231.354 1056.52 231.702 1055.98 231.59Z" fill="white"/>
<path d="M1077.98 274.59C1077.44 274.478 1077.09 273.949 1077.2 273.408C1077.31 272.867 1077.84 272.52 1078.38 272.632C1078.92 272.744 1079.27 273.273 1079.16 273.814C1079.05 274.354 1078.52 274.702 1077.98 274.59Z" fill="white"/>
<path opacity="0.5" d="M977.627 230.065C977.086 229.953 976.739 229.424 976.851 228.883C976.963 228.342 977.492 227.995 978.033 228.107C978.574 228.219 978.921 228.748 978.809 229.289C978.697 229.83 978.168 230.177 977.627 230.065Z" fill="white"/>
<path opacity="0.5" d="M1165.98 260.59C1165.44 260.478 1165.09 259.949 1165.2 259.408C1165.31 258.867 1165.84 258.52 1166.38 258.632C1166.92 258.744 1167.27 259.273 1167.16 259.814C1167.05 260.354 1166.52 260.702 1165.98 260.59Z" fill="white"/>
<path opacity="0.5" d="M955.978 240.911C955.437 240.799 955.09 240.27 955.202 239.729C955.314 239.188 955.843 238.841 956.384 238.953C956.925 239.065 957.272 239.594 957.16 240.135C957.048 240.676 956.519 241.023 955.978 240.911Z" fill="white"/>
<path d="M728.979 8.28038C729.414 7.94082 729.492 7.31246 729.153 6.87689C728.813 6.44132 728.185 6.36349 727.749 6.70305C727.314 7.04261 727.236 7.67097 727.575 8.10654C727.915 8.5421 728.543 8.61994 728.979 8.28038Z" fill="white"/>
<path opacity="0.5" d="M722.065 23.8092C722.5 23.4696 722.578 22.8413 722.239 22.4057C721.899 21.9701 721.271 21.8923 720.835 22.2319C720.399 22.5714 720.322 23.1998 720.661 23.6353C721.001 24.0709 721.629 24.1487 722.065 23.8092Z" fill="white"/>
<path opacity="0.5" d="M522.018 4.192C522.453 3.85244 522.531 3.22408 522.192 2.78851C521.852 2.35295 521.224 2.27511 520.788 2.61467C520.353 2.95423 520.275 3.58259 520.614 4.01816C520.954 4.45373 521.582 4.53156 522.018 4.192Z" fill="white"/>
<path opacity="0.5" d="M692.018 62.192C692.453 61.8524 692.531 61.2241 692.192 60.7885C691.852 60.3529 691.224 60.2751 690.788 60.6147C690.353 60.9542 690.275 61.5826 690.614 62.0182C690.954 62.4537 691.582 62.5316 692.018 62.192Z" fill="white"/>
<path opacity="0.5" d="M610.018 57.192C610.453 56.8524 610.531 56.2241 610.192 55.7885C609.852 55.3529 609.224 55.2751 608.788 55.6147C608.353 55.9542 608.275 56.5826 608.614 57.0182C608.954 57.4537 609.582 57.5316 610.018 57.192Z" fill="white"/>
<path opacity="0.5" d="M878.018 17.192C878.453 16.8524 878.531 16.2241 878.192 15.7885C877.852 15.3529 877.224 15.2751 876.788 15.6147C876.353 15.9542 876.275 16.5826 876.614 17.0182C876.954 17.4537 877.582 17.5316 878.018 17.192Z" fill="white"/>
<path opacity="0.5" d="M746.268 23.961C746.703 23.6215 746.781 22.9931 746.442 22.5576C746.102 22.122 745.474 22.0442 745.038 22.3837C744.603 22.7233 744.525 23.3516 744.864 23.7872C745.204 24.2228 745.832 24.3006 746.268 23.961Z" fill="white"/>
<path d="M757.829 57.9691C757.018 58.1371 756.496 58.9309 756.664 59.7421C756.832 60.5533 757.626 61.0748 758.437 60.9067C759.248 60.7387 759.77 59.9449 759.602 59.1337C759.434 58.3225 758.64 57.8011 757.829 57.9691Z" fill="white"/>
<path d="M772.322 71.2947C771.781 71.4067 771.434 71.9359 771.546 72.4767C771.658 73.0175 772.187 73.3651 772.728 73.2531C773.269 73.1411 773.616 72.6119 773.504 72.0711C773.392 71.5303 772.863 71.1827 772.322 71.2947Z" fill="white"/>
<path d="M655.978 57.2029C655.437 57.3149 655.09 57.8441 655.202 58.3849C655.314 58.9257 655.843 59.2733 656.384 59.1613C656.925 59.0493 657.272 58.5201 657.16 57.9793C657.048 57.4385 656.519 57.0909 655.978 57.2029Z" fill="white"/>
<path d="M746.54 72.5511C745.728 72.7191 745.207 73.5129 745.375 74.3242C745.543 75.1354 746.337 75.6568 747.148 75.4888C747.959 75.3208 748.481 74.527 748.313 73.7157C748.145 72.9045 747.351 72.3831 746.54 72.5511Z" fill="white"/>
<path d="M561.47 68.304C560.659 68.4721 560.137 69.2659 560.305 70.0771C560.473 70.8883 561.267 71.4097 562.078 71.2417C562.89 71.0737 563.411 70.2799 563.243 69.4687C563.075 68.6575 562.281 68.136 561.47 68.304Z" fill="white"/>
<path d="M579.47 15.304C578.659 15.4721 578.137 16.2659 578.305 17.0771C578.473 17.8883 579.267 18.4097 580.078 18.2417C580.89 18.0737 581.411 17.2799 581.243 16.4687C581.075 15.6575 580.281 15.136 579.47 15.304Z" fill="white"/>
<path d="M744.56 55.6057C744.019 55.7177 743.672 56.2469 743.784 56.7877C743.896 57.3285 744.425 57.6761 744.966 57.5641C745.507 57.4521 745.854 56.9229 745.742 56.3821C745.63 55.8413 745.101 55.4937 744.56 55.6057Z" fill="white"/>
<path d="M669.978 33.2029C669.437 33.3149 669.09 33.8441 669.202 34.3849C669.314 34.9257 669.843 35.2733 670.384 35.1613C670.925 35.0493 671.272 34.5201 671.16 33.9793C671.048 33.4385 670.519 33.0909 669.978 33.2029Z" fill="white"/>
<path d="M835.978 43.2029C835.437 43.3149 835.09 43.8441 835.202 44.3849C835.314 44.9257 835.843 45.2733 836.384 45.1613C836.925 45.0493 837.272 44.5201 837.16 43.9793C837.048 43.4385 836.519 43.0909 835.978 43.2029Z" fill="white"/>
<path d="M857.978 0.202862C857.437 0.314868 857.09 0.844078 857.202 1.38489C857.314 1.92569 857.843 2.27331 858.384 2.1613C858.925 2.04929 859.272 1.52008 859.16 0.979277C859.048 0.438469 858.519 0.0908562 857.978 0.202862Z" fill="white"/>
<path opacity="0.5" d="M757.627 44.7283C757.086 44.8403 756.739 45.3695 756.851 45.9103C756.963 46.4511 757.492 46.7987 758.033 46.6867C758.574 46.5747 758.921 46.0455 758.809 45.5047C758.697 44.9639 758.168 44.6162 757.627 44.7283Z" fill="white"/>
<path opacity="0.5" d="M945.978 14.2029C945.437 14.3149 945.09 14.8441 945.202 15.3849C945.314 15.9257 945.843 16.2733 946.384 16.1613C946.925 16.0493 947.272 15.5201 947.16 14.9793C947.048 14.4385 946.519 14.0909 945.978 14.2029Z" fill="white"/>
<path opacity="0.5" d="M735.978 33.8816C735.437 33.9936 735.09 34.5228 735.202 35.0636C735.314 35.6044 735.843 35.952 736.384 35.84C736.925 35.728 737.272 35.1988 737.16 34.658C737.048 34.1172 736.519 33.7696 735.978 33.8816Z" fill="white"/>
</g>
<g opacity="0.6">
<path d="M721.311 168.771C720.658 169.28 720.541 170.223 721.05 170.876C721.559 171.53 722.502 171.646 723.155 171.137C723.809 170.628 723.925 169.685 723.416 169.032C722.907 168.378 721.964 168.262 721.311 168.771Z" fill="white"/>
<path d="M777.335 187.505C776.681 188.014 776.565 188.957 777.074 189.61C777.583 190.264 778.526 190.38 779.179 189.871C779.833 189.362 779.949 188.419 779.44 187.766C778.931 187.112 777.988 186.996 777.335 187.505Z" fill="white"/>
<path d="M809.335 148.505C808.681 149.014 808.565 149.957 809.074 150.61C809.583 151.264 810.526 151.38 811.179 150.871C811.833 150.362 811.949 149.419 811.44 148.766C810.931 148.112 809.988 147.996 809.335 148.505Z" fill="white"/>
<path d="M740.222 174.318C739.787 174.658 739.709 175.286 740.048 175.722C740.388 176.157 741.016 176.235 741.452 175.896C741.887 175.556 741.965 174.928 741.626 174.492C741.286 174.057 740.658 173.979 740.222 174.318Z" fill="white"/>
<path d="M866.344 145.601C865.909 145.941 865.831 146.569 866.17 147.005C866.51 147.44 867.138 147.518 867.574 147.179C868.009 146.839 868.087 146.211 867.748 145.775C867.408 145.339 866.78 145.262 866.344 145.601Z" fill="white"/>
<path d="M717.655 186.843C717.002 187.352 716.885 188.295 717.394 188.948C717.903 189.601 718.846 189.718 719.499 189.209C720.153 188.7 720.269 187.757 719.76 187.104C719.251 186.45 718.308 186.334 717.655 186.843Z" fill="white"/>
<path d="M635.335 164.505C634.681 165.014 634.565 165.957 635.074 166.61C635.583 167.264 636.526 167.38 637.179 166.871C637.833 166.362 637.949 165.419 637.44 164.766C636.931 164.112 635.988 163.996 635.335 164.505Z" fill="white"/>
<path d="M617.335 130.505C616.681 131.014 616.565 131.957 617.074 132.61C617.583 133.264 618.526 133.38 619.179 132.871C619.833 132.362 619.949 131.419 619.44 130.766C618.931 130.112 617.988 129.996 617.335 130.505Z" fill="white"/>
<path d="M816.335 188.505C815.681 189.014 815.565 189.957 816.074 190.61C816.583 191.264 817.526 191.38 818.179 190.871C818.833 190.362 818.949 189.419 818.44 188.766C817.931 188.112 816.988 187.996 816.335 188.505Z" fill="white"/>
<path d="M708.383 172.512C707.948 172.852 707.87 173.48 708.209 173.916C708.549 174.351 709.177 174.429 709.613 174.09C710.049 173.75 710.126 173.122 709.787 172.686C709.447 172.251 708.819 172.173 708.383 172.512Z" fill="white"/>
<path opacity="0.5" d="M715.297 156.983C714.862 157.323 714.784 157.951 715.123 158.387C715.463 158.822 716.091 158.9 716.527 158.561C716.962 158.221 717.04 157.593 716.701 157.157C716.361 156.722 715.733 156.644 715.297 156.983Z" fill="white"/>
<path opacity="0.5" d="M915.344 176.601C914.909 176.941 914.831 177.569 915.17 178.005C915.51 178.44 916.138 178.518 916.574 178.179C917.009 177.839 917.087 177.211 916.748 176.775C916.408 176.339 915.78 176.262 915.344 176.601Z" fill="white"/>
<path opacity="0.5" d="M745.344 118.601C744.909 118.941 744.831 119.569 745.17 120.005C745.51 120.44 746.138 120.518 746.574 120.179C747.009 119.839 747.087 119.211 746.748 118.775C746.408 118.339 745.78 118.262 745.344 118.601Z" fill="white"/>
<path opacity="0.5" d="M827.344 123.601C826.909 123.941 826.831 124.569 827.17 125.005C827.51 125.44 828.138 125.518 828.574 125.179C829.009 124.839 829.087 124.211 828.748 123.775C828.408 123.339 827.78 123.262 827.344 123.601Z" fill="white"/>
<path opacity="0.5" d="M559.343 163.601C558.908 163.941 558.83 164.569 559.169 165.005C559.509 165.44 560.137 165.518 560.573 165.179C561.008 164.839 561.086 164.211 560.747 163.775C560.407 163.339 559.779 163.262 559.343 163.601Z" fill="white"/>
<path opacity="0.5" d="M691.094 156.832C690.659 157.172 690.581 157.8 690.92 158.236C691.26 158.671 691.888 158.749 692.324 158.41C692.759 158.07 692.837 157.442 692.498 157.006C692.158 156.571 691.53 156.493 691.094 156.832Z" fill="white"/>
<path d="M679.533 122.824C680.345 122.656 680.866 121.862 680.698 121.051C680.53 120.24 679.736 119.718 678.925 119.886C678.114 120.054 677.592 120.848 677.76 121.659C677.928 122.47 678.722 122.992 679.533 122.824Z" fill="white"/>
<path d="M665.04 109.498C665.581 109.386 665.928 108.857 665.816 108.316C665.704 107.775 665.175 107.428 664.634 107.54C664.093 107.652 663.746 108.181 663.858 108.722C663.97 109.263 664.499 109.61 665.04 109.498Z" fill="white"/>
<path d="M781.384 123.59C781.925 123.478 782.272 122.949 782.16 122.408C782.048 121.867 781.519 121.52 780.978 121.632C780.437 121.744 780.09 122.273 780.202 122.814C780.314 123.354 780.843 123.702 781.384 123.59Z" fill="white"/>
<path d="M690.822 108.242C691.634 108.074 692.155 107.28 691.987 106.469C691.819 105.658 691.025 105.136 690.214 105.304C689.403 105.472 688.881 106.266 689.049 107.077C689.217 107.888 690.011 108.41 690.822 108.242Z" fill="white"/>
<path d="M875.892 112.489C876.703 112.321 877.225 111.527 877.057 110.716C876.889 109.905 876.095 109.383 875.284 109.551C874.473 109.719 873.951 110.513 874.119 111.324C874.287 112.136 875.081 112.657 875.892 112.489Z" fill="white"/>
<path d="M857.892 165.489C858.703 165.321 859.225 164.527 859.057 163.716C858.889 162.905 858.095 162.383 857.284 162.551C856.473 162.719 855.951 163.513 856.119 164.324C856.287 165.136 857.081 165.657 857.892 165.489Z" fill="white"/>
<path d="M692.802 125.187C693.343 125.075 693.69 124.546 693.578 124.005C693.466 123.464 692.937 123.117 692.396 123.229C691.855 123.341 691.508 123.87 691.62 124.411C691.732 124.952 692.261 125.299 692.802 125.187Z" fill="white"/>
<path d="M767.384 147.59C767.925 147.478 768.272 146.949 768.16 146.408C768.048 145.867 767.519 145.52 766.978 145.632C766.437 145.744 766.09 146.273 766.202 146.814C766.314 147.354 766.843 147.702 767.384 147.59Z" fill="white"/>
<path d="M601.384 137.59C601.925 137.478 602.272 136.949 602.16 136.408C602.048 135.867 601.519 135.52 600.978 135.632C600.437 135.744 600.09 136.273 600.202 136.814C600.314 137.354 600.843 137.702 601.384 137.59Z" fill="white"/>
<path d="M579.384 180.59C579.925 180.478 580.272 179.949 580.16 179.408C580.048 178.867 579.519 178.52 578.978 178.632C578.437 178.744 578.09 179.273 578.202 179.814C578.314 180.354 578.843 180.702 579.384 180.59Z" fill="white"/>
<path opacity="0.5" d="M679.735 136.064C680.276 135.952 680.623 135.423 680.511 134.882C680.399 134.341 679.87 133.994 679.329 134.106C678.789 134.218 678.441 134.747 678.553 135.288C678.665 135.829 679.194 136.176 679.735 136.064Z" fill="white"/>
<path opacity="0.5" d="M491.384 166.59C491.925 166.478 492.272 165.949 492.16 165.408C492.048 164.867 491.519 164.52 490.978 164.632C490.437 164.744 490.09 165.273 490.202 165.814C490.314 166.354 490.843 166.702 491.384 166.59Z" fill="white"/>
<path opacity="0.5" d="M701.384 146.911C701.925 146.799 702.272 146.27 702.16 145.729C702.048 145.188 701.519 144.841 700.978 144.953C700.437 145.065 700.09 145.594 700.202 146.135C700.314 146.676 700.843 147.023 701.384 146.911Z" fill="white"/>
<path d="M218.383 23.2806C217.948 22.9411 217.87 22.3127 218.209 21.8771C218.549 21.4416 219.177 21.3637 219.613 21.7033C220.049 22.0429 220.126 22.6712 219.787 23.1068C219.447 23.5423 218.819 23.6202 218.383 23.2806Z" fill="white"/>
<path opacity="0.5" d="M225.297 38.8087C224.862 38.4691 224.784 37.8408 225.123 37.4052C225.463 36.9696 226.091 36.8918 226.527 37.2314C226.962 37.5709 227.04 38.1993 226.701 38.6349C226.361 39.0704 225.733 39.1483 225.297 38.8087Z" fill="white"/>
<path opacity="0.5" d="M425.344 19.1915C424.909 18.852 424.831 18.2236 425.17 17.788C425.51 17.3525 426.138 17.2746 426.574 17.6142C427.009 17.9537 427.087 18.5821 426.748 19.0177C426.408 19.4532 425.78 19.5311 425.344 19.1915Z" fill="white"/>
<path opacity="0.5" d="M255.344 77.1915C254.909 76.852 254.831 76.2236 255.17 75.788C255.51 75.3525 256.138 75.2746 256.574 75.6142C257.009 75.9537 257.087 76.5821 256.748 77.0177C256.408 77.4532 255.78 77.5311 255.344 77.1915Z" fill="white"/>
<path opacity="0.5" d="M337.344 72.1915C336.909 71.852 336.831 71.2236 337.17 70.788C337.51 70.3525 338.138 70.2746 338.574 70.6142C339.009 70.9537 339.087 71.5821 338.748 72.0177C338.408 72.4532 337.78 72.5311 337.344 72.1915Z" fill="white"/>
<path opacity="0.5" d="M69.3474 32.1915C68.9118 31.852 68.834 31.2236 69.1736 30.788C69.5131 30.3525 70.1415 30.2746 70.5771 30.6142C71.0126 30.9537 71.0905 31.5821 70.7509 32.0177C70.4113 32.4532 69.783 32.5311 69.3474 32.1915Z" fill="white"/>
<path opacity="0.5" d="M201.094 38.9606C200.659 38.621 200.581 37.9926 200.92 37.5571C201.26 37.1215 201.888 37.0437 202.324 37.3832C202.759 37.7228 202.837 38.3511 202.498 38.7867C202.158 39.2223 201.53 39.3001 201.094 38.9606Z" fill="white"/>
<path d="M189.533 72.9691C190.345 73.1371 190.866 73.9309 190.698 74.7421C190.53 75.5533 189.736 76.0748 188.925 75.9067C188.114 75.7387 187.592 74.9449 187.76 74.1337C187.928 73.3225 188.722 72.8011 189.533 72.9691Z" fill="white"/>
<path d="M175.04 86.2947C175.581 86.4067 175.928 86.9359 175.816 87.4767C175.704 88.0175 175.175 88.3651 174.634 88.2531C174.093 88.1411 173.746 87.6119 173.858 87.0711C173.97 86.5303 174.499 86.1827 175.04 86.2947Z" fill="white"/>
<path d="M291.384 72.2029C291.925 72.3149 292.272 72.8441 292.16 73.3849C292.048 73.9257 291.519 74.2733 290.978 74.1613C290.437 74.0493 290.09 73.5201 290.202 72.9793C290.314 72.4385 290.843 72.0909 291.384 72.2029Z" fill="white"/>
<path d="M200.822 87.5511C201.634 87.7191 202.155 88.5129 201.987 89.3242C201.819 90.1354 201.025 90.6568 200.214 90.4888C199.403 90.3208 198.881 89.527 199.049 88.7157C199.217 87.9045 200.011 87.3831 200.822 87.5511Z" fill="white"/>
<path d="M385.892 83.3041C386.703 83.4721 387.225 84.2659 387.057 85.0771C386.889 85.8883 386.095 86.4097 385.284 86.2417C384.473 86.0737 383.951 85.2799 384.119 84.4687C384.287 83.6575 385.081 83.136 385.892 83.3041Z" fill="white"/>
<path d="M367.892 30.3041C368.703 30.4721 369.225 31.2659 369.057 32.0771C368.889 32.8883 368.095 33.4097 367.284 33.2417C366.473 33.0737 365.951 32.2799 366.119 31.4687C366.287 30.6575 367.081 30.136 367.892 30.3041Z" fill="white"/>
<path d="M202.802 70.6057C203.343 70.7177 203.69 71.2469 203.578 71.7877C203.466 72.3285 202.937 72.6761 202.396 72.5641C201.855 72.4521 201.508 71.9229 201.62 71.3821C201.732 70.8413 202.261 70.4937 202.802 70.6057Z" fill="white"/>
<path d="M277.384 48.2029C277.925 48.3149 278.272 48.8441 278.16 49.3849C278.048 49.9257 277.519 50.2733 276.978 50.1613C276.437 50.0493 276.09 49.5201 276.202 48.9793C276.314 48.4385 276.843 48.0909 277.384 48.2029Z" fill="white"/>
<path d="M111.385 58.2029C111.926 58.3149 112.273 58.8441 112.161 59.3849C112.049 59.9257 111.52 60.2733 110.979 60.1613C110.438 60.0493 110.091 59.5201 110.203 58.9793C110.315 58.4385 110.844 58.0909 111.385 58.2029Z" fill="white"/>
<path d="M89.3848 15.2029C89.9256 15.3149 90.2732 15.8441 90.1612 16.3849C90.0492 16.9257 89.52 17.2733 88.9792 17.1613C88.4384 17.0493 88.0908 16.5201 88.2028 15.9793C88.3148 15.4385 88.844 15.0909 89.3848 15.2029Z" fill="white"/>
<path opacity="0.5" d="M189.735 59.7278C190.276 59.8398 190.623 60.369 190.511 60.9098C190.399 61.4506 189.87 61.7982 189.329 61.6862C188.789 61.5742 188.441 61.045 188.553 60.5042C188.665 59.9634 189.194 59.6158 189.735 59.7278Z" fill="white"/>
<path opacity="0.5" d="M1.38483 29.2029C1.92564 29.3149 2.27325 29.8441 2.16124 30.3849C2.04924 30.9257 1.52003 31.2733 0.979219 31.1613C0.438411 31.0493 0.0907989 30.5201 0.202805 29.9793C0.314811 29.4385 0.844021 29.0909 1.38483 29.2029Z" fill="white"/>
<path opacity="0.5" d="M211.384 48.8818C211.925 48.9938 212.272 49.523 212.16 50.0638C212.048 50.6046 211.519 50.9523 210.978 50.8403C210.437 50.7283 210.09 50.199 210.202 49.6582C210.314 49.1174 210.843 48.7698 211.384 48.8818Z" fill="white"/>
<path d="M359.383 117.281C358.948 116.941 358.87 116.313 359.209 115.877C359.549 115.442 360.177 115.364 360.613 115.703C361.049 116.043 361.126 116.671 360.787 117.107C360.447 117.542 359.819 117.62 359.383 117.281Z" fill="white"/>
<path opacity="0.5" d="M366.297 132.809C365.862 132.469 365.784 131.841 366.123 131.405C366.463 130.97 367.091 130.892 367.527 131.231C367.962 131.571 368.04 132.199 367.701 132.635C367.361 133.07 366.733 133.148 366.297 132.809Z" fill="white"/>
<path opacity="0.5" d="M566.344 113.192C565.909 112.852 565.831 112.224 566.17 111.788C566.51 111.352 567.138 111.275 567.574 111.614C568.009 111.954 568.087 112.582 567.748 113.018C567.408 113.453 566.78 113.531 566.344 113.192Z" fill="white"/>
<path opacity="0.5" d="M396.344 171.192C395.909 170.852 395.831 170.224 396.17 169.788C396.51 169.352 397.138 169.275 397.574 169.614C398.009 169.954 398.087 170.582 397.748 171.018C397.408 171.453 396.78 171.531 396.344 171.192Z" fill="white"/>
<path opacity="0.5" d="M478.344 166.192C477.909 165.852 477.831 165.224 478.17 164.788C478.51 164.352 479.138 164.275 479.574 164.614C480.009 164.954 480.087 165.582 479.748 166.018C479.408 166.453 478.78 166.531 478.344 166.192Z" fill="white"/>
<path opacity="0.5" d="M210.344 126.192C209.909 125.852 209.831 125.224 210.17 124.788C210.51 124.352 211.138 124.275 211.574 124.614C212.009 124.954 212.087 125.582 211.748 126.018C211.408 126.453 210.78 126.531 210.344 126.192Z" fill="white"/>
<path opacity="0.5" d="M342.094 132.961C341.659 132.621 341.581 131.993 341.92 131.557C342.26 131.122 342.888 131.044 343.324 131.383C343.759 131.723 343.837 132.351 343.498 132.787C343.158 133.222 342.53 133.3 342.094 132.961Z" fill="white"/>
<path d="M330.533 166.969C331.345 167.137 331.866 167.931 331.698 168.742C331.53 169.553 330.736 170.075 329.925 169.907C329.114 169.739 328.592 168.945 328.76 168.134C328.928 167.322 329.722 166.801 330.533 166.969Z" fill="white"/>
<path d="M316.04 180.295C316.581 180.407 316.928 180.936 316.816 181.477C316.704 182.017 316.175 182.365 315.634 182.253C315.093 182.141 314.746 181.612 314.858 181.071C314.97 180.53 315.499 180.183 316.04 180.295Z" fill="white"/>
<path d="M432.384 166.203C432.925 166.315 433.272 166.844 433.16 167.385C433.048 167.926 432.519 168.273 431.978 168.161C431.437 168.049 431.09 167.52 431.202 166.979C431.314 166.438 431.843 166.091 432.384 166.203Z" fill="white"/>
<path d="M341.822 181.551C342.634 181.719 343.155 182.513 342.987 183.324C342.819 184.135 342.025 184.657 341.214 184.489C340.403 184.321 339.881 183.527 340.049 182.716C340.217 181.905 341.011 181.383 341.822 181.551Z" fill="white"/>
<path d="M526.892 177.304C527.703 177.472 528.225 178.266 528.057 179.077C527.889 179.888 527.095 180.41 526.284 180.242C525.473 180.074 524.951 179.28 525.119 178.469C525.287 177.657 526.081 177.136 526.892 177.304Z" fill="white"/>
<path d="M508.892 124.304C509.703 124.472 510.225 125.266 510.057 126.077C509.889 126.888 509.095 127.41 508.284 127.242C507.473 127.074 506.951 126.28 507.119 125.469C507.287 124.657 508.081 124.136 508.892 124.304Z" fill="white"/>
<path d="M343.802 164.606C344.343 164.718 344.69 165.247 344.578 165.788C344.466 166.329 343.937 166.676 343.396 166.564C342.855 166.452 342.508 165.923 342.62 165.382C342.732 164.841 343.261 164.494 343.802 164.606Z" fill="white"/>
<path d="M418.384 142.203C418.925 142.315 419.272 142.844 419.16 143.385C419.048 143.926 418.519 144.273 417.978 144.161C417.437 144.049 417.09 143.52 417.202 142.979C417.314 142.438 417.843 142.091 418.384 142.203Z" fill="white"/>
<path d="M252.384 152.203C252.925 152.315 253.272 152.844 253.16 153.385C253.048 153.926 252.519 154.273 251.978 154.161C251.437 154.049 251.09 153.52 251.202 152.979C251.314 152.438 251.843 152.091 252.384 152.203Z" fill="white"/>
<path d="M230.384 109.203C230.925 109.315 231.272 109.844 231.16 110.385C231.048 110.926 230.519 111.273 229.978 111.161C229.437 111.049 229.09 110.52 229.202 109.979C229.314 109.438 229.843 109.091 230.384 109.203Z" fill="white"/>
<path opacity="0.5" d="M330.735 153.728C331.276 153.84 331.623 154.369 331.511 154.91C331.399 155.451 330.87 155.798 330.329 155.686C329.789 155.574 329.441 155.045 329.553 154.504C329.665 153.963 330.194 153.616 330.735 153.728Z" fill="white"/>
<path opacity="0.5" d="M142.384 123.203C142.925 123.315 143.272 123.844 143.16 124.385C143.048 124.926 142.519 125.273 141.978 125.161C141.437 125.049 141.09 124.52 141.202 123.979C141.314 123.438 141.843 123.091 142.384 123.203Z" fill="white"/>
<path opacity="0.5" d="M352.384 142.882C352.925 142.994 353.272 143.523 353.16 144.064C353.048 144.605 352.519 144.952 351.978 144.84C351.437 144.728 351.09 144.199 351.202 143.658C351.314 143.117 351.843 142.77 352.384 142.882Z" fill="white"/>
<path d="M905.383 85.5123C904.948 85.8519 904.87 86.4803 905.209 86.9158C905.549 87.3514 906.177 87.4292 906.613 87.0897C907.049 86.7501 907.126 86.1218 906.787 85.6862C906.447 85.2506 905.819 85.1728 905.383 85.5123Z" fill="white"/>
<path opacity="0.5" d="M912.297 69.9843C911.862 70.3238 911.784 70.9522 912.123 71.3878C912.463 71.8233 913.091 71.9012 913.527 71.5616C913.962 71.222 914.04 70.5937 913.701 70.1581C913.361 69.7225 912.733 69.6447 912.297 69.9843Z" fill="white"/>
<path opacity="0.5" d="M1112.34 89.6012C1111.91 89.9408 1111.83 90.5691 1112.17 91.0047C1112.51 91.4403 1113.14 91.5181 1113.57 91.1785C1114.01 90.839 1114.09 90.2106 1113.75 89.7751C1113.41 89.3395 1112.78 89.2617 1112.34 89.6012Z" fill="white"/>
<path opacity="0.5" d="M942.344 31.6012C941.909 31.9408 941.831 32.5691 942.17 33.0047C942.51 33.4403 943.138 33.5181 943.574 33.1785C944.009 32.839 944.087 32.2106 943.748 31.7751C943.408 31.3395 942.78 31.2617 942.344 31.6012Z" fill="white"/>
<path opacity="0.5" d="M1024.34 36.6012C1023.91 36.9408 1023.83 37.5691 1024.17 38.0047C1024.51 38.4403 1025.14 38.5181 1025.57 38.1785C1026.01 37.839 1026.09 37.2106 1025.75 36.7751C1025.41 36.3395 1024.78 36.2617 1024.34 36.6012Z" fill="white"/>
<path opacity="0.5" d="M756.344 76.6012C755.909 76.9408 755.831 77.5691 756.17 78.0047C756.51 78.4403 757.138 78.5181 757.574 78.1785C758.009 77.839 758.087 77.2106 757.748 76.7751C757.408 76.3395 756.78 76.2617 756.344 76.6012Z" fill="white"/>
<path opacity="0.5" d="M888.094 69.8324C887.659 70.172 887.581 70.8003 887.92 71.2359C888.26 71.6715 888.888 71.7493 889.324 71.4097C889.759 71.0702 889.837 70.4418 889.498 70.0063C889.158 69.5707 888.53 69.4929 888.094 69.8324Z" fill="white"/>
<path d="M876.533 35.8239C877.345 35.6559 877.866 34.8621 877.698 34.0508C877.53 33.2396 876.736 32.7182 875.925 32.8862C875.114 33.0542 874.592 33.848 874.76 34.6593C874.928 35.4705 875.722 35.9919 876.533 35.8239Z" fill="white"/>
<path d="M862.04 22.4983C862.581 22.3863 862.928 21.8571 862.816 21.3163C862.704 20.7755 862.175 20.4279 861.634 20.5399C861.093 20.6519 860.746 21.1811 860.858 21.7219C860.97 22.2627 861.499 22.6103 862.04 22.4983Z" fill="white"/>
<path d="M978.384 36.5901C978.925 36.4781 979.272 35.9489 979.16 35.4081C979.048 34.8673 978.519 34.5197 977.978 34.6317C977.437 34.7437 977.09 35.2729 977.202 35.8137C977.314 36.3545 977.843 36.7021 978.384 36.5901Z" fill="white"/>
<path d="M887.822 21.2418C888.634 21.0738 889.155 20.28 888.987 19.4688C888.819 18.6576 888.025 18.1362 887.214 18.3042C886.403 18.4722 885.881 19.266 886.049 20.0772C886.217 20.8884 887.011 21.4099 887.822 21.2418Z" fill="white"/>
<path d="M1072.89 25.4889C1073.7 25.3209 1074.23 24.5271 1074.06 23.7159C1073.89 22.9047 1073.1 22.3833 1072.28 22.5513C1071.47 22.7193 1070.95 23.5131 1071.12 24.3243C1071.29 25.1355 1072.08 25.6569 1072.89 25.4889Z" fill="white"/>
<path d="M1054.89 78.4889C1055.7 78.3209 1056.23 77.5271 1056.06 76.7159C1055.89 75.9047 1055.1 75.3833 1054.28 75.5513C1053.47 75.7193 1052.95 76.5131 1053.12 77.3243C1053.29 78.1355 1054.08 78.6569 1054.89 78.4889Z" fill="white"/>
<path d="M889.802 38.1873C890.343 38.0753 890.69 37.5461 890.578 37.0053C890.466 36.4644 889.937 36.1168 889.396 36.2288C888.855 36.3408 888.508 36.8701 888.62 37.4109C888.732 37.9517 889.261 38.2993 889.802 38.1873Z" fill="white"/>
<path d="M964.384 60.5901C964.925 60.4781 965.272 59.9489 965.16 59.4081C965.048 58.8673 964.519 58.5197 963.978 58.6317C963.437 58.7437 963.09 59.2729 963.202 59.8137C963.314 60.3545 963.843 60.7021 964.384 60.5901Z" fill="white"/>
<path d="M798.384 50.5901C798.925 50.4781 799.272 49.9489 799.16 49.4081C799.048 48.8673 798.519 48.5197 797.978 48.6317C797.437 48.7437 797.09 49.2729 797.202 49.8137C797.314 50.3545 797.843 50.7021 798.384 50.5901Z" fill="white"/>
<path d="M776.384 93.5901C776.925 93.4781 777.272 92.9489 777.16 92.4081C777.048 91.8673 776.519 91.5197 775.978 91.6317C775.437 91.7437 775.09 92.2729 775.202 92.8137C775.314 93.3545 775.843 93.7021 776.384 93.5901Z" fill="white"/>
<path opacity="0.5" d="M876.735 49.0652C877.276 48.9532 877.623 48.424 877.511 47.8832C877.399 47.3424 876.87 46.9948 876.329 47.1068C875.789 47.2188 875.441 47.748 875.553 48.2888C875.665 48.8296 876.194 49.1772 876.735 49.0652Z" fill="white"/>
<path opacity="0.5" d="M688.384 79.5901C688.925 79.4781 689.272 78.9489 689.16 78.4081C689.048 77.8673 688.519 77.5197 687.978 77.6317C687.437 77.7437 687.09 78.2729 687.202 78.8137C687.314 79.3545 687.843 79.7021 688.384 79.5901Z" fill="white"/>
<path opacity="0.5" d="M898.384 59.9112C898.925 59.7991 899.272 59.2699 899.16 58.7291C899.048 58.1883 898.519 57.8407 897.978 57.9527C897.437 58.0647 897.09 58.5939 897.202 59.1347C897.314 59.6755 897.843 60.0232 898.384 59.9112Z" fill="white"/>
<path d="M560.383 32.2806C559.948 31.9411 559.87 31.3127 560.209 30.8771C560.549 30.4416 561.177 30.3637 561.613 30.7033C562.049 31.0429 562.126 31.6712 561.787 32.1068C561.447 32.5423 560.819 32.6202 560.383 32.2806Z" fill="white"/>
<path opacity="0.5" d="M567.297 47.8087C566.862 47.4691 566.784 46.8408 567.123 46.4052C567.463 45.9696 568.091 45.8918 568.527 46.2314C568.962 46.5709 569.04 47.1993 568.701 47.6349C568.361 48.0704 567.733 48.1483 567.297 47.8087Z" fill="white"/>
<path opacity="0.5" d="M767.344 28.1915C766.909 27.852 766.831 27.2236 767.17 26.788C767.51 26.3525 768.138 26.2746 768.574 26.6142C769.009 26.9537 769.087 27.5821 768.748 28.0177C768.408 28.4532 767.78 28.5311 767.344 28.1915Z" fill="white"/>
<path opacity="0.5" d="M597.344 86.1915C596.909 85.852 596.831 85.2236 597.17 84.788C597.51 84.3525 598.138 84.2746 598.574 84.6142C599.009 84.9537 599.087 85.5821 598.748 86.0177C598.408 86.4532 597.78 86.5311 597.344 86.1915Z" fill="white"/>
<path opacity="0.5" d="M679.344 81.1915C678.909 80.852 678.831 80.2236 679.17 79.788C679.51 79.3525 680.138 79.2746 680.574 79.6142C681.009 79.9537 681.087 80.5821 680.748 81.0177C680.408 81.4532 679.78 81.5311 679.344 81.1915Z" fill="white"/>
<path opacity="0.5" d="M411.344 41.1915C410.909 40.852 410.831 40.2236 411.17 39.788C411.51 39.3525 412.138 39.2746 412.574 39.6142C413.009 39.9537 413.087 40.5821 412.748 41.0177C412.408 41.4532 411.78 41.5311 411.344 41.1915Z" fill="white"/>
<path opacity="0.5" d="M543.094 47.9606C542.659 47.621 542.581 46.9926 542.92 46.5571C543.26 46.1215 543.888 46.0437 544.324 46.3832C544.759 46.7228 544.837 47.3511 544.498 47.7867C544.158 48.2223 543.53 48.3001 543.094 47.9606Z" fill="white"/>
<path d="M531.533 81.9691C532.345 82.1371 532.866 82.9309 532.698 83.7421C532.53 84.5533 531.736 85.0748 530.925 84.9067C530.114 84.7387 529.592 83.9449 529.76 83.1337C529.928 82.3225 530.722 81.8011 531.533 81.9691Z" fill="white"/>
<path d="M517.04 95.2947C517.581 95.4067 517.928 95.9359 517.816 96.4767C517.704 97.0175 517.175 97.3651 516.634 97.2531C516.093 97.1411 515.746 96.6119 515.858 96.0711C515.97 95.5303 516.499 95.1827 517.04 95.2947Z" fill="white"/>
<path d="M633.384 81.2029C633.925 81.3149 634.272 81.8441 634.16 82.3849C634.048 82.9257 633.519 83.2733 632.978 83.1613C632.437 83.0493 632.09 82.5201 632.202 81.9793C632.314 81.4385 632.843 81.0909 633.384 81.2029Z" fill="white"/>
<path d="M542.822 96.5511C543.634 96.7191 544.155 97.5129 543.987 98.3242C543.819 99.1354 543.025 99.6568 542.214 99.4888C541.403 99.3208 540.881 98.527 541.049 97.7157C541.217 96.9045 542.011 96.3831 542.822 96.5511Z" fill="white"/>
<path d="M727.892 92.3041C728.703 92.4721 729.225 93.2659 729.057 94.0771C728.889 94.8883 728.095 95.4097 727.284 95.2417C726.473 95.0737 725.951 94.2799 726.119 93.4687C726.287 92.6575 727.081 92.136 727.892 92.3041Z" fill="white"/>
<path d="M709.892 39.3041C710.703 39.4721 711.225 40.2659 711.057 41.0771C710.889 41.8883 710.095 42.4097 709.284 42.2417C708.473 42.0737 707.951 41.2799 708.119 40.4687C708.287 39.6575 709.081 39.136 709.892 39.3041Z" fill="white"/>
<path d="M544.802 79.6057C545.343 79.7177 545.69 80.2469 545.578 80.7877C545.466 81.3285 544.937 81.6761 544.396 81.5641C543.855 81.4521 543.508 80.9229 543.62 80.3821C543.732 79.8413 544.261 79.4937 544.802 79.6057Z" fill="white"/>
<path d="M619.384 57.2029C619.925 57.3149 620.272 57.8441 620.16 58.3849C620.048 58.9257 619.519 59.2733 618.978 59.1613C618.437 59.0493 618.09 58.5201 618.202 57.9793C618.314 57.4385 618.843 57.0909 619.384 57.2029Z" fill="white"/>
<path d="M453.384 67.2029C453.925 67.3149 454.272 67.8441 454.16 68.3849C454.048 68.9257 453.519 69.2733 452.978 69.1613C452.437 69.0493 452.09 68.5201 452.202 67.9793C452.314 67.4385 452.843 67.0909 453.384 67.2029Z" fill="white"/>
<path d="M431.384 24.2029C431.925 24.3149 432.272 24.8441 432.16 25.3849C432.048 25.9257 431.519 26.2733 430.978 26.1613C430.437 26.0493 430.09 25.5201 430.202 24.9793C430.314 24.4385 430.843 24.0909 431.384 24.2029Z" fill="white"/>
<path opacity="0.5" d="M531.735 68.7278C532.276 68.8398 532.623 69.369 532.511 69.9098C532.399 70.4506 531.87 70.7982 531.329 70.6862C530.789 70.5742 530.441 70.045 530.553 69.5042C530.665 68.9634 531.194 68.6158 531.735 68.7278Z" fill="white"/>
<path opacity="0.5" d="M343.384 38.2029C343.925 38.3149 344.272 38.8441 344.16 39.3849C344.048 39.9257 343.519 40.2733 342.978 40.1613C342.437 40.0493 342.09 39.5201 342.202 38.9793C342.314 38.4385 342.843 38.0909 343.384 38.2029Z" fill="white"/>
<path opacity="0.5" d="M553.384 57.8818C553.925 57.9938 554.272 58.523 554.16 59.0638C554.048 59.6046 553.519 59.9523 552.978 59.8403C552.437 59.7283 552.09 59.199 552.202 58.6582C552.314 58.1174 552.843 57.7698 553.384 57.8818Z" fill="white"/>
<path d="M780.383 290.513C779.948 290.852 779.87 291.481 780.209 291.916C780.549 292.352 781.177 292.429 781.613 292.09C782.049 291.75 782.126 291.122 781.787 290.686C781.447 290.251 780.819 290.173 780.383 290.513Z" fill="white"/>
<path opacity="0.5" d="M787.297 274.984C786.862 275.323 786.784 275.952 787.123 276.387C787.463 276.823 788.091 276.901 788.527 276.561C788.962 276.222 789.04 275.593 788.701 275.158C788.361 274.722 787.733 274.644 787.297 274.984Z" fill="white"/>
<path opacity="0.5" d="M987.344 294.601C986.909 294.941 986.831 295.569 987.17 296.004C987.51 296.44 988.138 296.518 988.574 296.178C989.009 295.839 989.087 295.21 988.748 294.775C988.408 294.339 987.78 294.261 987.344 294.601Z" fill="white"/>
<path opacity="0.5" d="M817.344 236.601C816.909 236.941 816.831 237.569 817.17 238.004C817.51 238.44 818.138 238.518 818.574 238.178C819.009 237.839 819.087 237.21 818.748 236.775C818.408 236.339 817.78 236.261 817.344 236.601Z" fill="white"/>
<path opacity="0.5" d="M899.344 241.601C898.909 241.941 898.831 242.569 899.17 243.004C899.51 243.44 900.138 243.518 900.574 243.178C901.009 242.839 901.087 242.21 900.748 241.775C900.408 241.339 899.78 241.261 899.344 241.601Z" fill="white"/>
<path opacity="0.5" d="M631.344 281.601C630.909 281.941 630.831 282.569 631.17 283.004C631.51 283.44 632.138 283.518 632.574 283.178C633.009 282.839 633.087 282.21 632.748 281.775C632.408 281.339 631.78 281.261 631.344 281.601Z" fill="white"/>
<path opacity="0.5" d="M763.094 274.832C762.659 275.171 762.581 275.8 762.92 276.235C763.26 276.671 763.888 276.749 764.324 276.409C764.759 276.07 764.837 275.441 764.498 275.006C764.158 274.57 763.53 274.492 763.094 274.832Z" fill="white"/>
<path d="M751.533 240.824C752.345 240.656 752.866 239.862 752.698 239.051C752.53 238.24 751.736 237.718 750.925 237.886C750.114 238.054 749.592 238.848 749.76 239.659C749.928 240.47 750.722 240.992 751.533 240.824Z" fill="white"/>
<path d="M737.04 227.498C737.581 227.386 737.928 226.857 737.816 226.316C737.704 225.775 737.175 225.428 736.634 225.54C736.093 225.652 735.746 226.181 735.858 226.722C735.97 227.263 736.499 227.61 737.04 227.498Z" fill="white"/>
<path d="M853.384 241.59C853.925 241.478 854.272 240.949 854.16 240.408C854.048 239.867 853.519 239.52 852.978 239.632C852.437 239.744 852.09 240.273 852.202 240.814C852.314 241.354 852.843 241.702 853.384 241.59Z" fill="white"/>
<path d="M762.822 226.242C763.634 226.074 764.155 225.28 763.987 224.469C763.819 223.658 763.025 223.136 762.214 223.304C761.403 223.472 760.881 224.266 761.049 225.077C761.217 225.888 762.011 226.41 762.822 226.242Z" fill="white"/>
<path d="M947.892 230.489C948.703 230.321 949.225 229.527 949.057 228.716C948.889 227.905 948.095 227.383 947.284 227.551C946.473 227.719 945.951 228.513 946.119 229.324C946.287 230.136 947.081 230.657 947.892 230.489Z" fill="white"/>
<path d="M929.892 283.489C930.703 283.321 931.225 282.527 931.057 281.716C930.889 280.905 930.095 280.383 929.284 280.551C928.473 280.719 927.951 281.513 928.119 282.324C928.287 283.136 929.081 283.657 929.892 283.489Z" fill="white"/>
<path d="M764.802 243.187C765.343 243.075 765.69 242.546 765.578 242.005C765.466 241.464 764.937 241.117 764.396 241.229C763.855 241.341 763.508 241.87 763.62 242.411C763.732 242.952 764.261 243.299 764.802 243.187Z" fill="white"/>
<path d="M839.384 265.59C839.925 265.478 840.272 264.949 840.16 264.408C840.048 263.867 839.519 263.52 838.978 263.632C838.437 263.744 838.09 264.273 838.202 264.814C838.314 265.354 838.843 265.702 839.384 265.59Z" fill="white"/>
<path d="M673.384 255.59C673.925 255.478 674.272 254.949 674.16 254.408C674.048 253.867 673.519 253.52 672.978 253.632C672.437 253.744 672.09 254.273 672.202 254.814C672.314 255.354 672.843 255.702 673.384 255.59Z" fill="white"/>
<path d="M651.384 298.59C651.925 298.478 652.272 297.949 652.16 297.408C652.048 296.867 651.519 296.52 650.978 296.632C650.437 296.744 650.09 297.273 650.202 297.814C650.314 298.354 650.843 298.702 651.384 298.59Z" fill="white"/>
<path opacity="0.5" d="M751.735 254.065C752.276 253.953 752.623 253.424 752.511 252.883C752.399 252.342 751.87 251.994 751.329 252.106C750.789 252.218 750.441 252.747 750.553 253.288C750.665 253.829 751.194 254.177 751.735 254.065Z" fill="white"/>
<path opacity="0.5" d="M563.384 284.59C563.925 284.478 564.272 283.949 564.16 283.408C564.048 282.867 563.519 282.52 562.978 282.632C562.437 282.744 562.09 283.273 562.202 283.814C562.314 284.354 562.843 284.702 563.384 284.59Z" fill="white"/>
<path opacity="0.5" d="M773.384 264.911C773.925 264.799 774.272 264.27 774.16 263.729C774.048 263.189 773.519 262.841 772.978 262.953C772.437 263.065 772.09 263.594 772.202 264.135C772.314 264.676 772.843 265.023 773.384 264.911Z" fill="white"/>
</g>
<path opacity="0.9" d="M956.571 120L956 120.571L967.429 132L968 131.428L956.571 120Z" fill="url(#paint0_linear_193_18973)"/>
<path opacity="0.9" d="M956.571 132L956 131.429L967.429 120L968 120.572L956.571 132Z" fill="url(#paint1_linear_193_18973)"/>
<path d="M962 126.808C962.446 126.808 962.808 126.446 962.808 126C962.808 125.554 962.446 125.192 962 125.192C961.554 125.192 961.192 125.554 961.192 126C961.192 126.446 961.554 126.808 962 126.808Z" fill="white"/>
<path opacity="0.9" d="M1075.57 221L1075 221.571L1086.43 233L1087 232.428L1075.57 221Z" fill="url(#paint2_linear_193_18973)"/>
<path opacity="0.9" d="M1075.57 233L1075 232.429L1086.43 221L1087 221.572L1075.57 233Z" fill="url(#paint3_linear_193_18973)"/>
<path d="M1081 227.808C1081.45 227.808 1081.81 227.446 1081.81 227C1081.81 226.554 1081.45 226.192 1081 226.192C1080.55 226.192 1080.19 226.554 1080.19 227C1080.19 227.446 1080.55 227.808 1081 227.808Z" fill="white"/>
<path opacity="0.9" d="M786.571 178L786 178.571L797.429 190L798 189.428L786.571 178Z" fill="url(#paint4_linear_193_18973)"/>
<path opacity="0.9" d="M786.571 190L786 189.429L797.429 178L798 178.572L786.571 190Z" fill="url(#paint5_linear_193_18973)"/>
<path d="M792 184.808C792.446 184.808 792.808 184.446 792.808 184C792.808 183.554 792.446 183.192 792 183.192C791.554 183.192 791.192 183.554 791.192 184C791.192 184.446 791.554 184.808 792 184.808Z" fill="white"/>
<path opacity="0.9" d="M1207.29 174L1207 174.286L1212.71 180L1213 179.715L1207.29 174Z" fill="url(#paint6_linear_193_18973)"/>
<path opacity="0.9" d="M1207.29 180L1207 179.714L1212.71 174L1213 174.285L1207.29 180Z" fill="url(#paint7_linear_193_18973)"/>
<path d="M1210 177.404C1210.23 177.404 1210.41 177.223 1210.41 177C1210.41 176.777 1210.23 176.596 1210 176.596C1209.78 176.596 1209.6 176.777 1209.6 177C1209.6 177.223 1209.78 177.404 1210 177.404Z" fill="white"/>
<path opacity="0.9" d="M615.667 196L615 196.667L628.333 210L629 209.334L615.667 196Z" fill="url(#paint8_linear_193_18973)"/>
<path opacity="0.9" d="M615.667 210L615 209.333L628.333 196L629 196.666L615.667 210Z" fill="url(#paint9_linear_193_18973)"/>
<path d="M621.997 203.942C622.518 203.942 622.94 203.52 622.94 202.999C622.94 202.478 622.518 202.056 621.997 202.056C621.476 202.056 621.054 202.478 621.054 202.999C621.054 203.52 621.476 203.942 621.997 203.942Z" fill="white"/>
<path opacity="0.9" d="M1219.67 131L1219 131.667L1232.33 145L1233 144.334L1219.67 131Z" fill="url(#paint10_linear_193_18973)"/>
<path opacity="0.9" d="M1219.67 145L1219 144.333L1232.33 131L1233 131.666L1219.67 145Z" fill="url(#paint11_linear_193_18973)"/>
<path d="M1226 138.942C1226.52 138.942 1226.94 138.52 1226.94 137.999C1226.94 137.478 1226.52 137.056 1226 137.056C1225.48 137.056 1225.05 137.478 1225.05 137.999C1225.05 138.52 1225.48 138.942 1226 138.942Z" fill="white"/>
<path opacity="0.9" d="M731.667 87.9998L731 88.6665L744.333 102L745 101.333L731.667 87.9998Z" fill="url(#paint12_linear_193_18973)"/>
<path opacity="0.9" d="M731.667 102L731 101.333L744.333 87.9997L745 88.6663L731.667 102Z" fill="url(#paint13_linear_193_18973)"/>
<path d="M737.997 95.9423C738.518 95.9423 738.94 95.5201 738.94 94.9994C738.94 94.4787 738.518 94.0566 737.997 94.0566C737.476 94.0566 737.054 94.4787 737.054 94.9994C737.054 95.5201 737.476 95.9423 737.997 95.9423Z" fill="white"/>
</g>
<defs>
<linearGradient id="paint0_linear_193_18973" x1="956.286" y1="120.285" x2="967.715" y2="131.714" gradientUnits="userSpaceOnUse">
<stop stop-color="white" stop-opacity="0"/>
<stop offset="0.5" stop-color="white"/>
<stop offset="1" stop-color="white" stop-opacity="0"/>
</linearGradient>
<linearGradient id="paint1_linear_193_18973" x1="956.286" y1="131.715" x2="967.714" y2="120.286" gradientUnits="userSpaceOnUse">
<stop stop-color="white" stop-opacity="0"/>
<stop offset="0.5" stop-color="white"/>
<stop offset="1" stop-color="white" stop-opacity="0"/>
</linearGradient>
<linearGradient id="paint2_linear_193_18973" x1="1075.29" y1="221.285" x2="1086.71" y2="232.714" gradientUnits="userSpaceOnUse">
<stop stop-color="white" stop-opacity="0"/>
<stop offset="0.5" stop-color="white"/>
<stop offset="1" stop-color="white" stop-opacity="0"/>
</linearGradient>
<linearGradient id="paint3_linear_193_18973" x1="1075.29" y1="232.715" x2="1086.71" y2="221.286" gradientUnits="userSpaceOnUse">
<stop stop-color="white" stop-opacity="0"/>
<stop offset="0.5" stop-color="white"/>
<stop offset="1" stop-color="white" stop-opacity="0"/>
</linearGradient>
<linearGradient id="paint4_linear_193_18973" x1="786.286" y1="178.285" x2="797.715" y2="189.714" gradientUnits="userSpaceOnUse">
<stop stop-color="white" stop-opacity="0"/>
<stop offset="0.5" stop-color="white"/>
<stop offset="1" stop-color="white" stop-opacity="0"/>
</linearGradient>
<linearGradient id="paint5_linear_193_18973" x1="786.286" y1="189.715" x2="797.714" y2="178.286" gradientUnits="userSpaceOnUse">
<stop stop-color="white" stop-opacity="0"/>
<stop offset="0.5" stop-color="white"/>
<stop offset="1" stop-color="white" stop-opacity="0"/>
</linearGradient>
<linearGradient id="paint6_linear_193_18973" x1="1207.14" y1="174.143" x2="1212.86" y2="179.857" gradientUnits="userSpaceOnUse">
<stop stop-color="white" stop-opacity="0"/>
<stop offset="0.5" stop-color="white"/>
<stop offset="1" stop-color="white" stop-opacity="0"/>
</linearGradient>
<linearGradient id="paint7_linear_193_18973" x1="1207.14" y1="179.857" x2="1212.86" y2="174.142" gradientUnits="userSpaceOnUse">
<stop stop-color="white" stop-opacity="0"/>
<stop offset="0.5" stop-color="white"/>
<stop offset="1" stop-color="white" stop-opacity="0"/>
</linearGradient>
<linearGradient id="paint8_linear_193_18973" x1="615.333" y1="196.334" x2="628.666" y2="209.667" gradientUnits="userSpaceOnUse">
<stop stop-color="white" stop-opacity="0"/>
<stop offset="0.5" stop-color="white"/>
<stop offset="1" stop-color="white" stop-opacity="0"/>
</linearGradient>
<linearGradient id="paint9_linear_193_18973" x1="615.333" y1="209.666" x2="628.667" y2="196.333" gradientUnits="userSpaceOnUse">
<stop stop-color="white" stop-opacity="0"/>
<stop offset="0.5" stop-color="white"/>
<stop offset="1" stop-color="white" stop-opacity="0"/>
</linearGradient>
<linearGradient id="paint10_linear_193_18973" x1="1219.33" y1="131.334" x2="1232.67" y2="144.667" gradientUnits="userSpaceOnUse">
<stop stop-color="white" stop-opacity="0"/>
<stop offset="0.5" stop-color="white"/>
<stop offset="1" stop-color="white" stop-opacity="0"/>
</linearGradient>
<linearGradient id="paint11_linear_193_18973" x1="1219.33" y1="144.666" x2="1232.67" y2="131.333" gradientUnits="userSpaceOnUse">
<stop stop-color="white" stop-opacity="0"/>
<stop offset="0.5" stop-color="white"/>
<stop offset="1" stop-color="white" stop-opacity="0"/>
</linearGradient>
<linearGradient id="paint12_linear_193_18973" x1="731.333" y1="88.3335" x2="744.667" y2="101.667" gradientUnits="userSpaceOnUse">
<stop stop-color="white" stop-opacity="0"/>
<stop offset="0.5" stop-color="white"/>
<stop offset="1" stop-color="white" stop-opacity="0"/>
</linearGradient>
<linearGradient id="paint13_linear_193_18973" x1="731.333" y1="101.666" x2="744.667" y2="88.333" gradientUnits="userSpaceOnUse">
<stop stop-color="white" stop-opacity="0"/>
<stop offset="0.5" stop-color="white"/>
<stop offset="1" stop-color="white" stop-opacity="0"/>
</linearGradient>
</defs>
</svg>
