<svg width="21" height="21" viewBox="0 0 21 21" fill="none" xmlns="http://www.w3.org/2000/svg">
<rect x="0.259277" y="0.259277" width="20" height="20" rx="5" fill="url(#paint0_linear_41_20630)"/>
<path fill-rule="evenodd" clip-rule="evenodd" d="M14.4259 4.63318C13.9656 4.63318 13.5925 5.00628 13.5925 5.46651V15.0498C13.5925 15.5101 13.9656 15.8832 14.4259 15.8832C14.8861 15.8832 15.2592 15.5101 15.2592 15.0498V5.46651C15.2592 5.00628 14.8861 4.63318 14.4259 4.63318ZM5.25928 5.46652C5.25928 5.00628 5.63238 4.63318 6.09262 4.63318C6.55285 4.63318 6.92595 5.00628 6.92595 5.46652V6.29985H6.9257C6.92632 7.2198 7.67227 7.96538 8.59237 7.96538C9.51284 7.96538 10.259 7.21918 10.259 6.29871L10.259 5.46652C10.259 5.00628 10.6321 4.63318 11.0924 4.63318C11.5526 4.63318 11.9257 5.00628 11.9257 5.46652V6.29985C11.9251 8.14027 10.4329 9.63204 8.59237 9.63204C6.75142 9.63204 5.25903 8.13966 5.25903 6.29871H5.25928V5.46652ZM6.09237 15.8837C5.63214 15.8837 5.25904 15.5106 5.25904 15.0503V14.2182C5.25903 12.3773 6.75142 10.8849 8.59237 10.8849C10.4333 10.8849 11.9257 12.3773 11.9257 14.2182H11.9255V15.0503C11.9255 15.5105 11.5524 15.8836 11.0921 15.8836C10.6319 15.8836 10.2588 15.5105 10.2588 15.0503V14.217H10.259C10.2584 13.2971 9.51242 12.5516 8.59237 12.5516C7.6723 12.5516 6.92636 13.2971 6.92571 14.217V15.0503C6.92571 15.5106 6.55261 15.8837 6.09237 15.8837Z" fill="white"/>
<defs>
<linearGradient id="paint0_linear_41_20630" x1="20.2593" y1="20.9526" x2="-5.26018" y2="6.26792" gradientUnits="userSpaceOnUse">
<stop offset="0.427132" stop-color="#0E0D10"/>
<stop offset="1" stop-color="#201F22"/>
</linearGradient>
</defs>
</svg>
