<svg width="15" height="15" viewBox="0 0 15 15" fill="none" xmlns="http://www.w3.org/2000/svg">
<rect x="0.583984" y="0.157227" width="14" height="14" rx="3.5" fill="#A9A9A9"/>
<path fill-rule="evenodd" clip-rule="evenodd" d="M4.08409 3.80111C4.08409 3.47894 4.34526 3.21777 4.66742 3.21777C4.98959 3.21777 5.25075 3.47894 5.25075 3.80111V4.38444H4.08409V3.80111ZM7.58398 4.38571C7.58398 5.03004 7.06165 5.55238 6.41732 5.55238C5.77299 5.55238 5.25065 5.03004 5.25065 4.38571H4.08398C4.08398 5.67437 5.12865 6.71904 6.41732 6.71904C7.70598 6.71904 8.75065 5.67437 8.75065 4.38571H7.58398ZM8.16863 3.21777C7.84646 3.21777 7.58529 3.47894 7.58529 3.80111V4.38444H8.75196V3.80111C8.75196 3.47894 8.49079 3.21777 8.16863 3.21777ZM11.0818 3.80111V10.5094C11.0818 10.8316 10.8206 11.0928 10.4984 11.0928C10.1763 11.0928 9.91509 10.8316 9.91509 10.5094V3.80111C9.91509 3.47894 10.1763 3.21777 10.4984 3.21777C10.8206 3.21777 11.0818 3.47894 11.0818 3.80111ZM7.58543 10.5093C7.58543 10.8314 7.8466 11.0926 8.16876 11.0926C8.49093 11.0926 8.7521 10.8314 8.7521 10.5093V9.92594H7.58543V10.5093ZM4.66756 11.0926C4.34539 11.0926 4.08422 10.8314 4.08422 10.5093V9.92594H5.25089V10.5093C5.25089 10.8314 4.98972 11.0926 4.66756 11.0926ZM6.41759 8.75879C7.06192 8.75879 7.58426 9.28112 7.58426 9.92545H8.75092C8.75092 8.63679 7.70625 7.59212 6.41759 7.59212C5.12892 7.59212 4.08426 8.63679 4.08426 9.92545H5.25092C5.25092 9.28112 5.77326 8.75879 6.41759 8.75879Z" fill="#2B2B2B"/>
</svg>
