<svg width="24" height="24" viewBox="0 0 24 24" fill="none" xmlns="http://www.w3.org/2000/svg">
<path d="M11.248 19.25H6.74805C5.64348 19.25 4.74805 18.3546 4.74805 17.25V16M4.74805 16V6.75C4.74805 5.64543 5.64348 4.75 6.74805 4.75H17.248C18.3526 4.75 19.248 5.64543 19.248 6.75V12.25L16.5836 9.43947C15.7643 8.48581 14.2795 8.51598 13.4993 9.50017L13.4894 9.51294C13.3957 9.63414 11.9601 11.4909 10.9237 12.8094M4.74805 16L7.49424 12.5067C8.27295 11.5161 9.76258 11.4837 10.5836 12.4395L10.9237 12.8094M10.9237 12.8094L12.248 14.25M10.9237 12.8094C10.9201 12.814 10.9166 12.8185 10.913 12.823" stroke="#A9A9A9" stroke-width="1.5" stroke-linecap="round" stroke-linejoin="round"/>
<path d="M16.999 14.751V19.251" stroke="#A9A9A9" stroke-width="1.5" stroke-linecap="round" stroke-linejoin="round"/>
<path d="M19.249 17.002H14.749" stroke="#A9A9A9" stroke-width="1.5" stroke-linecap="round" stroke-linejoin="round"/>
</svg>
