<svg width="113" height="112" viewBox="0 0 113 112" fill="none" xmlns="http://www.w3.org/2000/svg">
<path fill-rule="evenodd" clip-rule="evenodd" d="M51.7971 9.31939C49.7023 9.63942 44.3412 10.9484 43.2586 11.4041C42.68 11.6478 42.9535 11.6965 45.7815 11.8549C51.3366 12.1662 53.5797 12.9778 56.1727 15.6141C57.891 17.3615 58.8128 19.0175 59.5968 21.7656C60.2999 24.2305 60.2568 27.8808 59.4883 30.9522C59.1873 32.1549 58.9581 33.143 58.9784 33.148C58.999 33.1531 60.0986 33.5258 61.4221 33.9765C62.7455 34.4271 63.9268 34.8173 64.0471 34.8434C64.1674 34.8694 66.0377 31.3469 68.2033 27.0156C74.2522 14.9181 75.5577 12.1874 75.3733 12.0207C75.0955 11.7694 71.195 10.544 69.1144 10.0546C68.0515 9.80436 66.0373 9.45786 64.6384 9.28417C61.4685 8.89108 54.4748 8.91011 51.7971 9.31939ZM81.0512 14.9448C80.9433 15.087 79.992 17.0242 78.9372 19.25C77.8821 21.4758 75.4046 26.47 73.4315 30.3483C71.4583 34.2267 69.844 37.4817 69.844 37.5819C69.844 37.6821 70.656 38.0931 71.6486 38.4952C73.6104 39.2901 76.0834 40.5617 77.8631 41.6907C79.173 42.5217 78.9682 42.642 80.6863 40.0312C82.1642 37.7853 86.5516 33.4315 88.8752 31.9055C90.908 30.5703 93.1865 29.3794 94.8908 28.7617C95.4924 28.5436 96.071 28.29 96.1766 28.1984C96.5966 27.8335 92.2043 22.8261 89.039 20.0611C87.4958 18.7132 84.5855 16.6429 82.5868 15.4715C81.6068 14.8973 81.1947 14.756 81.0512 14.9448ZM32.8752 17.3149C27.2645 21.3568 23.2502 25.7624 19.8631 31.5951C18.4552 34.0195 16.6877 37.7998 16.6877 38.386C16.6877 38.6295 16.9728 38.6041 18.1643 38.2543C18.9765 38.0159 22.6924 37.0425 26.4221 36.0911C37.0579 33.3782 44.3607 32.1562 49.9384 32.1562H52.585L52.9037 31.3937C53.5055 29.9532 53.7497 28.3235 53.7558 25.7031C53.7617 23.2809 53.7149 22.9766 53.1505 21.7656C52.4391 20.2385 51.4965 19.1813 50.2658 18.5296C49.4643 18.1053 48.8396 18.0471 42.8257 17.8377L36.2604 17.6094L35.4976 16.7923L34.7346 15.9753L32.8752 17.3149ZM97.4878 34.3151C95.3963 35.1441 92.7361 36.5929 91.3549 37.6554C88.973 39.4874 86.1327 42.714 84.7019 45.2139L84.1771 46.1309L84.612 46.6782C90.0424 53.5126 93.005 59.9959 97.1951 74.2151C97.7243 76.0108 98.2499 77.4143 98.3783 77.3747C98.8543 77.2284 101.59 71.302 102.647 68.1281C104.297 63.1697 104.692 60.6224 104.713 54.7969C104.731 49.7676 104.59 48.3997 103.616 44.1875C102.643 39.9835 100.148 33.88 99.3474 33.747C99.1822 33.7194 98.3453 33.9751 97.4878 34.3151ZM47.4221 38.2045C47.0612 38.2467 45.8307 38.3875 44.6877 38.5175C41.564 38.873 33.6043 40.364 30.1409 41.2425C23.3375 42.968 14.9614 45.4035 14.605 45.7599C14.4254 45.9395 14.0623 49.6803 13.9337 52.6776C13.7385 57.2215 14.4226 64.3223 15.1228 65.0226C15.6539 65.5537 24.5774 61.8456 28.3909 59.5092C34.996 55.4625 43.2669 47.4567 48.1545 40.3793C48.8945 39.3074 49.5002 38.3475 49.5002 38.2465C49.5002 38.0666 48.7374 38.0511 47.4221 38.2045ZM55.9967 39.2109C55.8343 39.4817 55.3194 40.343 54.8522 41.125C52.2781 45.433 49.0662 49.4333 44.4714 54.0538C39.1844 59.3703 36.3138 61.6772 31.0204 64.8631C27.6919 66.8664 25.5322 67.895 20.6799 69.788C18.7249 70.5508 17.1252 71.2663 17.1252 71.3781C17.1252 71.4901 17.6192 72.6055 18.2229 73.8572C20.422 78.4166 23.8452 83.0832 27.76 86.8584C30.4408 89.4434 34.8956 92.7677 35.1375 92.3632C35.1903 92.2753 35.593 90.9726 36.0322 89.4687C38.2353 81.9295 40.1841 77.8728 46.3325 68.0293C50.6106 61.1798 52.8554 57.2571 57.0967 49.2187C59.9005 43.9053 61.5315 40.6665 61.5315 40.413C61.5315 40.19 57.116 38.7187 56.4473 38.7187C56.3615 38.7187 56.1587 38.9401 55.9967 39.2109ZM66.762 43.4728C66.477 44.2227 62.8886 51.385 60.8227 55.3275C58.432 59.8902 55.5014 64.9335 51.4071 71.5312C45.2685 81.4236 43.0935 86.3006 41.4364 93.8892L41.0206 95.7939L42.4713 96.3416C49.8432 99.1244 58.6674 99.9812 66.4533 98.6707C69.1466 98.2172 74.6212 96.806 74.9494 96.4805C75.0504 96.3804 74.7328 95.2293 74.2435 93.9227C70.8242 84.7895 70.0625 74.1007 72.04 63C72.903 58.1564 74.686 51.9621 76.2719 48.2989L76.6228 47.4884L75.3663 46.7626C73.825 45.8727 67.5464 42.875 67.2233 42.875C67.0947 42.875 66.8871 43.144 66.762 43.4728ZM80.9136 53.4297C80.1383 55.5386 79.0415 59.5669 78.5159 62.2344C77.4783 67.5008 77.3902 68.5145 77.4039 75.0312C77.4164 80.9036 77.4521 81.4435 78.016 84.3281C78.6399 87.5195 79.743 91.1396 80.6141 92.8535L81.1225 93.8536L83.014 92.7259C85.8755 91.0201 88.525 88.9562 90.9774 86.5226C93.5661 83.9541 94.1359 83.1856 93.6704 82.8911C93.4993 82.7831 93.2858 82.6685 93.1957 82.6363C93.1056 82.6044 92.5495 80.757 91.9598 78.5312C89.3033 68.504 85.9013 59.6818 82.5756 54.1953C82.0104 53.263 81.4821 52.5 81.4016 52.5C81.3211 52.5 81.1015 52.9182 80.9136 53.4297Z" fill="#DDDDDD"/>
</svg>
