<svg width="113" height="112" viewBox="0 0 113 112" fill="none" xmlns="http://www.w3.org/2000/svg">
<path fill-rule="evenodd" clip-rule="evenodd" d="M34.4836 11.512C34.243 11.5592 33.5047 11.7058 32.843 11.8375C30.0605 12.3909 27.0315 14.782 25.812 17.3882C24.9938 19.1365 24.5391 21.3198 24.5342 23.5215C24.5316 24.7592 24.429 25.4227 24.1867 25.7688C23.7898 26.3353 21.8985 27.3289 20.1555 27.8865C16.2633 29.1318 13.8767 30.5196 11.8912 32.692C10.5981 34.1069 9.19222 36.5588 8.68647 38.2813C8.18772 39.9794 8.01731 43.4912 8.32269 45.7772C8.71513 48.7132 10.716 54.0536 12.678 57.4013C13.5806 58.9411 13.5978 59.0977 14.0297 69.6719C14.3582 77.7155 14.7461 79.5482 16.7481 82.5219C19.3291 86.3551 22.8558 88.4522 27.2185 88.748C28.9663 88.8665 29.2916 88.9643 30.7997 89.8236C33.3177 91.2586 34.6696 92.4015 36.3688 94.5324C37.853 96.3935 41.2157 99.5282 41.7304 99.5302C41.866 99.5308 42.0968 99.6756 42.2434 99.8522C42.8423 100.574 46.971 102.673 49.4921 103.538C55.0286 105.438 60.8524 104.29 67.2839 100.032C69.4543 98.5957 71.4638 96.7238 74.4888 93.3209C75.8298 91.8127 77.1123 90.8149 79.6677 89.2927C80.2179 88.965 80.9862 88.7898 82.2927 88.6944C84.9254 88.5021 85.8715 88.2564 87.9161 87.2349C91.0519 85.668 93.4663 82.8658 94.6749 79.3905C95.2681 77.6847 95.5836 73.9675 96.0344 63.369C96.1906 59.7019 96.312 58.5121 96.5598 58.2284C97.6971 56.926 100.423 50.5838 101.04 47.8045C101.262 46.8051 101.389 45.0774 101.402 42.875C101.418 39.951 101.355 39.2737 100.938 37.9531C100.097 35.2877 98.7349 33.3386 96.2225 31.2073C94.5123 29.7566 94.2295 29.6087 90.9211 28.4355C88.029 27.41 86.0156 26.4349 85.4115 25.7672C85.0877 25.4096 85.0142 24.9191 84.9972 23.0022C84.9818 21.2864 84.8523 20.2681 84.5065 19.1406C83.4569 15.7205 80.7757 13.0209 77.4142 12C76.096 11.5995 75.5367 11.5526 73.3411 11.6581C70.3499 11.8016 69.6851 11.9735 67.9434 13.0539L66.6399 13.8622L61.4993 14.0431C55.3902 14.2579 43.3292 13.8882 42.468 13.4597C42.1672 13.3101 41.429 12.9354 40.8274 12.6269C39.225 11.8057 35.9316 11.2267 34.4836 11.512ZM34.161 20.7758C33.209 21.7278 33.4004 23.2009 34.5351 23.6545C38.3599 25.1834 40.5308 26.8356 42.5037 29.7192L43.6897 31.453L44.4989 31.1747C46.5958 30.4537 46.6921 30.1368 45.4553 28.0241C43.8385 25.263 40.2849 22.1725 37.2793 20.9136C35.6513 20.2318 34.745 20.1917 34.161 20.7758ZM72.2335 21.0094C68.0333 22.9965 64.3802 26.6621 63.3785 29.895C63.2493 30.3122 63.3796 30.4235 64.4786 30.8348C65.1644 31.0914 65.8563 31.2511 66.0164 31.1896C66.1763 31.1281 66.6552 30.5342 67.0802 29.8697C68.9004 27.0244 71.4169 24.9526 74.2261 23.9868C75.7506 23.4627 76.2474 22.8616 76.0492 21.7801C75.7583 20.1926 74.498 19.9382 72.2335 21.0094ZM51.8714 33.2467C50.2487 34.1841 48.1829 35.3883 47.2805 35.9231L45.6399 36.8955V42.0939V47.2922L49.9055 49.6674C52.2516 50.9738 54.3779 52.0945 54.6305 52.1579C55.1334 52.2841 58.9009 50.3711 62.3456 48.2403L64.343 47.0048V42.0302V37.0558L62.5383 35.9912C61.5456 35.4056 60.3891 34.7124 59.968 34.4503C58.9134 33.7943 56.2797 32.2845 55.4808 31.8778C54.8285 31.546 54.7915 31.56 51.8714 33.2467ZM20.786 36.8334C18.8579 37.5224 17.8164 38.5217 17.1834 40.2903C16.5715 42.0002 16.8493 45.3115 17.786 47.4688C19.923 52.3913 23.0719 56.4504 25.6783 57.6433C28.4413 58.9076 29.9907 59.0376 40.6369 58.8985L44.8211 58.8438L45.0948 58.1836C45.245 57.8205 45.7582 56.9665 46.2351 56.2857C47.0812 55.0778 47.092 55.0397 46.6763 54.7037C44.7467 53.1431 37.2226 46.8928 32.843 43.2125C26.7029 38.0527 26.3348 37.7781 24.6038 37.0665C23.1837 36.4825 21.9742 36.4088 20.786 36.8334ZM85.8899 36.8272C83.5906 37.5845 83.4362 37.7014 72.9836 46.5964C71.5399 47.8249 68.7182 50.1441 66.7129 51.7499C64.7079 53.3555 63.0029 54.7739 62.924 54.9017C62.845 55.0294 63.0491 55.4518 63.3774 55.8403C63.7058 56.229 64.1969 57.048 64.4686 57.6605L64.9629 58.774L68.0983 58.9175C78.2872 59.3836 82.7377 58.8315 85.5167 56.7569C87.5246 55.2578 90.2325 51.5399 91.5498 48.4737C93.5021 43.9292 93.5109 40.945 91.5793 38.4127C90.5376 37.0469 87.6589 36.2447 85.8899 36.8272ZM43.2813 63.8864C40.2425 64.2399 33.7058 66.4396 30.4689 68.1979C25.3561 70.9752 23.0205 73.5547 23.2697 76.1484C23.4823 78.3602 25.5204 79.8387 28.3586 79.8403C29.5655 79.8409 30.4123 79.6622 32.3559 78.9968C33.7123 78.5324 35.0189 77.9741 35.2596 77.7564C35.5002 77.5386 35.8561 76.8128 36.0508 76.1432C36.567 74.3671 37.7347 71.7314 38.6478 70.2809C39.0857 69.585 40.6815 67.8099 42.1937 66.336C43.7059 64.862 44.9031 63.6692 44.8541 63.6849C44.8049 63.7009 44.0973 63.7915 43.2813 63.8864ZM64.9993 63.8805C64.9993 63.9977 65.085 64.0938 65.1898 64.0938C65.5453 64.0938 69.3478 67.8267 70.3812 69.1902C71.6276 70.8348 73.1363 73.9358 73.7018 76.0156C74.0761 77.3922 74.204 77.5954 74.9677 78.0279C75.4349 78.2924 76.7229 78.8093 77.83 79.1764C81.6735 80.4508 84.6001 79.917 86.0421 77.6788C86.6115 76.795 86.6772 76.5301 86.5785 75.5132C86.4289 73.969 85.6271 72.6587 84.0075 71.3108C80.2697 68.2001 74.9003 65.7655 68.8956 64.458C65.4088 63.6989 64.9993 63.6383 64.9993 63.8805ZM42.9145 73.4875C41.9312 74.8683 40.3022 79.5666 40.6253 80.0894C40.6913 80.1962 47.046 80.2813 54.9523 80.2813H69.1607L69.0295 79.3516C68.8427 78.0284 68.1657 76.0274 67.3456 74.375L66.6399 72.9531L55.0076 72.8965L43.3756 72.84L42.9145 73.4875ZM42.2493 87.4571C42.2493 87.9108 43.6165 89.6971 44.7999 90.79C47.4721 93.2573 51.5566 95.4662 54.4739 96.0219C55.3187 96.1826 55.6702 96.1056 57.427 95.3735C61.032 93.8709 63.5844 92.2502 65.5135 90.2379C66.4183 89.2944 67.4055 87.8679 67.4055 87.5044C67.4055 87.3554 63.2304 87.2813 54.8274 87.2813C47.9094 87.2813 42.2493 87.3604 42.2493 87.4571Z" fill="#DDDDDD"/>
</svg>
