<svg width="112" height="112" viewBox="0 0 112 112" fill="none" xmlns="http://www.w3.org/2000/svg">
<path fill-rule="evenodd" clip-rule="evenodd" d="M53.0652 8.32934L52.4988 9.00222V14.0053V19.0083L51.3504 19.0746L50.202 19.1406L50.142 22.9141L50.0823 26.6875L48.5014 26.7089C47.6321 26.7208 46.2809 26.7455 45.4988 26.7636L44.077 26.7969L44.017 23.0234L43.9573 19.25H39.1498H34.3426L34.3301 23.4609C34.3231 25.7771 34.2737 28.0945 34.2203 28.611C34.1052 29.7211 34.3774 30.0433 36.5515 31.3707C37.3217 31.841 38.715 32.7152 39.6473 33.313L41.3426 34.4004V48.2626V62.125H39.1551H36.9676V54.8264C36.9676 47.6707 36.9584 47.516 36.4933 46.9249C35.7443 45.9725 34.8429 45.7185 32.2168 45.7201C29.4723 45.7214 28.4969 45.9403 27.7639 46.7198C27.2693 47.2456 27.2258 47.4869 27.1238 50.2714L27.0145 53.2591L24.6082 53.2129C23.2848 53.1875 21.6606 53.1641 20.9988 53.1613L19.7957 53.1556L19.7863 50.3429C19.7723 46.1558 19.5203 45.8994 15.2814 45.7597C11.9297 45.6492 11.1428 45.8535 10.3593 47.0376L9.80322 47.878L9.98697 75.8019L10.1707 103.726L10.7845 104.253L11.3983 104.781H26.5015C43.2201 104.781 42.6711 104.827 43.555 103.377C43.944 102.739 43.9663 102.052 43.9702 90.5625C43.9724 83.8852 44.0466 78.3136 44.1349 78.1813C44.6002 77.4845 45.295 77.4375 55.1094 77.4375C64.676 77.4375 64.9805 77.4504 65.4051 77.875C65.8319 78.3018 65.8426 78.6041 65.8426 90.2926C65.8426 101.532 65.8675 102.32 66.2477 103.035C66.4704 103.454 66.9772 104.018 67.3736 104.289L68.0948 104.781H83.0685C99.5377 104.781 99.0232 104.822 99.8044 103.449C100.164 102.815 100.188 101.103 100.185 75.5567C100.181 45.7238 100.242 47.1282 98.9099 46.2238C98.4129 45.8865 97.8536 45.8281 95.1163 45.8281C92.2026 45.8281 91.8489 45.8703 91.2882 46.2853C90.2369 47.0636 90.021 47.7704 89.9418 50.6953L89.8694 53.375H86.4182H82.9672L82.8558 50.4586C82.6887 46.079 82.3057 45.7188 77.8185 45.7188C75.3455 45.7188 75.0266 45.7647 74.3546 46.2175C73.0749 47.0798 73.0681 47.1264 73.0646 54.9609L73.0613 62.125H70.8738H68.6863L68.6883 48.1797L68.69 34.2344L70.0555 33.3725C70.8062 32.8985 72.159 32.0458 73.0613 31.4775C75.7051 29.8123 75.4676 30.4861 75.4676 24.6531C75.4676 20.9805 75.3943 19.483 75.2051 19.2938C75.018 19.1067 73.6642 19.0313 70.5019 19.0313H66.0613V22.8594V26.6875H62.8947H59.7279L59.6681 22.9141L59.6082 19.1406L58.232 19.0752L56.8559 19.0098L56.9195 17.3252L56.9832 15.6406L60.6164 14.7429C62.6147 14.2492 64.3619 13.7758 64.4992 13.6909C64.6364 13.606 64.7488 13.2608 64.7488 12.9238C64.7488 12.3703 64.5797 12.2336 63.0074 11.5148C62.0494 11.0771 61.2079 10.7188 61.1375 10.7188C61.0668 10.7188 59.6266 10.0297 57.9369 9.1875C56.2473 8.34531 54.5875 7.65625 54.2482 7.65625C53.8282 7.65625 53.4511 7.87084 53.0652 8.32934ZM53.5926 41.3173C52.3363 41.5912 51.4392 42.1768 50.8026 43.1379C50.2256 44.0092 50.1989 44.1742 50.1263 47.3336C50.0806 49.3257 50.1457 50.9394 50.2916 51.4268C50.7291 52.8872 52.4704 53.8134 54.7736 53.8112C56.5453 53.8097 57.6001 53.4923 58.521 52.6835C59.6614 51.6823 60.0083 50.2346 59.8985 46.9357C59.8149 44.4211 59.776 44.2313 59.1541 43.3053C58.0341 41.6371 55.7958 40.8369 53.5926 41.3173ZM53.891 44.4434C53.1527 44.8009 52.9363 45.5816 52.9363 47.8898C52.9363 50.3657 53.0076 50.4827 54.636 50.6754C55.5585 50.7848 55.7969 50.7332 56.1902 50.3398C56.6054 49.9247 56.6551 49.6285 56.6551 47.5683C56.6551 45.4105 56.6203 45.2266 56.118 44.7245C55.5486 44.1549 54.7062 44.0486 53.891 44.4434ZM24.2072 65.2361C23.0267 65.5489 21.7605 66.8238 21.4377 68.0245C21.26 68.6858 21.1994 70.4611 21.2508 73.5094C21.3263 77.9748 21.3324 78.0251 21.9139 78.9033C22.2962 79.4811 22.902 79.9899 23.6521 80.3637C26.2508 81.6587 30.04 80.6383 30.9791 78.3906C31.3444 77.5163 31.4057 69.0393 31.0559 67.7793C30.4591 65.6309 27.2352 64.4339 24.2072 65.2361ZM81.6923 65.2011C80.4518 65.4999 79.2918 66.5241 78.9214 67.6469C78.5045 68.9109 78.378 76.6321 78.7547 77.8078C79.1323 78.9858 79.9948 80.057 80.8552 80.4164C81.2638 80.5873 82.4437 80.7408 83.506 80.7618C85.0711 80.7925 85.5804 80.7161 86.2957 80.3429C88.4103 79.2396 88.8133 78.0789 88.8061 73.1095C88.803 71.0986 88.703 69.0305 88.584 68.5138C88.2811 67.2009 87.4188 65.991 86.4602 65.5338C85.4994 65.0757 82.951 64.8977 81.6923 65.2011Z" fill="#DDDDDD"/>
</svg>
