<svg width="112" height="112" viewBox="0 0 112 112" fill="none" xmlns="http://www.w3.org/2000/svg">
<path fill-rule="evenodd" clip-rule="evenodd" d="M59.321 6.08193C59.1165 6.2215 59.0163 7.00528 58.9771 8.77212C58.9296 10.9082 58.8196 11.5743 58.2093 13.4201C57.8173 14.6051 57.0536 16.5246 56.5118 17.6857C53.5226 24.0938 52.2376 30.1077 52.6143 35.9297L52.7666 38.2813H56.5807H60.3948L60.2229 37.461C60.1282 37.0099 60.0636 35.361 60.0794 33.7969C60.1249 29.2764 60.84 26.7037 63.7585 20.5625C66.0578 15.724 66.3676 14.7803 66.3783 12.5782C66.3919 9.81403 65.2089 7.7965 62.917 6.67518C61.6868 6.0734 59.792 5.76081 59.321 6.08193ZM17.1718 38.6446C14.5632 39.2035 11.9041 41.1909 10.6281 43.5354C9.78441 45.0857 9.49172 46.7522 8.76591 54.1407C8.3995 57.8703 7.9526 62.2016 7.77279 63.7657C6.52263 74.6384 5.03469 89.5646 5.03272 91.2542C5.02682 96.6937 7.72575 101.024 12.6424 103.464C16.6816 105.468 21.7004 105.15 25.5351 102.647C26.1644 102.237 27.3457 101.228 28.1601 100.406C44.8625 83.5492 45.0285 83.3993 48.7604 81.8064C51.0538 80.8275 52.8983 80.3585 55.7173 80.038C60.6341 79.4789 66.4656 81.1248 70.7052 84.2682C72.1754 85.3585 80.4124 93.513 85.8689 99.2802C89.1007 102.696 91.5851 104.152 94.9486 104.6C101.746 105.504 107.724 101.638 109.734 95.0355C110.224 93.4238 110.221 89.6506 109.726 85.1808C109.392 82.1673 108.79 76.2792 107.738 65.7344C107.019 58.5248 106.405 52.9397 105.876 48.7813C105.503 45.8533 105.341 45.1818 104.69 43.8594C103.879 42.214 102.366 40.5287 100.948 39.6918C99.0427 38.5681 98.0725 38.4751 88.9876 38.5449L80.6093 38.6094L79.2616 39.3149C76.5591 40.7295 72.1211 42.3168 68.3899 43.2034C57.8326 45.7118 48.0551 44.6609 37.0949 39.8397L34.0492 38.5L25.8293 38.5254C21.3084 38.5394 17.4124 38.593 17.1718 38.6446ZM29.0685 50.3957C27.9361 50.8003 27.0101 51.5148 26.4558 52.4117C26.0428 53.0797 25.9588 53.603 25.8636 56.0948L25.7527 58.9991L22.9098 59.1255C20.501 59.2327 19.9127 59.3314 19.057 59.7717C16.7468 60.9606 16.0098 63.814 17.4424 66.0232C18.3876 67.4809 19.1257 67.7489 22.6952 67.9296L25.8124 68.0873L25.8148 70.3015C25.8183 73.4937 25.9568 74.0819 26.9353 75.0604C28.0872 76.2123 29.1322 76.6172 30.6807 76.5111C31.6312 76.4462 32.1647 76.267 32.8577 75.7798C34.3949 74.6994 34.6456 74.0419 34.7457 70.8271L34.8328 68.0313H37.3924C40.3516 68.0313 41.8453 67.6793 42.708 66.7787C44.7977 64.5969 44.2054 61.0763 41.5165 59.6976C40.8366 59.3489 40.2241 59.2813 37.7431 59.2813H34.7812L34.7799 56.711C34.7783 53.515 34.5467 52.6455 33.3882 51.4868C32.1006 50.1994 30.6459 49.8319 29.0685 50.3957ZM87.3363 52.7415C86.3863 53.2118 85.261 54.4301 84.9112 55.367C84.1309 57.4576 84.4746 59.8588 85.7643 61.3238C88.0048 63.8691 91.5883 63.952 93.9263 61.5125C96.5369 58.7887 95.5987 54.014 92.1713 52.5821C91.036 52.1076 88.444 52.1931 87.3363 52.7415ZM54.578 52.693C52.9982 52.8686 52.3951 53.1777 51.8327 54.1C50.9225 55.5927 51.5492 57.6512 53.1605 58.4605C53.801 58.7825 54.5461 58.8431 57.8593 58.8427C61.379 58.8423 61.8712 58.7968 62.497 58.415C64.438 57.2316 64.3815 53.9079 62.4038 52.9318C61.7246 52.5967 56.7968 52.4462 54.578 52.693ZM75.2221 60.9228C73.2842 61.5447 71.7499 63.7344 71.7499 65.8783C71.7499 67.6531 72.9404 69.6537 74.5619 70.604C75.8911 71.383 78.1812 71.4357 79.5363 70.7186C83.1945 68.7827 83.4635 63.5285 80.0136 61.3957C78.7595 60.6202 76.7748 60.4243 75.2221 60.9228ZM52.9901 66.7177C51.4816 67.6373 50.9647 69.6015 51.8494 71.0522C52.5719 72.2374 53.3001 72.4063 57.6882 72.4058C61.9552 72.4056 62.6335 72.2475 63.5131 71.0474C64.4229 69.806 63.901 67.6137 62.4872 66.74C61.804 66.3176 61.4258 66.2813 57.7241 66.2822C54.0977 66.2828 53.633 66.3255 52.9901 66.7177ZM88.1179 69.2125C86.1091 69.93 84.7189 71.7111 84.498 73.8505C84.3313 75.4655 84.7581 76.8058 85.8252 78.0181C86.9902 79.3415 88.0956 79.8328 89.9217 79.839C92.7121 79.8484 94.7992 78.1332 95.3753 75.3572C96.2005 71.3832 91.9994 67.8263 88.1179 69.2125Z" fill="#DDDDDD"/>
</svg>
