<svg width="112" height="112" viewBox="0 0 112 112" fill="none" xmlns="http://www.w3.org/2000/svg">
<path fill-rule="evenodd" clip-rule="evenodd" d="M10.9377 3.08939C8.49124 4.06502 7.65693 7.68905 7.65649 17.3423C7.65606 28.219 9.35924 40.1373 11.6891 45.5621L12.4753 47.3928L11.7307 49.0166C11.0646 50.4691 9.46096 55.1587 9.10287 56.7006C8.9784 57.2368 9.03199 57.3024 9.67818 57.4028C10.07 57.4639 12.5071 57.8191 15.0938 58.1921C24.1454 59.498 30.5631 60.9997 31.4453 62.0185C32.0994 62.7738 32.0815 63.751 31.4005 64.4317C30.7298 65.1026 29.7964 65.1282 27.4284 64.5406C24.0929 63.7129 18.456 62.6056 15.75 62.2464C14.2461 62.0469 12.357 61.7903 11.5518 61.6761C10.7468 61.5621 9.64121 61.4687 9.09499 61.4687C8.19746 61.4687 8.08634 61.5265 7.93803 62.0703C7.7569 62.7344 7.70046 69.9024 7.87503 70.0641C7.93518 70.1199 8.72268 70.0378 9.62502 69.8819C13.437 69.2232 21.2746 68.5024 25.4476 68.4263L29.1294 68.3594L29.6586 68.9732C30.683 70.1619 30.1464 71.608 28.5469 71.9692C28.0656 72.0779 26.4906 72.2282 25.0469 72.3032C22.0017 72.4616 14.4515 73.1784 12.3032 73.5133C11.4918 73.6398 10.4097 73.7997 9.89846 73.8688C9.23696 73.9583 8.96965 74.0965 8.97206 74.3487C8.98146 75.3222 11.4975 80.0126 13.3667 82.5416C13.4409 82.6418 14.6226 82.0881 15.9928 81.3113C19.5208 79.3113 22.3456 77.9242 26.3161 76.2425C30.0913 74.6432 30.6712 74.5741 31.4974 75.6245C32.5986 77.0243 31.8881 77.8726 28.2721 79.4754C24.5204 81.1385 16.1875 85.5295 16.1875 85.8434C16.1875 85.8773 17.2458 86.8319 18.5391 87.9648C28.3295 96.5396 38.7183 101.908 49.5469 103.988C56.1656 105.259 63.1413 104.983 70.2511 103.169C79.2864 100.863 89.458 95.1799 97.5524 87.9145C98.761 86.8297 99.75 85.902 99.75 85.8528C99.75 85.4636 89.3143 79.952 86.5526 78.8825C84.9973 78.2801 84.2187 77.549 84.2187 76.6905C84.2187 75.8555 85.0279 74.9755 85.7933 74.9785C87.6194 74.986 95.5533 78.5649 100.79 81.744C102.313 82.6685 102.431 82.7046 102.809 82.3624C103.818 81.4494 107.592 74.4537 107.244 74.1431C106.845 73.7883 98.5932 72.7866 92.9687 72.4104C87.0979 72.0177 87.022 72.007 86.474 71.4921C85.7992 70.8581 85.7808 69.5316 86.4375 68.875C86.8982 68.4143 86.9962 68.4084 92.0703 68.537C97.475 68.6741 104.987 69.4304 107.646 70.1052C108.211 70.2485 108.215 70.2404 108.349 68.6481C108.491 66.9655 108.319 62.8447 108.068 61.9084C107.901 61.2846 108.135 61.29 103.797 61.81C100.108 62.2523 95.8068 62.9919 90.3982 64.1139C86.0602 65.0136 85.7091 65.0556 85.1482 64.7421C84.2165 64.2213 83.9145 63.4095 84.3049 62.4752C84.5983 61.7728 84.7704 61.6674 86.4447 61.1645C90.2713 60.0151 98.2329 58.3833 102.047 57.9665C105.785 57.5581 106.956 57.398 107.076 57.2781C107.236 57.1176 105.596 52.0511 104.573 49.5445L103.727 47.4744L104.481 45.5575C105.157 43.8379 106.08 40.539 106.731 37.5156C107.029 36.1318 107.756 31.1568 108.059 28.4375C108.432 25.0827 108.592 13.8186 108.31 10.7848C107.701 4.24067 106.668 2.66524 103.133 2.89208C101.227 3.01436 100.236 3.51289 95.0469 6.96214C88.7858 11.1236 83.7727 15.1333 78.75 19.997C77.3664 21.3366 75.938 22.6971 75.5755 23.0199L74.9168 23.6068L70.9966 22.6345C60.7755 20.0994 53.0913 20.2175 43.7354 23.054L41.4076 23.7597L38.5866 21.0516C35.8453 18.4201 30.625 13.895 28.4686 12.281C27.8832 11.8429 26.4799 10.7933 25.3505 9.94852C21.4867 7.05905 16.2127 3.72093 14.6272 3.16158C13.605 2.80086 11.7519 2.76477 10.9377 3.08939ZM14.7298 13.0303C14.5257 13.5623 14.8179 20.9479 15.2095 25.1562C15.7813 31.3011 17.0573 38.9375 17.5118 38.9375C17.6195 38.9375 18.41 38.3221 19.2684 37.5703C21.6366 35.4961 24.26 33.3438 25.5343 32.4297C26.2916 31.8865 26.6796 31.4519 26.6827 31.1434C26.6912 30.3093 23.2615 23.8114 21.1293 20.622C18.4238 16.5751 15.8913 13.2694 15.1673 12.8395C14.975 12.7253 14.821 12.7925 14.7298 13.0303ZM100.704 13.2002C98.7133 14.8791 93.621 22.4943 90.974 27.7502C90.0261 29.6321 89.2504 31.2305 89.2502 31.302C89.2502 31.3736 89.9124 31.915 90.722 32.5051C91.5315 33.0953 93.3686 34.5625 94.8043 35.7656C99.0369 39.3129 98.6011 39.0119 98.8448 38.5566C99.1528 37.9811 100.152 32.1676 100.64 28.1144C101.094 24.3403 101.575 16.0164 101.461 13.9121L101.391 12.6208L100.704 13.2002ZM36.157 46.2606C34.8565 46.6847 33.4911 47.6805 32.0961 49.2218C28.919 52.7327 28.6784 55.8679 31.6094 55.5682C32.1917 55.5085 32.8718 54.8544 34.0145 53.2545C35.1411 51.6773 36.5221 50.3853 37.5327 49.9631C38.7634 49.4489 40.4727 49.5705 41.811 50.2672C42.7225 50.7417 43.2165 51.2151 44.025 52.388C45.2034 54.0977 45.3729 54.2419 46.2109 54.2467C47.5326 54.2539 48.0992 52.6682 47.3439 51.0761C46.7473 49.8194 44.3811 47.7584 42.5075 46.8637C40.9916 46.1398 40.5851 46.0418 38.9375 46.0036C37.8348 45.978 36.7032 46.0825 36.157 46.2606ZM74.5926 46.345C72.2256 47.2727 69.6082 49.3992 68.8395 51.019C68.2942 52.1681 68.3578 53.284 69.0058 53.9317C69.911 54.8371 70.4294 54.602 71.8172 52.6573C73.8655 49.7866 76.351 48.9396 78.9401 50.2298C79.712 50.6144 80.451 51.2446 81.1849 52.1439C83.8965 55.4667 83.9945 55.5625 84.6827 55.5625C85.5842 55.5625 86.1188 55.2361 86.5349 54.4316C86.8785 53.767 86.8671 53.7121 86.0449 52.0887C84.903 49.8343 82.8627 47.6903 80.9727 46.7591C79.7011 46.1326 79.2896 46.0416 77.5526 46.0029C76.0996 45.9703 75.3178 46.0609 74.5926 46.345ZM52.8791 58.2032C51.0762 58.6357 50.0938 59.8485 50.0938 61.6418C50.0938 62.5257 50.213 62.8893 50.6881 63.4539C51.331 64.218 52.554 64.8434 53.8845 65.0884C55.0576 65.3045 55.2552 65.8313 54.9577 67.951C54.1892 73.4263 49.8004 76.6905 44.6655 75.6057C43.7857 75.4197 41.9613 74.8208 40.6114 74.2744C37.8475 73.1559 36.9808 73.052 36.321 73.7601C34.9333 75.2495 36.7664 77.0529 41.207 78.5665L43.6406 79.396L44.1906 80.9869C45.6982 85.3484 48.5715 88.2932 52.9375 89.9524C54.7094 90.6257 54.9408 90.659 57.8594 90.6616C60.6228 90.664 61.0842 90.6071 62.5835 90.0793C67.1276 88.4798 70.2699 85.4678 71.8924 81.1562L72.5922 79.2969L74.1989 78.8476C76.522 78.1979 79.1901 76.797 79.7891 75.9124C80.4414 74.9488 80.4099 74.4699 79.6436 73.7036C79.1066 73.1666 78.8909 73.0879 78.2764 73.2051C77.8752 73.2817 77.1597 73.5383 76.6865 73.7752C75.2283 74.5054 73.0771 75.2528 71.447 75.5961C66.3375 76.6716 61.9174 73.4177 61.0229 67.9219C60.6675 65.7385 60.8604 65.3555 62.484 65.0201C64.9088 64.5192 66.2484 63.0339 65.9671 61.1583C65.8033 60.0657 64.7579 58.6974 63.7726 58.2857C62.967 57.9491 54.2148 57.883 52.8791 58.2032ZM57.2416 73.7653C55.3973 76.6067 52.4882 78.6782 49.5642 79.233C48.3814 79.4574 48.125 79.5815 48.125 79.9291C48.125 80.6746 49.8905 83.3951 50.6673 83.8466C50.862 83.9597 51.2575 83.7895 51.7886 83.3643C53.0338 82.3679 54.3767 81.874 56.5469 81.615C59.5855 81.252 61.899 81.723 63.9844 83.1294L65.2969 84.0144L66.0785 83.1477C66.5083 82.6711 67.177 81.6865 67.5644 80.9596L68.2688 79.6381L67.6578 79.5031C63.5407 78.5934 61.3679 77.1942 58.931 73.8839L57.9924 72.609L57.2416 73.7653ZM18.6421 95.7189C15.5914 98.5031 14.8468 101.83 16.7814 104.032C17.9384 105.349 17.7002 105.329 30.7344 105.238C38.4116 105.184 39.5771 105.135 38.8281 104.894C35.3476 103.775 26.2074 98.6842 21.4161 95.1963L20.1915 94.3046L18.6421 95.7189ZM93.6339 95.9521C92.3755 96.8424 90.5052 98.0792 89.4777 98.7004C87.1526 100.106 79.2658 104.127 77.6871 104.713L76.5148 105.147L84.359 105.29C93.7348 105.462 97.4962 105.322 98.4095 104.766C100.108 103.733 100.763 101.712 100.183 99.2952C99.9532 98.3355 99.6424 97.8725 98.254 96.4191C97.3435 95.4662 96.4464 94.6072 96.2603 94.5098C96.0199 94.3843 95.2595 94.8019 93.6339 95.9521Z" fill="#DDDDDD"/>
</svg>
