<svg width="112" height="112" viewBox="0 0 112 112" fill="none" xmlns="http://www.w3.org/2000/svg">
<path fill-rule="evenodd" clip-rule="evenodd" d="M60.9745 8.52688C56.1624 10.3154 51.0752 14.0567 48.8028 17.4781L48.0149 18.6644L47.9525 26.7229L47.8902 34.7813H56.3197H64.7493V21.6902C64.7493 9.28551 64.7283 8.58004 64.3492 8.23704C63.7854 7.72692 62.9293 7.80042 60.9745 8.52688ZM45.0618 50.0938V61.6875H56.3274H67.593V50.0938V38.5H56.3274H45.0618V50.0938ZM40.9206 80.0078C40.9289 87.9185 41.0088 95.8274 41.098 97.5835C41.2498 100.575 41.2993 100.838 41.8811 101.758C42.2226 102.298 42.8288 102.963 43.228 103.237C44.8034 104.316 44.8966 104.324 56.6129 104.334C67.0103 104.343 67.6676 104.321 68.5347 103.924C69.6926 103.394 70.5116 102.539 71.0659 101.281C71.4861 100.328 71.5001 99.7535 71.515 82.961L71.5301 65.625H56.2178H40.9055L40.9206 80.0078Z" fill="#DDDDDD"/>
</svg>
