<svg width="112" height="112" viewBox="0 0 112 112" fill="none" xmlns="http://www.w3.org/2000/svg">
<path fill-rule="evenodd" clip-rule="evenodd" d="M36.6401 10.1691C35.0336 10.6048 33.5149 11.3004 32.3614 12.1293C28.6074 14.826 25.3375 19.3487 23.4491 24.4558C22.6767 26.5445 22.6642 26.632 22.6522 29.9688C22.6417 32.9584 22.6977 33.5116 23.1262 34.6472C24.1661 37.4017 26.493 40 29.0944 41.3118C29.9971 41.7671 30.9557 42.1971 31.2243 42.2673C31.8968 42.4432 32.1558 43.2664 32.1558 45.2281V46.8963L34.0709 48.7684C37.9688 52.5786 41.0403 55.4726 41.9131 56.1573L42.8106 56.8612L42.9506 55.0636C43.0276 54.0746 43.0919 52.3797 43.0937 51.2969C43.0954 50.2141 43.195 48.4724 43.3148 47.4263L43.5327 45.5245L41.9999 42.891C41.1569 41.4426 40.2082 39.7294 39.8914 39.0836L39.3159 37.9098L40.2957 36.2909C42.4197 32.7817 43.9645 29.3685 44.5263 26.9435C45.2153 23.9674 45.3667 23.625 45.9919 23.625C46.268 23.625 47.1209 23.9943 47.8874 24.4453C50.0355 25.7097 51.7081 28.1971 52.3914 31.1432L52.729 32.5984L51.8745 33.7446C48.7762 37.9002 47.283 45.0829 47.1338 56.5469C47.0625 62.0318 47.1228 63.5222 47.5765 67.4772C47.8126 69.5365 49.1017 71.0568 51.1282 71.6669C52.4291 72.0582 60.4659 72.09 61.7386 71.7087C62.2159 71.5656 63.0885 71.0152 63.6776 70.4856C65.3688 68.9653 65.5821 67.8871 65.7715 59.9076C65.9307 53.1919 65.6103 48.7218 64.5338 42.6399C63.9493 39.3376 62.4546 35.5795 60.9443 33.6153L60.1319 32.5588L60.8008 30.4811C61.1688 29.3383 61.7178 27.9801 62.0208 27.463C62.8798 25.9974 64.6926 24.4158 66.1305 23.8779C66.8237 23.6185 67.4318 23.4063 67.4819 23.4063C67.6177 23.4063 67.9925 24.798 68.4763 27.1001C68.9036 29.1321 69.9387 31.3666 72.8835 36.614L73.7279 38.1187L73.0946 39.1296C72.7463 39.6856 71.7733 41.3711 70.9327 42.875L69.4038 45.6094L69.5727 47.5781C69.6657 48.661 69.8114 51.1219 69.8965 53.0469C69.9818 54.9719 70.0863 56.5852 70.129 56.632C70.2793 56.7974 71.7652 55.5216 74.8573 52.5726C76.5769 50.9325 78.5992 49.0464 79.3511 48.3814L80.7182 47.1724V45.2209C80.7182 43.3307 80.739 43.25 81.3804 42.6508C81.7446 42.3104 82.3341 41.9681 82.6907 41.8898C83.564 41.6981 86.3268 39.8508 87.31 38.8015C88.3631 37.6773 89.1648 36.355 89.8629 34.5894C90.387 33.2645 90.4353 32.879 90.4272 30.0781C90.4194 27.3486 90.3537 26.8192 89.8235 25.2081C88.9319 22.4987 88.1013 20.7802 86.5451 18.4245C84.1183 14.7512 81.1835 12.1393 77.8135 10.6538C76.3765 10.0203 76.032 9.9573 73.9958 9.95534C71.7582 9.95315 71.7578 9.95337 71.0427 10.6689C70.3639 11.3481 70.3283 11.4649 70.3392 12.9658C70.3523 14.7718 71.2446 18.1646 72.6781 21.8595C73.6351 24.3261 74.4185 27.0955 74.2406 27.3834C74.0634 27.6699 73.4188 27.5912 72.8857 27.2176C72.3325 26.8301 70.7155 23.7543 69.6747 21.1094C68.9985 19.3911 68.9712 19.3581 68.1716 19.2909C63.8924 18.9315 59.041 22.9624 57.0919 28.497C56.8706 29.1259 56.6223 29.6406 56.5402 29.6406C56.4582 29.6406 56.1605 29.0271 55.8787 28.2772C53.8446 22.8666 49.8986 19.5781 44.9916 19.2043L44.1555 19.1406L43.4402 20.8906C42.5512 23.0652 40.7531 26.6678 40.3011 27.1797C39.8833 27.6526 39.3001 27.6719 38.9291 27.225C38.5699 26.7921 38.7791 25.9488 40.1469 22.3125C41.4522 18.8425 42.3537 15.8445 42.6792 13.8906C42.99 12.0245 42.6533 10.9776 41.5204 10.287C40.6529 9.7578 38.3606 9.70268 36.6401 10.1691ZM24.3398 47.8413C23.5342 47.9971 22.9099 48.983 23.0328 49.9052C23.1824 51.0276 24.8725 54.6705 26.3749 57.1082C27.8394 59.4852 30.8752 62.6717 32.9214 63.98C35.8813 65.8727 39.6729 67.1449 42.3782 67.1534L43.3037 67.1563L43.2033 66.2266C43.1482 65.7154 43.0458 64.74 42.9756 64.0592L42.848 62.8215L41.3857 62.5669C35.4088 61.5261 31.4862 58.1974 28.1456 51.3315C26.433 47.8118 26.0955 47.5022 24.3398 47.8413ZM86.9353 47.9894C86.5543 48.1602 86.1106 48.6113 85.9138 49.0285C85.7224 49.4338 85.2116 50.5448 84.7787 51.4973C82.4387 56.6436 78.3319 60.6513 74.0464 61.9704C73.4448 62.1554 72.3012 62.4223 71.5051 62.5634L70.0577 62.8198L69.9192 64.1452C69.8431 64.8741 69.7807 65.8643 69.7807 66.3458V67.221L71.4761 67.0898C76.5305 66.6982 81.9058 63.4806 85.6178 58.625C87.3413 56.3704 89.7338 51.5139 89.8554 50.0227C89.935 49.0444 89.8766 48.8244 89.424 48.4017C88.7468 47.7698 87.7823 47.6099 86.9353 47.9894ZM20.9188 59.9434C20.5826 60.3431 20.3433 60.895 20.3433 61.2712C20.3433 62.3724 22.0335 64.7645 24.7837 67.5546C26.9412 69.7436 28.2808 70.8006 30.3124 71.9174C33.8062 73.838 36.9628 74.5938 41.4896 74.5938C43.1125 74.5938 44.3786 74.6795 44.3134 74.785C44.0789 75.1645 41.8516 76.0767 40.0439 76.5334C37.7564 77.1116 36.137 77.1179 33.4897 76.559C30.9629 76.0257 30.3677 76.0181 29.76 76.51C29.111 77.0355 28.9121 78.5503 29.3954 79.2877C29.8843 80.0341 30.7124 80.4237 32.9706 80.9699C35.6709 81.6229 38.8224 81.5935 41.4526 80.8909L43.4214 80.3651L43.5968 79.1746C43.9175 77 44.4055 75.1536 44.9612 74.0139L45.5104 72.8869L44.6847 71.6914L43.8589 70.4957L41.2339 70.3848C34.553 70.1024 29.6244 67.3374 24.9186 61.2319C23.5374 59.4399 23.4727 59.3889 22.4969 59.3252C21.6039 59.2668 21.4311 59.3344 20.9188 59.9434ZM89.4477 59.5484C89.2558 59.7022 88.3141 60.8125 87.3551 62.0156C82.8548 67.6616 78.405 69.9814 71.312 70.3789L69.0151 70.5077L68.1795 71.7835C67.2739 73.1662 67.2566 73.7161 68.1021 74.2488C69.2835 74.9928 73.9449 74.8285 77.6557 73.9121C83.0748 72.5738 88.0328 68.8002 91.9526 63.0302C92.8768 61.6698 92.9573 60.8598 92.2501 60.0375C91.6678 59.3607 90.0363 59.0759 89.4477 59.5484ZM68.5645 75.4865C68.6561 75.7776 68.9064 76.9344 69.121 78.0572C69.3354 79.1801 69.6057 80.1938 69.7217 80.3097C69.8376 80.4256 70.8581 80.7113 71.9895 80.9447C75.5459 81.6786 79.581 81.4369 82.4943 80.3156C83.9824 79.7429 84.516 77.6766 83.4345 76.6743C82.6739 75.9693 82.1902 75.9312 80.3901 76.4343C79.2511 76.7528 78.1866 76.8609 76.2339 76.8565C73.8018 76.851 73.4481 76.794 71.4214 76.0828C70.2182 75.6606 69.0457 75.2347 68.8158 75.1363C68.4503 74.9799 68.4188 75.0236 68.5645 75.4865ZM49.1747 75.8516C47.1314 78.0356 46.3942 83.6111 47.591 87.8281C47.8983 88.911 48.1687 89.9798 48.1919 90.2031C48.224 90.5144 47.5601 90.9751 45.354 92.1719C42.2034 93.8814 41.562 94.3567 41.562 94.983C41.562 96.0238 42.3049 98.4933 42.8787 99.3593C44.0483 101.126 45.5426 101.648 50.2081 101.923C52.0298 102.031 53.5154 102.22 53.6919 102.366C54.2508 102.83 64.9497 102.078 67.219 101.415C69.6036 100.719 71.1525 98.5338 71.1856 95.82L71.2026 94.4055L70.1447 93.709C69.5629 93.3258 68.0572 92.4858 66.7992 91.8422C64.863 90.8517 64.529 90.6047 64.6244 90.2344C64.6865 89.9938 64.9809 88.911 65.2789 87.8281C66.2641 84.2476 65.936 79.8965 64.473 77.14C64.0836 76.4061 63.5026 75.6604 63.1817 75.4823C62.6607 75.1934 62.4703 75.199 61.4002 75.5364C59.7637 76.0522 53.0289 76.0883 51.595 75.5889C50.2466 75.1194 49.8161 75.166 49.1747 75.8516ZM53.6092 79.3264C53.0402 80.0494 53.0433 80.1561 53.6479 80.7378C54.4212 81.4818 56.4363 82.3233 57.6944 82.4276C59.568 82.5832 60.0335 81.7795 58.8505 80.4322C58.3602 79.874 57.8114 79.5776 56.6083 79.2208C54.5566 78.6126 54.1594 78.6266 53.6092 79.3264ZM53.6928 85.412C53.3975 85.7074 53.1557 86.0838 53.1557 86.2488C53.1557 86.758 54.0997 87.4696 55.5738 88.072C57.7418 88.9578 59.0563 88.8191 59.3562 87.673C59.536 86.9849 58.3285 85.9611 56.6363 85.3672C54.8519 84.7409 54.3562 84.7484 53.6928 85.412Z" fill="#DDDDDD"/>
</svg>
