<svg width="113" height="112" viewBox="0 0 113 112" fill="none" xmlns="http://www.w3.org/2000/svg">
<path fill-rule="evenodd" clip-rule="evenodd" d="M52.2655 7.36224C43.7854 8.37068 37.4968 10.8447 31.1561 15.6677C27.1921 18.6828 24.2648 21.8236 21.4852 26.0439C17.5184 32.0663 15.4219 38.148 15.0465 44.7206L14.9067 47.168L13.4686 47.9135C9.30189 50.0738 6.53339 54.4963 6.2838 59.3906C6.07248 63.5327 7.30733 66.7282 10.2585 69.678C12.234 71.6524 14.2513 72.7912 16.8999 73.4269C18.3879 73.7839 18.4264 73.8106 18.5528 74.5758C18.6241 75.0068 18.6836 75.7649 18.6849 76.2604C18.6889 77.7602 19.3233 80.9301 20.0368 83.0156C22.3072 89.6529 26.8312 95.1512 33.0726 98.8593C36.2886 100.77 41.7895 102.558 46.9061 103.355C50.0108 103.84 58.0943 104.036 61.453 103.709C71.6795 102.714 79.3918 99.3674 84.9202 93.5272C89.5577 88.6279 92.0458 82.8881 92.524 75.9859L92.6778 73.7686L93.7997 73.5427C97.966 72.7044 101.557 70.0175 103.358 66.3906C106.799 59.4593 104.187 51.3023 97.3673 47.6844L96.4138 47.1787L96.1613 44.0972C95.7372 38.9176 94.454 34.6087 91.8264 29.5393C85.3203 16.9877 73.4385 8.89678 59.3748 7.44143C57.3956 7.23646 53.6716 7.19512 52.2655 7.36224ZM60.5471 20.8064C60.1691 20.9129 58.9474 21.5994 57.8322 22.3317C55.5329 23.8413 55.6882 23.8418 53.4581 22.3217C51.6136 21.0643 50.9554 20.7812 49.8776 20.7812C49.0857 20.7812 48.7375 20.9153 48.1199 21.4574C46.9894 22.4501 46.8744 23.1785 46.9494 28.8704C47.0109 33.5247 47.0472 33.9185 47.4672 34.4923C48.6038 36.0454 50.6452 36.2265 52.0526 34.8992L52.8123 34.1827V31.8752C52.8123 30.2571 52.892 29.5411 53.0786 29.479C53.2249 29.4302 53.8166 29.5897 54.3935 29.8333C55.4316 30.2719 55.4548 30.2722 56.6615 29.862C58.4648 29.2491 58.5851 29.3891 58.7186 32.2532C58.8179 34.3838 58.8754 34.6399 59.3409 35.0166C61.0203 36.3762 63.434 35.7871 64.1727 33.8373C64.3135 33.4655 64.4061 31.2104 64.4061 28.1463C64.4061 23.6143 64.3625 22.9897 63.9985 22.309C63.343 21.0829 61.8587 20.4367 60.5471 20.8064ZM53.0311 44.982C46.48 45.4011 44.2192 45.7069 39.3592 46.8315C36.5662 47.4779 27.394 50.4219 26.1183 51.0814L25.4686 51.4174V63.3106C25.4686 70.1214 25.5677 76.1716 25.7005 77.469C26.4024 84.3231 30.7459 90.3453 37.3905 93.6773C42.8597 96.4195 50.8294 97.6951 58.9953 97.1344C69.1501 96.4373 75.1981 94.0918 80.0745 88.9593C82.1778 86.7455 83.0703 85.4057 84.2058 82.7573C85.5581 79.6033 85.5933 79.1569 85.6478 64.5601C85.6915 52.7975 85.6598 51.3338 85.3562 51.1639C84.8487 50.8799 79.0221 48.8128 76.9971 48.1983C74.3351 47.3904 69.3667 46.2199 67.0311 45.8504C62.9582 45.2058 56.1413 44.7829 53.0311 44.982ZM65.8982 50.192C64.5172 50.5479 63.4624 51.3993 62.8425 52.6582C62.3601 53.6377 62.3234 53.9934 62.2547 58.3367C62.1722 63.5482 62.3553 64.9254 63.3049 66.2362C65.0405 68.6322 69.1002 68.7164 70.8721 66.393C71.9376 64.9961 72.0424 64.3543 72.0516 59.1719C72.0562 56.422 71.9604 54.0011 71.8278 53.5235C71.7001 53.0639 71.2398 52.2939 70.805 51.8125C69.4144 50.2733 67.7344 49.7184 65.8982 50.192ZM42.3189 50.3372C41.2582 50.7605 40.2885 51.7005 39.7753 52.8025C39.2743 53.8786 39.254 54.1152 39.252 58.9278C39.2496 64.3816 39.3651 65.1343 40.3957 66.3847C41.4393 67.6508 42.5344 68.0899 44.4115 67.9952C45.7522 67.9276 46.1505 67.8114 46.935 67.2602C47.4967 66.8653 48.0884 66.1745 48.4253 65.5202C48.965 64.4724 48.9868 64.2733 49.0599 59.7253C49.1494 54.1555 48.9827 53.0814 47.8301 51.8057C46.7212 50.5783 45.6579 50.0909 44.1258 50.1075C43.4291 50.1152 42.616 50.2184 42.3189 50.3372ZM17.1727 53.3148C13.6719 55.1062 12.0962 58.6978 13.207 62.3551C13.6169 63.705 13.8757 64.1294 14.9305 65.1833C16.0516 66.3033 18.0528 67.4264 18.3671 67.1118C18.4264 67.0528 18.4487 63.7875 18.417 59.8561L18.3592 52.7076L17.1727 53.3148ZM92.6248 59.9417V67.1646L93.2264 67.0252C94.8961 66.6383 96.8819 64.8764 97.7333 63.0267C98.4687 61.4287 98.3965 58.7212 97.5707 56.9303C96.853 55.3737 95.6057 54.1111 93.9642 53.2794C93.3559 52.971 92.8057 52.7187 92.7414 52.7187C92.6773 52.7187 92.6248 55.9692 92.6248 59.9417ZM51.9522 68.1369C50.239 68.551 46.9743 70.2708 45.3346 71.6236C44.0481 72.6847 42.1756 74.7001 40.4462 76.8852C39.8737 77.6083 39.7223 77.6904 39.3389 77.4852C39.0945 77.3544 38.4663 76.4516 37.9428 75.4788C36.8827 73.5094 36.0845 72.847 34.5835 72.6913C33.486 72.5775 31.9653 73.2845 31.2784 74.2278C30.5926 75.1695 30.6525 77.5887 31.4011 79.1875C32.9249 82.4421 36.5222 85.2622 40.855 86.5988C41.678 86.8525 43.4818 87.178 44.8636 87.3222C47.9174 87.6404 51.2605 87.3383 53.8958 86.5058L55.6222 85.9604L57.225 86.4955C62.8971 88.3886 70.7695 87.4169 75.4306 84.2485C77.9484 82.537 80.2972 79.1521 80.5297 76.9003C80.8093 74.1904 78.5649 72.1532 76.0466 72.8311C74.7853 73.1708 74.1774 73.747 73.4302 75.311C72.6739 76.8946 72.2113 77.4375 71.6187 77.4375C71.361 77.4375 70.5256 76.606 69.3938 75.2229C66.393 71.5564 62.9475 69.1357 59.4604 68.2439C57.4791 67.7372 53.8216 67.685 51.9522 68.1369Z" fill="#DDDDDD"/>
</svg>
