<svg width="113" height="112" viewBox="0 0 113 112" fill="none" xmlns="http://www.w3.org/2000/svg">
<path fill-rule="evenodd" clip-rule="evenodd" d="M47.8644 11.0331C47.0441 11.3901 46.3229 12.3108 45.3687 14.2188C44.9775 15.0008 43.5539 17.6586 42.2051 20.125C40.8563 22.5914 39.3305 25.3938 38.8145 26.3526C35.9786 31.6223 35.5155 32.3446 34.8895 32.4737C34.5808 32.5373 33.1244 32.7351 31.6526 32.9131C29.9604 33.1181 28.6612 33.3981 28.1183 33.675C26.8913 34.3011 26.7331 34.6454 21.4313 48.2344C20.6333 50.2797 19.8926 52.15 19.7852 52.3906C19.5186 52.9876 11.7949 72.485 9.60327 78.0938C9.15659 79.2367 8.31506 81.4266 7.73318 82.9601L6.67509 85.7483L6.61099 94.0069L6.54712 102.266L7.09399 103.337C7.42409 103.984 7.98037 104.634 8.49706 104.976L9.35346 105.543L55.5558 105.616C88.6354 105.667 102.012 105.619 102.651 105.448C103.701 105.164 104.742 104.345 105.266 103.388C105.598 102.781 105.649 101.731 105.711 94.1522L105.781 85.6015L105.023 83.6522C104.605 82.5803 103.969 80.8664 103.608 79.8438C103.247 78.8211 102.442 76.6063 101.818 74.9219C100.484 71.3182 97.4985 63.289 96.4507 60.4844C96.046 59.4016 95.1756 57.0391 94.5163 55.2344C93.857 53.4297 92.6832 50.2305 91.9081 48.125C91.1329 46.0195 90.0232 42.968 89.4417 41.3438C88.0142 37.3551 87.0239 36.4359 84.5739 36.8253C83.6742 36.9681 83.2684 37.3608 81.0315 40.2522C80.2494 41.263 79.1666 42.6493 78.6252 43.3331C78.0838 44.0167 76.3202 46.3096 74.7063 48.4286C73.0924 50.5477 71.7073 52.2813 71.6285 52.2813C71.5495 52.2813 70.0712 49.4021 68.3431 45.8828C65.4694 40.0302 64.2109 37.4246 61.2385 31.1719C60.6667 29.9688 59.7068 27.9508 59.1055 26.6875C58.5044 25.4242 57.7394 23.8 57.4058 23.0781C52.5106 12.4876 52.1755 11.8392 51.2699 11.2109C50.448 10.6407 48.9461 10.5621 47.8644 11.0331ZM56.7868 61.8592C54.403 65.8628 51.0527 71.3598 48.1586 76.0156C47.3978 77.2395 42.2049 85.7303 39.2297 90.6152C38.9175 91.1275 37.7074 93.1094 36.5406 95.0193C35.3738 96.9292 34.4555 98.5281 34.4999 98.5725C34.5904 98.663 95.0665 98.695 95.1546 98.6046C95.1855 98.5729 93.9817 96.332 92.4793 93.625C90.9767 90.918 88.6586 86.7097 87.3277 84.2734C85.3557 80.6632 84.8226 79.8446 84.4464 79.8481C84.1924 79.8505 83.3224 79.9481 82.5128 80.0653C79.7196 80.4692 74.8942 80.9557 74.724 80.8507C74.6302 80.7927 74.1417 80.0551 73.6386 79.2113C73.1355 78.3678 71.9006 76.4179 70.8944 74.8779C69.8881 73.3381 67.9986 70.4047 66.6953 68.3594C63.7574 63.749 60.1542 58.2033 59.7716 57.703C59.5183 57.3718 59.1687 57.8583 56.7868 61.8592ZM27.5451 78.1484C26.8436 79.6224 24.2807 84.8415 21.8502 89.7468L17.431 98.6652L21.7179 98.6062L26.0045 98.5469L30.3185 91.6563L34.6324 84.7656L33.9574 83.5625C33.2167 82.2423 28.964 75.4688 28.8758 75.4688C28.8456 75.4688 28.2469 76.6745 27.5451 78.1484Z" fill="#DDDDDD"/>
</svg>
