<svg width="113" height="112" viewBox="0 0 113 112" fill="none" xmlns="http://www.w3.org/2000/svg">
<path fill-rule="evenodd" clip-rule="evenodd" d="M56.3725 13.8738C55.8982 14.0509 55.2584 14.3806 54.9506 14.6059C54.1666 15.1804 53.0221 16.9319 52.725 18.0125C52.5397 18.6863 52.5148 26.0196 52.6292 46.3203C52.7141 61.3895 52.6999 73.7187 52.5979 73.7187C52.4958 73.7187 51.43 73.4565 50.2297 73.1355C48.2925 72.618 47.6297 72.5504 44.3285 72.534C41.1011 72.518 40.3692 72.5815 38.7876 73.0137C30.4849 75.2839 25.0805 82.3729 26.0146 89.7682C26.3232 92.2121 26.8605 93.6097 28.3911 95.9488C31.0312 99.9838 35.3097 102.648 40.6446 103.578C50.7068 105.333 60.4952 99.9775 62.7936 91.46C63.2178 89.8879 63.2587 89.0573 63.3401 80.3724C63.3884 75.2091 63.4372 62.5049 63.4486 52.1414C63.4685 33.8988 63.4825 33.2819 63.8894 32.7821C64.2879 32.2921 64.431 32.2676 66.6784 32.3032C67.9813 32.3238 69.7921 32.4879 70.7023 32.6677C75.8543 33.6857 81.4088 37.2772 83.6714 41.0534C86.1443 45.181 85.6042 50.5181 82.2547 55.0519C81.1969 56.4839 81.1428 57.3011 82.046 58.2043C82.8738 59.0319 83.7046 59.0332 84.8434 58.2083C86.806 56.7864 89.9425 52.5536 91.5855 49.1094C93.3029 45.5096 93.5488 44.3522 93.5387 39.9219C93.5304 36.3074 93.5101 36.1449 92.8182 34.125C90.9433 28.6534 86.852 24.0804 80.3129 20.1473C77.9919 18.7514 73.1252 16.6823 69.7711 15.6658C64.1481 13.9613 58.2493 13.1724 56.3725 13.8738Z" fill="#DDDDDD"/>
</svg>
