<svg width="112" height="112" viewBox="0 0 112 112" fill="none" xmlns="http://www.w3.org/2000/svg">
<path fill-rule="evenodd" clip-rule="evenodd" d="M60.5819 27.5389C59.6614 28.1378 58.6389 28.9778 54.1782 32.8C53.133 33.6954 52.3525 34.5008 52.4437 34.5898C52.5347 34.6789 53.9787 35.3458 55.6525 36.0721C58.946 37.501 59.8556 38.169 60.0711 39.3179C60.364 40.8789 58.9159 42.6562 57.3511 42.6562C56.5004 42.6562 54.7194 41.9825 50.9822 40.2472L48.0429 38.8822L47.33 39.2661C46.9378 39.4774 46.4108 39.8696 46.1588 40.1378L45.7007 40.6254L46.2019 40.9371C46.4775 41.1084 48.1796 41.9215 49.9843 42.7435C51.789 43.5658 53.4377 44.4349 53.6484 44.6747C54.2127 45.3178 54.1699 47.2334 53.5744 47.9905C52.9965 48.725 52.0508 49.2188 51.2211 49.2188C50.8667 49.2188 49.3116 48.6658 47.7651 47.9898C45.303 46.9138 41.6635 45.3418 41.3419 45.2156C41.1761 45.1504 39.1562 46.8764 39.1562 47.0831C39.1562 47.1809 39.427 47.3622 39.7577 47.486C42.0382 48.34 46.4031 50.4238 46.803 50.8493C47.5369 51.6305 47.6187 52.8828 46.9953 53.7924C46.2336 54.9036 45.4505 55.3976 44.4725 55.3842C43.6611 55.3731 40.3624 54.0617 36.3579 52.1588C34.5644 51.3065 34.6274 51.2967 32.7031 52.7299C30.5046 54.3672 29.0294 54.8356 24.4999 55.3332C19.3902 55.8946 17.0699 56.4012 14.9826 57.4112C11.5637 59.0651 9.17979 61.9609 8.22079 65.625C7.71919 67.541 7.88391 71.9099 8.52835 73.7888C9.97166 77.9951 13.3894 81.037 18.9218 83.0386L20.6718 83.6719L58.8437 83.7371C88.1459 83.7872 97.315 83.7406 98.3042 83.5365C100.524 83.0791 102.334 81.2752 102.778 79.0788C102.91 78.4284 103.008 73.1588 103.021 66.0918C103.041 54.7899 103.022 54.2062 102.654 54.3443C102.107 54.5488 93.9968 58.9573 86.6249 63.0569C79.3298 67.114 70.9379 71.3766 66.6093 73.2239C60.0781 76.0115 56.6704 76.6557 53.5528 75.6927C51.1159 74.94 49.7106 73.7702 48.5548 71.5312C47.9151 70.2925 47.7156 67.342 48.1361 65.3395C48.6539 62.8729 50.3323 59.3053 52.0482 57.0244C52.9114 55.8771 55.1796 53.375 55.3568 53.375C55.4097 53.375 55.453 54.8761 55.453 56.7109C55.453 59.7124 55.5003 60.1346 55.9251 60.9219C57.0221 62.9547 58.8721 63.9487 61.578 63.959C62.5405 63.9627 64.1155 63.7912 65.078 63.5777C67.1411 63.1201 72.8312 61.411 74.703 60.6867C75.4249 60.4074 77.246 59.7255 78.7499 59.1717C80.2538 58.6176 84.2405 57.0461 87.6093 55.6789C90.978 54.3119 94.7679 52.7842 96.0311 52.2839C97.2944 51.7838 99.3997 50.8677 100.71 50.2482L103.091 49.1218L102.963 45.2876C102.892 43.1786 102.692 40.8133 102.517 40.0312C101.436 35.1866 98.9639 30.7676 96.6874 29.6076C94.4841 28.485 92.1573 29.2278 91.1021 31.3906C90.5357 32.5518 90.324 33.4784 89.7812 37.1744C89.5894 38.4797 89.2127 39.9888 88.9152 40.6444C87.6193 43.4984 84.8274 44.8372 80.1718 44.8372C75.1978 44.8372 71.7503 43.0692 70.076 39.6596C69.5784 38.6461 69.453 38.094 69.453 36.9173V35.4441L70.5818 34.4566C72.0015 33.2148 72.7236 31.8056 72.561 30.5944C72.388 29.3046 71.4889 28.0967 70.225 27.4564C69.1894 26.9316 68.9646 26.9062 65.3469 26.9062H61.5544L60.5819 27.5389Z" fill="#DDDDDD"/>
</svg>
