<svg width="112" height="112" viewBox="0 0 112 112" fill="none" xmlns="http://www.w3.org/2000/svg">
<path fill-rule="evenodd" clip-rule="evenodd" d="M81.9214 9.26646C81.0873 9.65693 79.9113 10.7341 76.9675 13.8033C74.8446 16.0169 73.0346 17.899 72.9456 17.9856C72.8564 18.0722 73.412 18.7491 74.1805 19.4895C74.9489 20.23 77.4971 22.7248 79.8432 25.0335C84.0295 29.153 92.2709 37.0097 93.0212 37.5963C93.3639 37.8643 93.7783 37.5123 97.1415 34.0957C101.482 29.6863 102.003 28.8656 101.988 26.4628C101.972 23.8245 101.819 23.6191 94.4382 16.3352C89.5293 11.4903 87.5461 9.67509 86.7339 9.28265C85.2566 8.56909 83.424 8.56274 81.9214 9.26646ZM62.6523 28.504C57.6497 33.5696 54.7349 36.5634 47.2705 44.303C45.4172 46.2247 41.1816 50.5531 37.8579 53.9219C32.4088 59.4447 20.0033 72.1884 15.7117 76.6719C14.3758 78.0675 14.0069 78.5991 13.8904 79.2969C13.8101 79.7781 13.4605 81.6976 13.1138 83.5625C11.2059 93.823 10.2808 99.2221 10.2808 100.096C10.2808 101.965 11.3662 103.433 13.0915 103.897C14.0934 104.167 14.0717 104.173 24.4995 100.774C28.7706 99.3821 32.7081 98.1312 33.2495 97.9943C34.7659 97.6111 35.8627 96.8697 37.5024 95.1199C39.6759 92.8005 45.0865 87.2476 52.4931 79.7344C57.5371 74.618 71.4992 60.2658 72.7308 58.9315C72.8529 58.7991 76.5948 54.9754 81.0464 50.4339C85.4979 45.8924 89.1685 42.056 89.2033 41.9081C89.2556 41.687 87.6824 40.159 84.7397 37.5732C84.2788 37.168 84.2605 37.1829 80.3658 41.169C69.7239 52.0605 67.2152 54.6346 63.9935 57.9687C56.3821 65.8455 51.8901 70.4301 44.6612 77.6996L37.1133 85.2897L36.5292 84.8739C35.1585 83.8978 35.1137 84.0057 38.195 80.8692C39.7536 79.2826 43.6379 75.3266 46.8264 72.0781C50.0152 68.8297 55.2846 63.4648 58.5366 60.1562C61.7885 56.8477 65.9671 52.5656 67.8223 50.6406C69.6775 48.7156 73.5017 44.8085 76.3205 41.9584L81.4458 36.7762L81.5414 35.6147L81.6372 34.4531L79.5917 32.4386C78.4669 31.3307 77.3495 30.2754 77.1089 30.0939C76.3953 29.5557 75.2046 29.671 74.2432 30.3717C73.774 30.7134 70.6374 33.8389 67.2728 37.317C63.9084 40.7949 56.7691 48.1195 51.4075 53.5937C46.0462 59.068 38.6677 66.6266 35.0113 70.3911L28.3628 77.2352L27.5224 76.4144C27.06 75.9629 26.7076 75.5234 26.7391 75.4377C26.7892 75.3016 31.3011 70.6602 46.0416 55.5817C48.0895 53.4868 54.2956 47.1868 59.8331 41.5817C65.3705 35.9767 70.6369 30.6169 71.5362 29.6715L73.1714 27.9523L71.312 26.2023C70.2893 25.24 69.0995 24.1723 68.668 23.83L67.8835 23.2074L62.6523 28.504ZM18.1529 82.3627C17.8834 82.6875 17.0712 86.5434 16.1724 91.765L15.7206 94.3891L16.446 95.006C18.1599 96.4637 18.7597 97.041 18.9756 97.4411C19.1983 97.8539 19.2869 97.8412 21.9029 97.0248C26.4733 95.5981 30.2345 94.3213 30.4215 94.1329C30.5195 94.0341 30.4972 93.1875 30.3716 92.2517C30.1975 90.9521 30.2067 90.4743 30.4108 90.2282C30.7363 89.836 30.7284 89.836 29.6401 90.228C27.1984 91.1078 25.1558 90.1143 25.1558 88.0469C25.1558 86.655 24.6973 86.1875 23.3327 86.1875C21.5669 86.1875 20.5806 85.3619 20.569 83.874C20.564 83.2309 20.4209 82.85 20.0558 82.5068C19.4683 81.9549 18.5491 81.8853 18.1529 82.3627Z" fill="#DDDDDD"/>
</svg>
