<svg width="113" height="112" viewBox="0 0 113 112" fill="none" xmlns="http://www.w3.org/2000/svg">
<path fill-rule="evenodd" clip-rule="evenodd" d="M56.5062 102.142C56.8196 101.481 57.561 99.9205 58.1541 98.6731C61.4702 91.6972 62.3956 89.7737 65.5189 83.3638C66.6332 81.0768 68.0347 78.1851 68.6333 76.9377C70.4279 73.1973 72.157 69.6433 78.7947 56.0527C79.8864 53.8178 81.9644 49.5227 83.413 46.508C84.8615 43.4934 86.4196 40.325 86.8757 39.4669L87.7047 37.9069L87.1923 37.6419C86.4669 37.2667 82.3428 35.6195 79.883 34.7225C75.1376 32.992 69.3067 31.6431 64.1011 31.0715C61.1895 30.7517 50.4647 30.7487 47.8468 31.0668C43.0371 31.6512 37.606 32.8695 33.2194 34.3479C31.2311 35.0181 24.43 37.6366 24.275 37.7918C24.2444 37.8224 24.3922 38.18 24.6035 38.5867C24.8148 38.9933 25.7402 40.8994 26.6599 42.8225C27.5796 44.7456 29.0769 47.85 29.9873 49.7211C30.8975 51.5923 32.3436 54.5691 33.2009 56.3362C35.5121 61.1012 37.7648 65.7411 39.6242 69.5665C40.5337 71.4377 41.6827 73.8191 42.1775 74.8586C42.6723 75.8981 43.8617 78.3646 44.8207 80.3397C45.7797 82.3148 46.8855 84.6112 47.2781 85.4428C47.6707 86.2745 49.0716 89.1662 50.3912 91.869C51.711 94.5717 53.4345 98.1864 54.2214 99.9016C55.0082 101.617 55.716 103.093 55.7942 103.181C55.8725 103.269 56.1928 102.802 56.5062 102.142ZM52.0994 84.2648C53.2017 83.9888 54.0675 82.6734 54.3716 80.8122C54.6521 79.095 56.8247 77.9832 59.4078 78.2354C60.0659 78.2994 61.1763 78.4066 61.8752 78.4731C63.5498 78.6328 64.1535 78.379 64.6785 77.2943C64.9995 76.6311 65.0554 76.2752 64.9543 75.5398C64.706 73.7333 63.6173 73.2617 59.6 73.2203C55.7767 73.1808 53.7058 73.8403 51.8187 75.6976C50.0973 77.392 48.9975 80.0978 49.2218 82.0875C49.3277 83.0266 49.8873 83.7478 50.8176 84.1442C51.453 84.4148 51.487 84.4181 52.0994 84.2648ZM49.9748 61.4276C53.757 60.5112 56.541 57.001 56.541 53.1489C56.541 50.7117 55.8356 48.9778 54.0815 47.1025C52.7861 45.7176 51.4867 45.0096 49.4675 44.5885C47.1284 44.1009 44.4929 44.7908 42.5816 46.3912C37.0874 50.991 39.0956 59.623 46.0785 61.4235C47.4669 61.7814 48.5102 61.7826 49.9748 61.4276ZM70.6702 52.665C72.6929 51.7225 73.7152 50.2919 73.8859 48.166C74.1083 45.3965 71.952 42.9089 69.012 42.5426C67.0088 42.2931 64.7628 43.5978 63.8371 45.5487C63.3825 46.5067 63.2355 48.2767 63.5249 49.31C63.8577 50.4987 64.9715 51.8604 66.0857 52.4407C67.3686 53.1088 69.4946 53.2128 70.6702 52.665ZM90.5617 32.2505C93.2688 31.424 95.5196 28.7895 95.8594 26.0495C96.3512 22.085 93.6664 18.6349 89.2691 17.5803C88.5062 17.3973 86.7627 16.7849 85.3945 16.2194C74.1284 11.5628 60.7947 9.62358 48.6028 10.8687C39.8083 11.7669 32.7796 13.5133 26.0496 16.4723C25.2236 16.8354 23.7413 17.3421 22.7554 17.5982C21.7696 17.8543 20.5432 18.2926 20.0298 18.572C18.6663 19.314 17.3437 20.7115 16.6272 22.167C16.066 23.3069 16.0003 23.6095 16.0001 25.0516C15.9995 28.038 17.3123 30.2312 19.8864 31.5437C22.3043 32.7767 23.3342 32.7144 27.3399 31.0929C37.1471 27.1231 48.2675 25.2032 58.9377 25.6375C67.9935 26.006 75.6323 27.674 85.6309 31.466C88.1959 32.4386 89.3462 32.6216 90.5617 32.2505Z" fill="#DDDDDD"/>
</svg>
