<svg width="113" height="112" viewBox="0 0 113 112" fill="none" xmlns="http://www.w3.org/2000/svg">
<path fill-rule="evenodd" clip-rule="evenodd" d="M51.7653 19.6164C45.1925 20.4376 41.3959 21.6263 36.9542 24.2541C28.7959 29.0806 23.2876 36.9755 21.2182 46.8083C20.6637 49.4436 20.4141 54.0984 20.8024 54.5663C21.1209 54.95 22.6219 55.6682 25.9281 57.0187C39.8721 62.7145 57.6355 65.8857 75.7184 65.9078C86.4984 65.921 90.0662 65.3242 94.6403 62.7425C101.451 58.8984 104.593 54.9778 104.593 50.3236C104.593 45.9467 101.174 41.6721 94.7963 38.0769C92.9677 37.0462 89.077 35.3496 88.9145 35.5123C88.8786 35.5482 89.1954 36.4072 89.6187 37.4216C90.0417 38.4357 90.6341 40.0682 90.9351 41.0493L91.4822 42.833L93.0198 43.7622C94.8825 44.8877 97.6862 47.4578 98.244 48.5513C98.9409 49.9174 99.0089 50.8366 98.492 51.9043C97.9478 53.0285 95.7839 55.2136 94.0934 56.3458C92.8778 57.16 89.6994 58.8363 88.5448 59.2718C87.9236 59.5063 87.9192 59.5022 88.0413 58.7932C88.3541 56.9774 88.4258 53.0397 88.1918 50.5361C87.3454 41.4846 83.1297 33.1946 76.5963 27.7349C72.8519 24.6056 69.2714 22.5682 65.2184 21.2607C60.8045 19.8369 55.3432 19.1693 51.7653 19.6164ZM17.9685 36.1819C11.5313 38.9386 7.0629 42.5854 5.21118 46.5937C4.70587 47.6875 4.5313 48.424 4.45452 49.7855C4.26946 53.0698 5.54652 55.8582 8.51452 58.6491C11.4738 61.4316 14.4768 63.184 20.8087 65.8232L22.8833 66.6879L23.4337 67.9647C24.2562 69.8727 25.994 72.989 26.9801 74.3238C31.7972 80.8443 39.4893 85.7682 47.3903 87.3889C49.1974 87.7597 53.988 88.228 54.2588 88.0604C54.3433 88.0084 55.3078 87.946 56.4024 87.922C66.7324 87.6949 77.4032 81.5071 82.9549 72.5248C83.5468 71.5673 84.0309 70.7282 84.0309 70.6602C84.0309 70.5922 81.1025 70.5744 77.5231 70.6208C66.6998 70.7612 57.9485 70.1218 49.5778 68.579C35.5776 65.9988 23.1167 61.707 15.7952 56.9432C10.9833 53.8125 9.30027 51.2844 10.4356 48.8919C11.1806 47.3222 13.2323 45.4317 16.034 43.7342C17.2409 43.003 17.2833 42.9437 17.7495 41.3437C18.0122 40.4414 18.612 38.7975 19.0821 37.6908C19.5524 36.5842 19.9372 35.6243 19.9372 35.558C19.9372 35.3649 19.7031 35.439 17.9685 36.1819Z" fill="#DDDDDD"/>
</svg>
