<svg width="112" height="112" viewBox="0 0 112 112" fill="none" xmlns="http://www.w3.org/2000/svg">
<path fill-rule="evenodd" clip-rule="evenodd" d="M51.3568 7.22471C43.6638 8.01431 36.5366 11.4392 31.0251 16.995C26.004 22.0557 22.8872 28.2054 21.4802 35.8258C20.8364 39.3122 20.8407 47.7224 21.4883 51.8877C21.8811 54.415 23.4957 61.3351 24.3223 64.0354C24.9453 66.0706 26.0513 68.6661 26.6163 69.4185C27.4464 70.5242 27.5252 70.7779 28.0295 73.9687C28.5378 77.1862 29.1705 79.1685 30.6088 82.0486L31.6506 84.1347L31.657 89.7421C31.6608 92.8263 31.7866 95.8821 31.9367 96.5332C32.9525 100.939 36.6829 104.681 41.2451 105.869C43.5866 106.479 66.136 106.479 68.5093 105.869C72.3504 104.882 75.2162 102.546 76.946 98.9938L77.9319 96.9692L78.1219 88.3308C78.2264 83.5797 78.4351 79.0851 78.5857 78.3427C78.7361 77.6003 78.8667 76.0614 78.8754 74.923C78.8962 72.2473 79.0039 71.9989 80.1412 71.9989C80.8498 71.9989 81.3529 71.7333 82.3142 70.8516C85.4459 67.9799 87.5134 62.6911 88.8921 54.0252C90.813 41.9531 88.6059 30.4476 82.6876 21.6786C80.623 18.6198 76.7749 14.8797 73.3879 12.6407C69.5268 10.0881 64.0484 8.0243 59.3203 7.34106C56.4243 6.92264 54.5627 6.89565 51.3568 7.22471ZM61.164 19.2463C61.0739 19.4815 61.3948 21.0761 61.8775 22.7897C62.8868 26.3722 63.1312 29.834 62.4247 30.5415C61.9086 31.0585 61.5409 30.822 60.7586 29.4698C59.8518 27.9028 58.0016 25.3048 57.7894 25.301C57.6901 25.2991 57.5284 25.6622 57.4307 26.1076C57.3329 26.553 57.192 26.9175 57.1181 26.9175C57.0438 26.9175 56.4364 26.3708 55.7683 25.7027C55.1002 25.0346 54.4418 24.4879 54.3049 24.4879C54.1681 24.4879 54.0563 25.0465 54.0563 25.7294C54.0563 26.9933 53.4924 28.5369 52.8296 29.087C52.1699 29.6342 51.4869 29.1068 50.6323 27.3899L49.7925 25.7027L49.2617 26.9213C48.6568 28.3104 48.031 28.9353 47.4636 28.7175C47.0978 28.5771 45.4179 23.8819 45.4179 23C45.4179 22.4126 45.1969 22.493 43.9073 23.5499C42.9736 24.3149 42.3856 25.2395 40.9101 28.2621C39.9002 30.3302 38.9969 32.0279 38.9027 32.0343C38.8085 32.0411 38.5048 31.7126 38.2279 31.3041C37.4599 30.1717 37.5225 26.0752 38.3483 23.447C38.6914 22.3551 38.9133 21.4024 38.8412 21.3306C38.5731 21.0626 36.2086 23.5299 35.0749 25.2605C32.3446 29.4291 31.0329 33.3965 30.0201 40.5499C29.8519 41.7377 29.4818 43.5574 29.1975 44.5937C28.7006 46.407 28.5391 47.7035 28.8107 47.7035C28.882 47.7035 29.542 47.2481 30.2779 46.6912C31.0135 46.1346 32.2885 45.2713 33.1107 44.773C34.4845 43.9404 34.8314 43.8557 37.38 43.7285C40.5567 43.5701 41.8792 43.8406 43.4327 44.966C44.1783 45.5059 44.6011 46.0757 44.8346 46.8556L45.1693 47.9719L47.1156 47.9052C48.1863 47.8685 49.4572 47.9392 49.9396 48.0623C50.8094 48.2845 50.8169 48.278 50.8169 47.3067C50.8169 45.4314 51.7785 44.2625 53.9019 43.5566C56.397 42.7273 59.6739 43.1724 63.298 44.8326C65.2152 45.711 66.3859 46.7463 68.4038 49.3467L69.1189 50.268L70.5634 49.5149C71.3578 49.1008 72.6109 48.2307 73.3482 47.5815L74.6882 46.401L73.7547 44.5551C72.8447 42.7559 72.8169 42.6045 72.6466 38.5253C72.541 35.9948 72.2954 33.701 72.0249 32.7214C71.4585 30.6687 70.0202 27.3262 68.8578 25.3604C67.7087 23.4176 64.5149 20.1412 63.0429 19.3951C61.6842 18.7064 61.3803 18.6824 61.164 19.2463ZM82.7375 47.906C82.4446 48.1659 81.9973 49.1804 81.7438 50.1606C81.4901 51.1411 81.0404 52.3415 80.7439 52.8288L80.2054 53.7145L81.0957 54.6334C81.8065 55.3663 81.9809 55.7612 81.9593 56.5875C81.9209 58.049 80.7831 60.3234 79.4061 61.6906C78.2653 62.8233 78.2283 62.9151 78.0404 65.065C77.8892 66.7951 77.9327 67.4065 78.2407 67.8822C78.7455 68.6618 79.0398 68.6467 80.1719 67.7828C82.3097 66.1524 84.4193 61.1213 85.2165 55.752C85.9216 51.0031 85.7812 49.3111 84.5759 48.041C83.8826 47.3105 83.4456 47.2784 82.7375 47.906ZM56.3487 49.7489C55.6074 50.1314 54.5927 50.8735 54.0933 51.398C53.3115 52.219 53.2068 52.484 53.3401 53.3055C53.6784 55.3903 56.2059 56.8748 59.424 56.8791C62.1186 56.8826 63.4092 56.448 64.7867 55.072C66.2377 53.6232 66.303 52.7993 65.0159 52.1884C63.6964 51.5624 63.0232 51.6453 61.9785 52.5626C59.7422 54.5259 56.6281 52.4589 57.9554 49.8923C58.5042 48.8311 58.1825 48.8025 56.3487 49.7489ZM34.6478 50.1611C33.8463 50.5963 32.4148 51.506 31.4659 52.183L29.7412 53.4137L30.6018 54.4055C31.6238 55.5831 32.3864 56.0287 34.2083 56.5141C36.8266 57.2114 39.5263 56.7174 41.0064 55.2702C41.9882 54.3102 42.3716 52.9098 41.8068 52.3453C41.4807 52.0189 41.2583 52.0645 40.2271 52.669C38.6152 53.6135 37.4213 53.583 36.0102 52.561C35.3942 52.1145 34.8899 51.6364 34.8899 51.4982C34.8899 51.36 35.3456 50.8152 35.9023 50.2875C37.1265 49.127 36.6425 49.0784 34.6478 50.1611ZM73.7382 51.0701C72.9073 51.8551 71.993 52.3974 70.9405 52.7292C69.9052 53.0555 69.3073 53.4067 69.1699 53.7695C67.984 56.9007 67.2211 57.7899 64.7193 58.9593C63.2273 59.6566 62.8442 59.7162 59.8602 59.7162C55.8258 59.7162 54.174 59.1545 52.0158 57.0491C50.5672 55.636 50.0117 54.4185 50.0087 52.6498C50.0063 51.344 48.8992 50.5841 47.2306 50.7426C45.3958 50.917 45.1882 51.2531 44.742 54.7665C44.5312 56.4248 43.0095 58.1881 41.0415 59.0546C38.9116 59.9927 34.8476 60.1185 32.4828 59.3202C30.5346 58.6624 28.6174 57.4473 27.9712 56.4609C27.4 55.5893 27.1635 55.6298 26.9624 56.6342C26.7048 57.9227 27.5266 61.3214 28.8409 64.4028C29.4969 65.9413 30.4639 68.9782 30.9892 71.1515C31.5148 73.3249 32.1367 75.8929 32.3716 76.858C32.895 79.0097 34.6872 82.4945 35.8502 83.6218L36.7121 84.457L36.8886 83.2809C36.9856 82.6338 36.9353 80.942 36.7769 79.5213C36.2958 75.207 36.8025 74.0643 39.8173 72.6638C40.7449 72.2329 41.548 71.8526 41.6019 71.8188C41.6562 71.7848 41.4241 71.1861 41.0861 70.4883C40.3286 68.9234 40.1197 66.9992 40.5572 65.6192C41.1552 63.7333 42.2428 61.4787 42.4831 61.6272C42.6124 61.7071 42.7185 62.6706 42.7185 63.7682C42.7185 66.5333 43.1571 68.3155 44.1605 69.6271C45.5934 71.5006 47.0646 71.5573 49.0479 69.8156C49.5017 69.4174 50.3872 68.9374 51.0153 68.749C52.3678 68.3438 52.8672 67.8422 53.7801 65.9709C54.3268 64.8509 54.593 64.5753 55.1275 64.5753C55.6706 64.5753 55.8539 64.7748 56.119 65.6551C56.7485 67.7442 56.5412 68.9763 55.338 70.298L54.7978 70.8916L55.4392 71.0233C55.7923 71.0957 56.9353 71.2217 57.9795 71.3032C60.4287 71.4949 62.2797 72.1352 62.9919 73.0369C63.4991 73.6793 63.5477 74.0338 63.4594 76.4549C63.3836 78.5338 63.2372 79.3674 62.8253 80.0709C62.2716 81.016 61.4834 81.6755 61.2207 81.4128C61.1381 81.3302 60.943 80.2442 60.7867 78.9992C60.6306 77.7545 60.4557 76.6885 60.3979 76.6307C60.3399 76.5729 57.9079 76.4609 54.9933 76.3818L49.6942 76.2382L49.1249 75.4683C48.4033 74.4921 48.1174 74.4935 48.1174 75.4731C48.1174 76.1569 47.9827 76.2835 46.9701 76.5521C46.339 76.7195 44.8008 76.9773 43.5515 77.125C40.8966 77.4392 40.1877 77.823 39.7361 79.1917C38.9729 81.5038 40.1969 88.0163 41.9842 91.1555C44.0717 94.8214 45.6739 95.7641 50.1472 95.9585C56.4594 96.2325 58.6271 94.8352 61.7709 88.4658C62.4668 87.0553 63.8122 84.7324 64.76 83.3038C66.8359 80.1754 67.7643 77.9893 68.078 75.4907C68.3393 73.4094 68.5612 72.9823 71.0361 69.7956C75.3787 64.2039 76.5311 59.9165 75.5223 53.1025C75.2694 51.3951 75.0424 49.9768 75.0178 49.9508C74.993 49.9249 74.4172 50.4284 73.7382 51.0701ZM53.3814 77.9675C50.5183 78.5916 48.1792 78.6974 44.4418 78.3727C41.8284 78.1456 41.6854 78.161 41.1182 78.7282C40.1072 79.7391 40.4752 80.1732 42.8775 80.8038C46.4178 81.7335 49.1459 81.8483 52.3024 81.2009C56.9693 80.244 58.9154 79.311 58.9154 78.0309C58.9154 77.4378 58.8174 77.3992 57.3632 77.4179C56.5093 77.4289 54.7177 77.6765 53.3814 77.9675ZM52.5716 84.7019C51.9777 84.8247 50.0006 84.9324 48.1779 84.9408L44.8643 84.9564L45.26 85.722C46.4899 88.1 50.4463 89.4457 52.6825 88.2463C53.6292 87.7388 54.9593 86.0797 55.2659 85.0239C55.4249 84.477 55.3531 84.4195 54.5468 84.4476C54.0544 84.4646 53.1655 84.5791 52.5716 84.7019Z" fill="#DDDDDD"/>
</svg>
