<svg width="112" height="112" viewBox="0 0 112 112" fill="none" xmlns="http://www.w3.org/2000/svg">
<path fill-rule="evenodd" clip-rule="evenodd" d="M46.591 4.98204C45.9273 5.64573 45.6247 6.25101 45.049 8.06707L44.3328 10.3268L43.5488 10.1942C43.1177 10.1214 41.7564 9.99776 40.5237 9.91967L38.2824 9.77748L37.7235 8.5527C37.0541 7.08554 35.6541 5.56938 34.4525 5.01048C33.3163 4.48176 32.1126 4.47454 31.6431 4.9932C31.1293 5.56129 30.8908 7.1201 31.0847 8.64501C31.1761 9.36448 31.32 10.6507 31.4043 11.5034L31.5576 13.0537L30.8447 13.5614C30.0263 14.1442 29.4679 15.2928 29.089 17.1719C28.9435 17.8938 28.6876 18.7513 28.52 19.0774C28.097 19.9021 26.6379 20.6981 24.6298 21.1999C22.5821 21.7116 22.0932 22.0938 22.0932 23.1825C22.0932 24.696 22.7389 26.0579 24.0818 27.3764C25.8312 29.0938 27.8294 30.0499 29.8868 30.1538C31.7383 30.2474 32.6212 29.9994 34.5481 28.8442C36.397 27.7358 37.5616 27.685 38.5467 28.6698L39.2163 29.3394L39.0364 31.1308C38.9376 32.1158 38.8501 33.7833 38.8422 34.8359C38.8341 35.8888 38.8103 36.75 38.7893 36.75C38.6729 36.7498 32.4943 38.6595 29.9682 39.4763C26.2326 40.6842 16.8655 43.6737 15.4213 44.1186C12.8974 44.8963 11.8038 46.0633 11.8167 47.9653C11.8244 49.0847 12.5572 50.4521 13.3806 50.8843C14.8438 51.6519 15.6022 51.4671 28.349 47.2391C34.9543 45.0481 40.4507 43.2438 40.5631 43.2294C40.6755 43.2149 41.1765 44.3352 41.6761 45.7188C42.1759 47.1024 42.9374 48.9696 43.3683 49.868L44.1521 51.5016L43.5256 54.4618C42.4352 59.614 42.2182 62.2366 42.2182 70.2605C42.2182 76.6539 42.2623 77.6221 42.5749 78.0682C43.3666 79.1984 45.5521 79.5187 47.1606 78.7402C48.7903 77.9511 48.8332 77.6834 48.754 68.7969L48.6857 61.1406L49.4966 59.7188C49.9427 58.9367 50.3939 58.1648 50.4994 58.0031C50.6516 57.7695 51.0675 57.8907 52.525 58.5929C56.9232 60.7119 64.4948 60.9984 70.296 59.2651C71.1207 59.0188 71.8231 58.8477 71.8568 58.8851C71.9605 59.0004 72.1668 63.1146 72.3247 68.2185L72.4754 73.0881L73.3366 73.8253C74.8683 75.1365 77.0418 75.0225 78.3224 73.5641C78.9642 72.833 78.9681 72.812 78.9681 70.0803C78.9681 66.5225 78.3705 55.1821 78.0936 53.4844C77.9759 52.7625 77.5338 51.4802 77.1114 50.6347C76.6888 49.7893 76.3431 49.0254 76.3431 48.937C76.3431 48.8486 76.8314 47.9975 77.4279 47.0457C78.0245 46.0937 78.8579 44.3231 79.2796 43.1115C80.6565 39.1558 81.1014 33.8008 80.2082 31.9375C79.135 29.6988 76.3291 29.6212 74.7255 31.7857C74.335 32.3127 74.2506 32.839 74.129 35.5044C73.9802 38.7645 73.5661 40.5906 72.5076 42.6563C71.7137 44.205 71.4095 44.5408 71.0616 44.252C70.5051 43.7903 68.3647 43.0463 66.4994 42.6665L64.64 42.2879L62.7306 38.808C61.6803 36.8942 60.8189 35.1997 60.8165 35.0427C60.8139 34.8856 61.2923 33.9997 61.8796 33.0739C66.0801 26.4513 66.8877 25.0001 67.244 23.4327C67.7364 21.2686 68.6646 13.8263 68.833 10.694C68.952 8.48007 68.9192 8.03754 68.5985 7.54842C67.3897 5.70326 64.4991 5.63851 63.2249 7.4281C62.593 8.31557 62.1292 10.7255 60.8344 19.8535L60.454 22.5354L58.7655 24.9942C56.1805 28.7582 56.5948 28.4649 55.451 27.3422C54.5368 26.4449 54.4681 26.2986 54.4681 25.2433C54.4681 24.6197 54.1731 22.9421 53.8126 21.5156C53.2915 19.4543 53.1565 18.4505 53.1554 16.625C53.1517 10.7997 51.4059 5.74482 48.9557 4.46492C48.0214 3.97688 47.4771 4.09588 46.591 4.98204ZM36.1398 17.7492C35.4802 18.1714 34.7807 19.1516 34.7807 19.6532C34.7807 20.1392 35.552 20.0856 36.539 19.5307C37.5378 18.9694 37.655 18.951 38.5418 19.2174C40.7228 19.8726 41.2701 19.7295 40.5845 18.683C39.6811 17.3042 37.5378 16.8538 36.1398 17.7492ZM35.3273 30.4824C33.3319 31.5779 32.0583 31.9382 30.2027 31.9323C28.4271 31.9268 26.7762 31.4044 25.3703 30.4034L24.6477 29.8889L24.7947 30.9678C25.0141 32.5769 26.2011 34.181 27.724 34.9261C29.3023 35.6983 31.6204 35.7293 33.534 35.0037C35.9466 34.0891 37.8723 31.729 37.4676 30.1823C37.3107 29.5824 36.8489 29.6472 35.3273 30.4824ZM100.296 55.5866C96.0976 56.3102 91.6528 57.3283 86.515 58.7429C84.59 59.2729 82.5491 59.8192 81.9797 59.9565L80.9441 60.2064L81.0611 62.4236C81.4426 69.6502 81.5238 72.2908 81.3831 72.9116C81.0156 74.5338 80.0376 75.6823 78.2439 76.5973C75.4826 78.0058 71.7612 76.7323 70.3472 73.8949C69.8032 72.8033 69.7806 72.6068 69.7806 68.9728C69.7806 66.313 69.7074 65.1875 69.5343 65.1875C69.3103 65.1875 61.0136 68.4758 53.9213 71.3757L51.0775 72.5384L50.9657 75.3708C50.8402 78.5534 50.637 79.1427 49.2774 80.269C47.4874 81.7521 44.5531 81.9707 42.261 80.7912C40.8151 80.0472 40.2789 79.3778 39.9467 77.9026L39.6966 76.7929L36.6372 78.1078C31.8275 80.1747 21.6607 85.2919 17.9369 87.5199C12.2168 90.9425 9.37373 93.0062 7.19061 95.3203C2.73949 100.039 4.11586 103.455 10.8275 104.346C12.8788 104.618 18.7885 104.615 21.765 104.34C32.059 103.389 45.6792 100.365 55.89 96.7628C70.636 91.5604 82.3804 85.5343 92.5306 77.9621C95.5297 75.7245 100.104 71.1524 102.3 68.1966C105.701 63.6193 108.269 58.6917 108.277 56.7269C108.285 54.7122 106.69 54.4843 100.296 55.5866ZM99.9935 74.3934C98.7029 75.7516 98.053 76.5848 98.2435 76.6378C102.215 77.74 103.989 78.6111 106.342 80.614C107.461 81.5664 108.129 81.9914 108.366 81.9009C108.56 81.8265 108.718 81.6478 108.718 81.5034C108.718 80.7489 107.693 78.3924 106.748 76.9764C105.65 75.3294 102.683 72.1694 102.274 72.2103C102.149 72.2227 101.122 73.2051 99.9935 74.3934ZM8.73454 74.7749C7.57605 75.5097 6.13361 77.0971 5.3472 78.5028C4.72617 79.6128 3.85511 82.0223 4.01655 82.1837C4.10448 82.2717 7.11273 80.2817 9.39276 78.6273C11.1401 77.3594 12.0692 77.6304 13.1244 79.7167C14.0602 81.5666 14.41 81.755 16.2738 81.4115C17.9236 81.1075 19.9402 81.0834 20.9994 81.3551C23.0005 81.8681 22.8413 81.9171 23.7034 80.5206C24.1398 79.8136 24.8573 78.9187 25.2976 78.5319C25.9718 77.94 26.2192 77.8483 26.8619 77.9527C27.2817 78.0207 27.9784 78.311 28.41 78.5973L29.1949 79.1184L30.239 78.5938C31.1975 78.1126 31.2623 78.0308 31.0293 77.5952C30.571 76.739 28.5609 74.7576 27.8423 74.4538C26.007 73.6781 23.9449 74.5187 22.4084 76.6693L21.9578 77.2997L21.0366 76.9311C19.8761 76.4667 17.6178 76.4534 16.2937 76.9029L15.2914 77.243L14.2871 76.1263C12.4367 74.0681 10.5668 73.6131 8.73454 74.7749ZM94.0199 79.9326C93.5758 80.0912 92.5422 80.7157 91.723 81.3205C89.7066 82.8094 84.6537 86.0976 82.7315 87.1719C81.8703 87.6531 81.1635 88.1003 81.1607 88.1654C81.15 88.4166 83.9292 89.8809 84.6749 90.0169C85.801 90.2228 86.706 89.7682 88.832 87.929C92.0907 85.1099 93.9672 84.168 96.3588 84.1512C99.2493 84.1304 102.698 85.9891 107.382 90.092C108.674 91.2236 108.718 91.243 108.718 90.6865C108.718 89.7138 107.861 87.5022 106.983 86.2089C105.506 84.0337 103.124 81.858 101.12 80.8522C98.8024 79.6889 95.7937 79.2993 94.0199 79.9326ZM9.58964 83.557C7.38748 84.2223 4.57677 87.7465 4.0172 90.5444L3.87305 91.2647L4.90686 90.4754C6.73648 89.0789 8.99026 87.8813 10.004 87.7671C10.5333 87.7074 11.3466 87.7839 11.8113 87.9373C12.5911 88.1945 12.7285 88.1731 13.6011 87.6558C15.5692 86.4894 15.5385 86.5585 14.5463 85.5181C12.7276 83.6113 11.2911 83.043 9.58964 83.557ZM92.7794 89.1347C90.8539 89.7582 88.7185 91.133 86.66 93.0748C85.8292 93.8586 85.0824 94.5 85.0004 94.5C84.9186 94.5 84.1431 93.8317 83.2771 93.0147C82.411 92.1979 81.0272 91.0497 80.2021 90.463C78.7227 89.4112 78.6936 89.4014 78.124 89.763C77.8061 89.9647 76.435 90.6946 75.0768 91.3852L72.6075 92.6406L73.994 92.764C76.1397 92.9548 78.1334 94.0358 80.8883 96.502C82.5607 97.9991 84.3105 99.0887 85.0472 99.0918C85.8526 99.0951 87.0492 98.3485 88.9213 96.6744C92.2439 93.7031 93.7335 92.9583 96.3813 92.9445C98.3089 92.9344 99.7201 93.49 101.349 94.901C102.206 95.6436 102.563 95.8125 103.277 95.8125C104.529 95.8125 104.915 95.5244 105.328 94.2793C105.677 93.2299 105.674 93.1494 105.281 92.5284C104.697 91.6059 101.783 89.7796 99.8706 89.1376C97.6697 88.3989 95.0559 88.3978 92.7794 89.1347ZM67.7351 94.5774L65.58 95.4783L66.3896 95.6465C67.0898 95.7919 67.3072 95.7296 67.9978 95.1851C68.4369 94.8388 69.1408 94.3464 69.5619 94.0909C70.6576 93.4264 70.1921 93.5504 67.7351 94.5774ZM70.9838 96.9949C68.539 97.5988 66.2483 99.0161 63.5907 101.569L62.1038 102.997L60.7469 101.747C60.0006 101.06 58.9129 100.098 58.33 99.6096L57.2697 98.7214L55.3768 99.335C54.3356 99.6724 52.7455 100.171 51.8432 100.443L50.2025 100.937L51.3276 101.083C53.4363 101.355 55.0214 102.298 58.6701 105.451C61.5974 107.98 62.7065 107.94 65.7725 105.193C71.9268 99.6778 75.6038 99.6829 81.4569 105.214C83.3792 107.031 83.6735 107.188 85.1585 107.188C86.505 107.188 86.6758 107.084 89.2269 104.727C93.9418 100.37 97.6741 99.937 101.815 103.268C103.72 104.801 104.136 104.979 105.303 104.766C106.47 104.552 107.187 103.728 107.187 102.598C107.187 101.132 106.417 100.489 101.801 98.0952C99.5151 96.9095 97.5818 96.5536 95.1825 96.8765C92.0295 97.3009 90.0233 98.3504 86.9079 101.206C86.0093 102.029 85.1903 102.703 85.0881 102.703C84.9862 102.703 84.2142 102.082 83.3729 101.323C81.4197 99.5619 80.425 98.8459 78.7721 98.0116C76.3204 96.7739 73.4141 96.3946 70.9838 96.9949ZM45.39 102.29C44.4275 102.58 41.7726 103.216 39.4901 103.702C37.2077 104.188 35.305 104.622 35.2619 104.665C35.2188 104.708 35.842 105.286 36.6468 105.95C38.3172 107.328 39.3138 107.629 40.4951 107.112C40.9013 106.935 42.3159 105.835 43.6387 104.669C44.9615 103.504 46.3149 102.41 46.6465 102.238C46.9782 102.067 47.2494 101.88 47.2494 101.822C47.2494 101.765 47.2247 101.729 47.1947 101.741C47.1647 101.753 46.3525 102.001 45.39 102.29ZM8.96817 105.847C8.96817 106.237 10.0547 106.995 10.7842 107.114C11.661 107.256 12.6869 107.066 12.6869 106.762C12.6869 106.652 12.121 106.503 11.4291 106.431C10.7372 106.359 9.9007 106.16 9.56973 105.988C9.23876 105.817 8.96817 105.753 8.96817 105.847ZM18.4295 106.769C17.8236 106.981 19.158 107.224 20.0306 107.061C21.2442 106.833 21.1674 106.499 19.9186 106.574C19.3017 106.61 18.6317 106.699 18.4295 106.769Z" fill="#DDDDDD"/>
</svg>
