<svg width="113" height="112" viewBox="0 0 113 112" fill="none" xmlns="http://www.w3.org/2000/svg">
<path fill-rule="evenodd" clip-rule="evenodd" d="M52.5258 5.1275C50.5702 5.6899 49.0113 6.61281 47.5352 8.08193C45.5092 10.0988 44.6097 11.9923 43.1071 17.4031C42.4408 19.8023 41.592 22.7992 41.2208 24.0625C40.8496 25.3258 40.0603 28.082 39.4669 30.1875C38.8734 32.293 37.8927 35.7381 37.2874 37.8435C36.1204 41.9035 36.0259 42.4301 36.4606 42.45C37.7291 42.5082 74.5845 42.3944 74.6466 42.3321C74.6915 42.2872 74.2746 40.6437 73.7202 38.68C73.1659 36.7161 72.366 33.8789 71.9429 32.375C70.6916 27.9293 70.0881 25.8447 69.3144 23.2969C68.9123 21.9734 68.1213 19.2172 67.5565 17.1719C65.849 10.9874 64.8764 9.15468 62.2153 7.10696C60.175 5.537 58.6254 4.99865 55.8746 4.90393C54.3504 4.85165 53.2238 4.92668 52.5258 5.1275ZM30.9332 59.3351C30.317 61.7229 28.742 67.216 26.8406 73.6094C25.6957 77.4594 24.3937 81.898 23.947 83.473C23.0398 86.6722 22.6863 87.3046 21.4215 87.9904C20.6509 88.4082 20.1945 88.4662 17.5934 88.4769C14.8914 88.4881 14.5379 88.5369 13.4371 89.0525C11.3378 90.0355 9.49899 92.2838 8.8633 94.6448C7.68752 99.0117 10.2624 103.688 14.5834 105.033C15.8204 105.418 17.2239 105.436 44.0269 105.41C59.5065 105.395 77.684 105.321 84.4215 105.246C96.4403 105.112 96.6883 105.1 97.5579 104.635C100.129 103.258 102.161 100.306 102.408 97.5876C102.732 94.0091 100.429 90.2912 97.0189 88.8882C95.9654 88.4548 95.4099 88.3846 92.9987 88.3802C88.8278 88.3724 88.1345 87.8738 87.0616 84.1094C86.7531 83.0266 86.2664 81.3531 85.9801 80.3906C84.8362 76.545 83.2247 71.0522 82.4499 68.3594C81.9999 66.7953 81.1746 63.9406 80.6161 62.0156L79.6005 58.5156L55.3868 58.4601L31.1732 58.4043L30.9332 59.3351Z" fill="#DDDDDD"/>
</svg>
