<svg width="113" height="112" viewBox="0 0 113 112" fill="none" xmlns="http://www.w3.org/2000/svg">
<g clip-path="url(#clip0_102_16392)">
<path fill-rule="evenodd" clip-rule="evenodd" d="M51.1709 13.6773C47.6009 14.2452 43.6651 15.6651 40.999 17.3471C35.0405 21.1058 30.8919 26.7507 29.1554 33.4619C28.6622 35.3681 28.1733 39.7928 28.3925 40.3644C28.534 40.733 29.1502 40.7474 39.9245 40.6341C46.1851 40.5685 51.3513 40.4707 51.4052 40.4169C51.459 40.3631 51.1378 38.9499 50.6916 37.2767C50.2451 35.6033 49.8752 33.803 49.8693 33.2758C49.8549 32.0134 50.4912 31.5103 52.3103 31.3453L53.6261 31.2259L52.6663 28.2458C52.1384 26.6068 51.4651 24.3856 51.17 23.3102C50.6522 21.4237 50.6454 21.3082 50.9733 20.0289C52.0929 15.6636 57.9887 15.0681 60.0672 19.1104C60.758 20.4538 60.5399 22.1895 59.0881 26.9032C58.4032 29.1272 57.8428 31.022 57.8428 31.1141C57.8428 31.206 58.3918 31.2812 59.0627 31.2812C60.1195 31.2812 60.3682 31.3668 60.9221 31.9206C61.7864 32.7851 61.7509 33.6855 60.7053 37.4062C60.2488 39.0304 59.9489 40.4423 60.0388 40.5438C60.1287 40.645 65.394 40.6555 71.7397 40.5665L83.2775 40.4051L83.1375 38.6323C82.5746 31.5048 79.7554 24.9838 75.283 20.4651C72.1895 17.3396 68.6628 15.3348 64.1865 14.1573C61.8688 13.5476 61.3353 13.4903 57.4053 13.4297C54.4694 13.3844 52.526 13.4616 51.1709 13.6773ZM23.6084 43.6111C22.3674 44.3189 16.5555 47.4431 12.5615 49.5497C3.72074 54.2121 1.8478 55.4122 1.05855 56.9187C0.84943 57.3177 0.749023 58.2472 0.749023 59.783V62.0565L18.8414 62.2142C28.7921 62.3011 53.5476 62.3011 73.8535 62.2142L110.773 62.0563L110.914 61.304C111.191 59.8296 110.874 57.7992 110.195 56.7015C109.239 55.1556 108.062 54.4156 98.6396 49.4377C97.4365 48.802 96.1568 48.1088 95.7959 47.897C94.9751 47.4153 93.5029 46.625 89.743 44.6471L86.7904 43.0937L55.6369 43.1029L24.4834 43.1121L23.6084 43.6111ZM27.2178 48.2667C26.2332 48.6185 24.9522 49.4506 24.4189 50.0848C23.8775 50.7288 23.2803 52.3221 23.2816 53.1197C23.2838 54.6389 23.6762 55.4807 24.9065 56.605C28.6256 60.004 35.4067 58.2505 36.087 53.7138C36.3919 51.6797 35.0295 49.5031 32.8589 48.5566C31.3521 47.8997 28.6359 47.7601 27.2178 48.2667ZM53.1972 48.2374C49.9039 49.4469 48.3125 52.6177 49.6849 55.2343C50.2683 56.3465 50.8708 56.8909 52.374 57.6649C53.4435 58.2152 53.8081 58.2846 55.6553 58.289C57.6015 58.2933 57.8191 58.2472 59.0868 57.5612C63.2988 55.2814 62.7471 49.8783 58.1481 48.3687C56.5313 47.8378 54.4362 47.7822 53.1972 48.2374ZM78.9521 48.3424C76.9042 49.1647 75.1417 51.3216 75.1288 53.0215C75.1144 54.9075 76.5146 56.9058 78.4516 57.7637C80.1181 58.5018 83.0679 58.5086 84.6893 57.7782C86.0387 57.1701 87.4243 55.7515 87.81 54.5829C88.2243 53.3275 87.9681 51.5453 87.2331 50.5706C86.4695 49.5576 86.2085 49.3443 84.8584 48.6279C83.3527 47.8288 80.5665 47.6943 78.9521 48.3424ZM2.28027 64.7294C2.28027 65.1667 5.41452 67.7772 7.34105 68.9447L9.38964 70.1861L55.3271 70.2572L101.265 70.3281L102.468 69.7012C104.908 68.4291 107.147 66.755 108.576 65.1328L109.107 64.5312H55.6933C23.9092 64.5312 2.28027 64.6115 2.28027 64.7294ZM16.9575 73.4965C18.8031 74.4351 25.0567 77.1643 31.9909 80.0568C34.1806 80.9703 34.2683 81.0337 34.9081 82.1675C35.651 83.4837 36.5402 84.3174 37.8271 84.9041C38.6496 85.279 39.7217 85.3031 55.6749 85.3077L72.648 85.3125L73.9423 84.6656C75.1946 84.0398 75.5779 83.6141 76.9834 81.2875C77.1037 81.0884 78.5802 80.3534 80.2646 79.6547C90.303 75.4893 96.3427 72.8124 96.3427 72.5285C96.3427 72.4611 78.0089 72.4112 55.6006 72.4174L14.8584 72.4285L16.9575 73.4965Z" fill="#DDDDDD"/>
</g>
<defs>
<clipPath id="clip0_102_16392">
<rect width="112" height="112" fill="white" transform="translate(0.749023)"/>
</clipPath>
</defs>
</svg>
