<svg width="113" height="112" viewBox="0 0 113 112" fill="none" xmlns="http://www.w3.org/2000/svg">
<path fill-rule="evenodd" clip-rule="evenodd" d="M50.8017 14.7593C49.1941 15.202 47.1022 16.4848 45.8791 17.778C43.5204 20.272 42.5312 23.5097 42.5312 28.7359V31.8828L41.9239 32.0042C40.798 32.2295 38.929 33.0172 37.8114 33.7374C35.2057 35.4167 33.4611 37.7635 32.5557 40.8063C32.2055 41.9834 32.1602 43.5155 32.0874 56.6562C31.9927 73.7277 32.0189 74.0171 33.9531 77.2658C35.5961 80.0253 38.3622 82.075 41.2495 82.6722L42.4837 82.9275L42.5918 86.9089C42.7073 91.1564 42.9339 92.3967 44.009 94.6673C44.7486 96.2297 46.8097 98.4366 48.3307 99.295C50.5766 100.562 52.1708 100.844 57.0737 100.84C61.924 100.836 63.6167 100.593 65.5286 99.6286C67.5264 98.6208 68.5073 97.7786 69.645 96.0945C71.3832 93.5217 71.6848 92.3094 71.8301 87.313L71.953 83.0788L73.7212 82.4862C76.5509 81.5375 78.3718 80.1859 79.9332 77.8752C81.5384 75.4996 82.1249 72.9617 82.1249 68.3896V65.6598L82.7536 65.5217C83.8952 65.2708 84.6867 64.0566 85.253 61.6875C86.0066 58.5355 85.904 55.5074 84.9442 52.5632C84.4537 51.0591 83.8456 50.3425 82.7462 49.973L82.0155 49.7276L81.8882 45.3716C81.8182 42.9758 81.6583 40.7203 81.5327 40.3594C80.441 37.2207 78.2001 34.5093 75.5624 33.136C75.1413 32.9166 74.1569 32.5185 73.3749 32.2512L71.953 31.7651L72.0165 29.3904C72.1727 23.5445 71.0831 20.1397 68.1523 17.3165C66.7848 15.9994 65.4334 15.2418 63.5983 14.7639C61.9489 14.3342 52.3574 14.3307 50.8017 14.7593ZM42.7486 38.7043C41.0231 39.2293 39.885 40.4467 39.4997 42.1796C39.375 42.7394 39.3396 45.7505 39.4127 49.5624L39.5358 56H40.8973C42.571 56 42.7967 56.2229 42.7073 57.787L42.6405 58.9531L41.0546 59.0174L39.4687 59.0817V65.9301C39.4687 70.5981 39.5503 73.0152 39.725 73.5221C40.1037 74.6196 40.7081 75.3458 41.7303 75.9316C42.6263 76.445 42.7447 76.4542 49.2577 76.5196L55.8749 76.5861V74.7226C55.8749 72.669 56.0431 72.4062 57.3578 72.4062C58.4096 72.4062 58.7187 72.9726 58.7187 74.8991V76.592L65.1171 76.5227C71.2403 76.4562 71.5547 76.4321 72.4244 75.9671C74.6854 74.758 74.9062 73.8342 74.9062 65.5852V59.0625H73.3749H71.8437V57.6406V56.2187H73.3749H74.9062L74.9048 49.4922C74.9042 45.3112 74.8132 42.4344 74.6647 41.8906C74.3129 40.6026 73.4615 39.6141 72.1974 39.0254C71.1017 38.5153 70.9477 38.5042 64.8983 38.5022L58.7187 38.5L58.7154 40.0859C58.7134 40.9583 58.6397 41.7802 58.5513 41.9125C58.2497 42.3644 57.416 42.667 56.8586 42.5272C55.9723 42.3047 55.6562 41.6358 55.6562 39.9825V38.5L49.4765 38.5188C46.0778 38.5291 43.05 38.6127 42.7486 38.7043ZM56.3124 45.5C55.9114 45.901 55.8749 46.2291 55.8749 49.4375C55.8749 51.3625 55.8222 52.9375 55.7574 52.9375C55.6929 52.9375 54.6495 52.0489 53.4385 50.9628C50.3585 48.2007 49.8578 47.8426 49.317 48.0141C49.0674 48.0933 48.7113 48.3901 48.5254 48.6738C48.0568 49.3889 48.2852 49.733 50.5683 51.7532C54.8262 55.5209 54.9993 55.7051 55.0078 56.4806C55.0216 57.7436 56.5734 59.0063 57.7494 58.711C58.1864 58.6014 58.5612 58.8144 59.7603 59.8552C60.571 60.5587 61.2835 61.1855 61.3437 61.2478C62.1165 62.0502 65.2733 64.7148 65.5854 64.8283C66.2264 65.0613 67.0312 64.4181 67.0312 63.6729C67.0312 63.1496 66.5972 62.643 64.4584 60.6701C63.0436 59.3648 61.4194 57.8906 60.8491 57.3943C60.279 56.898 59.8124 56.3657 59.8124 56.2117C59.8124 56.058 59.5569 55.5968 59.2445 55.1873C58.681 54.4484 58.6762 54.409 58.643 50.1707C58.6097 45.9644 58.6014 45.8927 58.0928 45.4807C57.4304 44.9442 56.8621 44.9503 56.3124 45.5Z" fill="#DDDDDD"/>
</svg>
