<svg width="112" height="112" viewBox="0 0 112 112" fill="none" xmlns="http://www.w3.org/2000/svg">
<path fill-rule="evenodd" clip-rule="evenodd" d="M87.736 5.40579C86.2599 6.17929 86.0926 6.6485 85.9705 10.3528L85.8611 13.6739L82.8969 13.7833C79.5804 13.9055 79.0716 14.0893 78.4562 15.3858C77.7265 16.9238 78.2235 18.5844 79.6795 19.4718C80.2922 19.8455 80.7844 19.9067 83.1814 19.9074L85.9705 19.9083V23.0911C85.9705 26.5432 86.1186 27.1331 87.1988 27.9827C87.981 28.5981 89.6974 28.6055 90.6804 27.9978C91.8162 27.2959 92.0955 26.2809 92.0955 22.857V19.9083L94.7752 19.9034C96.957 19.8995 97.6294 19.8194 98.394 19.4725C100.521 18.5072 100.629 15.5068 98.5828 14.242C97.928 13.8371 97.503 13.7833 94.9681 13.7833H92.0955V10.7899C92.0955 8.21957 92.0321 7.66547 91.6473 6.87054C90.8777 5.28088 89.1848 4.64694 87.736 5.40579ZM9.82363 6.53825C9.40144 6.88016 9.30169 7.2026 9.23126 8.45232L9.1466 9.95513L8.08457 9.8801C7.18223 9.81622 6.93898 9.88863 6.46538 10.3622C5.79623 11.0314 5.74832 11.8736 6.34551 12.4708C6.67473 12.8 7.0746 12.9083 7.96141 12.9083H9.13982L9.22557 14.4235C9.32357 16.1578 9.75538 16.8458 10.7459 16.8458C11.7215 16.8458 12.1901 16.1429 12.3631 14.42L12.5149 12.9083H13.662C14.4832 12.9083 14.9024 12.7995 15.1377 12.5254C16.289 11.1849 15.335 9.84575 13.2289 9.84575H12.5215L12.4292 8.39457C12.3535 7.20872 12.2445 6.869 11.8324 6.53519C11.1897 6.01479 10.4687 6.01588 9.82363 6.53825ZM32.7049 9.06197C29.2143 9.74491 26.0079 11.3713 24.4272 13.2607C22.9622 15.0115 23.0808 17.2918 24.7076 18.6607C26.0404 19.7823 26.3638 19.7492 32.0486 17.9115C33.8533 17.3281 35.3942 16.8497 35.4727 16.8484C35.6189 16.8458 37.8947 20.1172 40.0002 23.3562L41.1749 25.1633L40.2868 26.5281C38.7144 28.9439 38.0769 30.9278 38.0559 33.4707L38.0424 35.1114L36.75 35.7234C34.5625 36.7594 32.8147 38.7708 31.8844 41.3226C31.544 42.2564 31.432 43.1202 31.4149 44.9453L31.3924 47.3417L29.4236 47.7066C24.0592 48.7012 20.6176 50.0426 19.0407 51.7534C18.3149 52.5409 18.158 52.8673 18.158 53.5903C18.158 55.8723 21.9509 57.9259 28.2654 59.063C29.6063 59.3045 30.8584 59.4967 31.0479 59.4902C31.2489 59.4834 31.6636 58.9136 32.0434 58.123C33.3775 55.3449 36.6857 52.9076 39.9893 52.2695C42.4301 51.7981 45.8185 52.4414 47.9211 53.7756L48.9186 54.4084L50.0594 53.1381C50.8443 52.264 51.6576 51.6425 52.6667 51.1457C53.9742 50.5022 54.327 50.4252 55.9182 50.4366C57.4731 50.4475 57.888 50.5402 59.1386 51.1558C60.1138 51.636 60.9475 52.2751 61.7389 53.1497L62.9035 54.4368L64.0579 53.7091C65.4063 52.8588 68.138 52.0645 69.7134 52.0645C72.7921 52.0645 75.6702 53.2877 77.877 55.5341C78.7034 56.3756 79.6051 57.5643 79.947 58.2634C80.2804 58.9446 80.6702 59.502 80.8133 59.502C81.6994 59.502 86.0495 58.5386 87.831 57.948C93.0937 56.203 94.7684 53.5815 92.0708 51.3116C90.1342 49.6821 84.6871 47.8894 79.9978 47.3382C79.3124 47.2577 78.7472 47.1807 78.7415 47.1671C78.7358 47.1538 78.652 45.8896 78.5551 44.3584C78.3954 41.8333 78.3112 41.4363 77.6504 40.0927C76.6817 38.124 75.1544 36.542 73.3775 35.6672L71.9532 34.9661L72.0488 33.875C72.2348 31.7529 71.1992 28.5996 69.6487 26.5668C69.1335 25.8915 69.1145 25.7738 69.3274 24.574C69.5481 23.3288 69.4503 22.4497 68.9515 21.1982C68.5068 20.0826 66.8135 18.9895 61.3611 16.2982C53.4437 12.3903 48.4184 10.4488 43.4236 9.368C40.8236 8.80538 34.8834 8.63585 32.7049 9.06197ZM14.8903 25.3392C13.6137 26.0238 13.3455 26.8332 13.3455 29.9996V32.7694L10.6658 32.8467C8.31316 32.9145 7.88551 32.9864 7.16057 33.4373C6.13485 34.0747 5.68926 34.9077 5.68926 36.1867C5.68926 36.978 5.82335 37.3269 6.36344 37.9422C7.22969 38.9288 8.09398 39.1556 10.9939 39.1569L13.3455 39.1582L13.3459 42.0567C13.3462 45.3979 13.6095 46.2278 14.8768 46.8812C15.7752 47.3443 17.208 47.2761 18.041 46.7303C19.0919 46.0417 19.343 45.1977 19.4316 42.0567L19.5134 39.1582H21.9052C24.53 39.1582 25.3621 38.9299 26.2518 37.9656C26.978 37.1786 27.0279 35.3411 26.3476 34.43C25.352 33.0965 24.9038 32.9298 22.1019 32.8512L19.5136 32.7788L19.4309 30.0075C19.3679 27.8933 19.2566 27.0655 18.9613 26.5158C18.1773 25.0559 16.3846 24.5379 14.8903 25.3392ZM97.9755 40.2535C97.7806 40.3675 97.4577 40.7101 97.258 41.0148C96.833 41.6636 96.999 42.1271 98.0571 43.2456L98.7164 43.9423L97.9215 44.8709C96.9655 45.9881 96.8461 47.0306 97.613 47.5676C98.4198 48.1329 99.0585 47.985 99.9104 47.0361L100.693 46.1639L101.64 47.0361C102.703 48.0161 103.451 48.1469 104.127 47.4707C104.804 46.7939 104.685 45.9233 103.799 45.0645C103.378 44.6563 103.033 44.2133 103.033 44.0801C103.033 43.9469 103.378 43.5039 103.799 43.0957C104.775 42.1497 104.846 41.1618 103.988 40.4867C103.142 39.8213 102.645 39.9243 101.691 40.9629L100.838 41.8926L99.9753 40.9629C99.1126 40.0328 98.6403 39.8652 97.9755 40.2535ZM9.40801 54.0332C9.05385 54.3874 8.97051 54.7623 8.97051 56.002V57.5332H7.67398C6.53363 57.5332 6.32254 57.6028 5.92398 58.1096C5.32854 58.8665 5.35151 59.4029 6.00754 60.0587C6.44832 60.4997 6.76113 60.5957 7.75754 60.5957H8.97051V61.9758C8.97051 63.704 9.23563 64.0863 10.4663 64.1329C11.66 64.1782 11.8066 63.9538 11.811 62.0723L11.8143 60.5957H13.0272C14.0236 60.5957 14.3364 60.4997 14.7772 60.0587C15.4276 59.4084 15.468 58.562 14.8768 57.9707C14.5364 57.6304 14.1477 57.5332 13.1268 57.5332H11.8143V55.9051C11.8143 54.4705 11.7565 54.2362 11.328 53.9363C10.6649 53.4717 9.93257 53.5087 9.40801 54.0332ZM53.7806 54.3528C52.7013 54.9279 51.9131 55.7657 51.7173 56.5462C51.6486 56.8195 51.8466 57.5669 52.1859 58.3153C52.5088 59.0282 52.8953 60.0051 53.0445 60.4864L53.3157 61.3614H55.8847H58.4537L58.9798 59.9618C59.2692 59.192 59.715 58.2243 59.9703 57.811L60.4345 57.0601L59.8041 56.1691C59.4574 55.6789 58.8009 54.9778 58.3452 54.6107C57.6551 54.0549 57.29 53.9324 56.1577 53.8771C55.048 53.8226 54.6118 53.9101 53.7806 54.3528ZM40.1168 55.5533C36.1734 56.4946 33.3178 60.8014 34.0894 64.6437C34.6658 67.5133 36.6247 69.9388 39.1482 70.907C40.7063 71.505 43.1929 71.5451 44.7361 70.9969C47.808 69.9062 50.0955 66.7076 50.0955 63.5029C50.0955 61.1087 48.6745 58.2956 46.7502 56.8805C45.0658 55.6417 42.1717 55.0627 40.1168 55.5533ZM67.9236 55.5409C62.0579 57.1117 59.8375 64.3915 63.8848 68.7825C65.905 70.9741 68.8809 71.9268 71.6061 71.2541C74.862 70.4506 76.9186 68.3504 77.7936 64.9355C78.4112 62.5249 77.5213 59.7818 75.4493 57.7098C73.9622 56.2229 72.315 55.5028 70.2249 55.4258C69.3201 55.3923 68.2846 55.4442 67.9236 55.5409ZM40.2168 59.9318C39.2057 60.4818 38.5678 61.2881 38.2703 62.3926C37.989 63.4377 38.1537 64.3431 38.8439 65.5439C40.1671 67.846 43.8375 67.8173 45.199 65.494C45.8688 64.351 45.9677 62.5833 45.421 61.5261C44.5045 59.7538 41.9714 58.9776 40.2168 59.9318ZM67.9958 59.9454C66.8979 60.5253 66.234 61.5311 66.1122 62.799C65.9606 64.3768 66.2023 65.2284 67.0493 66.1006C69.5783 68.7044 73.9729 66.7052 73.6728 63.0873C73.4361 60.2324 70.5141 58.6152 67.9958 59.9454ZM81.3844 62.3313C81.2599 62.5641 81.158 63.4627 81.158 64.3281C81.158 65.8681 81.195 65.9726 82.884 69.2097C85.9178 75.0247 88.3765 79.9814 88.3855 80.301C88.3903 80.4718 88.5627 80.316 88.7683 79.9551C89.07 79.4257 89.1404 78.7491 89.1328 76.4551C89.1223 73.3871 88.8731 72.2367 87.4917 68.8809C85.5402 64.1397 82.285 60.6489 81.3844 62.3313ZM28.4883 62.5656C27.6489 63.0772 26.4003 64.9458 25.0539 67.7051C23.1766 71.5527 22.3528 75.2828 22.7546 78.1163C23.1112 80.6306 23.2229 80.6431 24.3989 78.3011C24.9692 77.1654 25.8009 75.5473 26.2469 74.7051C30.0924 67.4448 30.9943 65.5108 30.8372 64.8614C30.7499 64.5004 30.6668 63.7376 30.6526 63.1661C30.6272 62.1447 30.6145 62.127 29.9158 62.1279C29.5249 62.1283 28.8824 62.3252 28.4883 62.5656ZM53.2777 64.8067C53.2306 64.9572 53.1272 65.4739 53.048 65.9551C52.9686 66.4364 52.6164 67.4347 52.2653 68.1739C51.914 68.9131 51.6268 69.6306 51.6268 69.7686C51.6268 70.3251 52.5363 71.7487 53.2875 72.3678C55.4518 74.1519 58.5561 73.4788 59.7796 70.9601C60.1994 70.0963 60.2188 69.9158 59.9598 69.286C59.8001 68.8977 59.3611 67.673 58.9842 66.5646L58.2986 64.5488L55.8309 64.5411C54.0424 64.5354 53.3396 64.6085 53.2777 64.8067ZM78.0922 71.0857C75.9224 73.3377 73.5149 74.4566 70.2549 74.7285L68.4432 74.8797L68.5873 75.7768C68.9041 77.7451 70.1313 78.7725 72.5229 79.0714C73.9662 79.2516 73.8728 79.0862 74.6861 82.9082C75.8487 88.3733 77.0853 94.3016 78.3057 100.263C79.1018 104.151 79.6646 106.423 79.863 106.549C80.0339 106.657 83.9256 106.747 88.5113 106.749C99.8559 106.753 99.4425 107.178 95.4035 99.664C92.3171 93.9221 91.7407 92.8594 90.2315 90.127C89.045 87.9786 83.433 77.4758 80.8518 72.5723C80.0444 71.0384 79.3645 69.7946 79.3411 69.8084C79.3177 69.8222 78.7557 70.3971 78.0922 71.0857ZM31.2285 72.2442C30.5782 73.4773 29.521 75.52 28.8792 76.7832C27.8119 78.8843 26.5256 81.2847 24.7767 84.4395C23.3319 87.0457 14.6886 102.979 14.2496 103.845C13.6456 105.037 13.6612 105.556 14.32 106.215L14.8569 106.752H23.303C28.4412 106.752 31.9073 106.667 32.1528 106.536C32.3997 106.404 32.6139 105.959 32.7053 105.388C32.8781 104.308 33.8874 99.2419 34.6561 95.5957C34.9477 94.2121 35.7361 90.4715 36.4081 87.2832C37.0801 84.095 37.7523 81.0007 37.9017 80.4073L38.1736 79.3282L39.879 78.9657C42.3542 78.44 43.092 77.777 43.4131 75.7899L43.556 74.9057L41.4118 74.6734C38.0756 74.312 35.9398 73.3123 33.7658 71.0953C33.1822 70.5001 32.6386 70.0107 32.5579 70.0077C32.4769 70.0046 31.8787 71.0111 31.2285 72.2442ZM47.9885 72.9833L46.8777 73.693L46.7615 75.5552C46.5603 78.78 45.1111 80.7993 42.4082 81.6202C41.4914 81.8987 40.8839 82.2095 40.8166 82.4346C40.7564 82.635 40.5116 83.734 40.2725 84.877C40.0334 86.02 39.2794 89.5637 38.5971 92.752C36.8303 101.008 35.887 105.935 36.0297 106.166C36.1312 106.33 75.8818 106.164 76.0714 105.998C76.1289 105.948 74.8755 99.635 74.1578 96.3614C73.505 93.3826 71.4877 83.7767 71.3357 82.9222C71.216 82.2489 71.099 82.1441 70.2172 81.9193C68.3347 81.4391 66.4495 79.8573 65.7158 78.1423C65.5248 77.6956 65.333 76.5426 65.2899 75.5801L65.2114 73.8301L64.0638 73.0855L62.9162 72.3406L62.3628 73.0855C60.2066 75.9863 57.1964 77.2925 54.3097 76.5794C52.8091 76.2086 51.1042 74.9971 50.0308 73.5392L49.0991 72.2737L47.9885 72.9833ZM58.8455 79.4325C56.8087 80.3788 55.7918 80.4453 53.8972 79.756C51.7442 78.9729 51.3271 79.004 50.8631 79.9818C50.3897 80.9795 50.6227 81.5787 51.7821 82.3441C53.8007 83.6767 56.9137 83.8615 59.2583 82.7881C60.9648 82.007 61.2979 81.6618 61.135 80.8435C60.9171 79.7484 60.5719 78.7513 60.4144 78.762C60.3337 78.7675 59.6275 79.0694 58.8455 79.4325Z" fill="#DDDDDD"/>
</svg>
