<svg width="112" height="112" viewBox="0 0 112 112" fill="none" xmlns="http://www.w3.org/2000/svg">
<path fill-rule="evenodd" clip-rule="evenodd" d="M54.1883 3.5956C52.7281 4.11644 51.8798 4.8801 50.7001 6.73553C50.0657 7.73303 49.2515 9.01338 48.8906 9.58103C48.5296 10.1485 47.7019 11.4979 47.0509 12.5797C46.4001 13.6616 45.1941 15.6369 44.3712 16.9691C43.5483 18.3013 42.8749 19.4436 42.8749 19.5077C42.8749 19.5716 43.5566 19.6812 44.3898 19.7509C46.6714 19.9423 48.2162 20.9195 48.9851 22.6579L49.4129 23.625H55.5362H61.6597L62.2752 22.484C63.1404 20.8797 64.2766 20.1412 66.3363 19.8446C67.9144 19.6173 69.7418 19.8212 71.914 20.4671C72.6484 20.6854 72.5556 20.328 71.1018 17.3313C69.3376 13.6957 69.2194 13.2293 69.8923 12.5565C70.9305 11.5183 71.471 12.0166 72.9627 15.3884C73.5402 16.6935 74.1658 17.8203 74.3533 17.892C74.5408 17.964 75.7028 17.6671 76.9359 17.2325L79.1778 16.4421L80.5629 18.1195C81.9345 19.7805 84.2574 22.6487 89.3514 28.9704C93.3651 33.9513 93.9655 34.5625 94.8449 34.5625C95.3885 34.5625 95.6768 34.4201 95.9365 34.0239C96.4912 33.1772 96.5612 33.3259 89.9143 21.2188C87.4886 16.8002 85.4586 13.0025 82.5479 7.4375C81.3907 5.22463 80.221 4.06657 78.6824 3.6096C77.1338 3.14978 55.4725 3.13732 54.1883 3.5956ZM41.4133 22.3335C38.0937 22.7203 35.869 23.8249 33.335 26.3449C31.1799 28.488 29.9851 30.7353 29.3964 33.7531L29.0211 35.6781L27.3621 37.2695C21.101 43.276 17.4162 46.7123 17.176 46.7688C16.2187 46.9936 15.8414 44.905 16.6532 43.8734C17.2059 43.1705 17.0408 42.9227 15.839 42.6517C14.0369 42.2452 11.5709 43.3309 10.2628 45.1067C9.1076 46.6745 8.12388 48.993 7.6516 51.261C7.22241 53.3208 7.20623 54.0065 7.26966 67.3391C7.33463 80.9795 7.34601 81.3015 7.82463 83.0156C9.29069 88.2661 12.4317 91.3109 15.6202 90.5724C16.91 90.2735 17.3871 89.6127 18.3356 86.8101C19.8314 82.3915 21.2526 80.8957 24.7824 80.0242C25.831 79.7652 26.7321 79.5966 26.7846 79.6493C26.8373 79.702 26.6474 80.8255 26.3628 82.1459C25.5723 85.8132 23.2603 96.0247 22.5255 99.0938C20.3284 108.273 20.3697 108.037 20.889 108.416C21.5002 108.863 90.2728 108.869 90.884 108.423C91.3368 108.091 91.5243 109.024 87.9326 93.7344C87.0848 90.125 86.0536 85.6953 85.6412 83.8906C85.2289 82.0859 84.827 80.388 84.7483 80.1172C84.5805 79.5401 84.6251 79.5347 86.1465 79.9396C87.5107 80.3027 87.8648 80.5271 89.4687 82.0444C91.2458 83.7257 92.6548 84.3192 94.8493 84.3102C98.1964 84.2964 100.086 82.7875 103.063 77.7512C106.393 72.1175 108.979 67.506 109.42 66.4129C109.972 65.0455 110.19 61.5153 109.838 59.6326C109.263 56.5572 107.27 53.6056 100.958 46.4844C98.8695 44.1278 98.3397 43.6638 97.0926 43.0979C95.9923 42.5985 95.495 42.5609 94.515 42.9026L93.8087 43.1489L94.5918 43.9508C95.4681 44.8484 95.6049 45.6617 94.9749 46.2317C94.2983 46.844 93.7925 46.6399 92.2 45.1124C91.3563 44.303 88.723 41.8283 86.3484 39.6132C82.5162 36.038 82.0312 35.5088 82.0312 34.9013C82.0312 33.8898 81.4425 31.7888 80.741 30.2969C78.9481 26.4841 75.5929 23.7363 71.3954 22.6428C69.7707 22.2198 66.2987 22.2079 65.3073 22.622C63.838 23.2361 63.7085 24.4199 64.9785 25.6283L65.8634 26.4701L67.3415 26.3327C71.8869 25.9101 76.5285 29.1859 77.4346 33.4552C77.7745 35.0573 77.6247 37.7499 77.117 39.1563L76.7617 40.1406L78.4669 41.7694C80.172 43.3985 90.4095 53.2624 92.818 55.5969L94.0946 56.8345L93.7586 57.4844C93.4276 58.1243 93.0135 58.4063 92.405 58.4063C92.235 58.4063 90.7589 57.0686 89.1248 55.4334C87.4908 53.7985 86.0986 52.516 86.0313 52.5834C85.9637 52.6507 85.828 54.8371 85.7294 57.442C85.4772 64.1108 84.5956 68.8111 82.5431 74.4297C82.1145 75.6028 81.6499 76.5625 81.5108 76.5625C81.1711 76.5625 79.625 75.5014 79.625 75.2682C79.625 75.1667 79.9774 74.1118 80.4079 72.9245C82.0397 68.4252 83.3437 60.9836 83.3437 56.1713V54.0208L79.6796 54.0807L76.0156 54.1406L75.9559 58.1816C75.9204 60.5684 75.804 62.3147 75.6715 62.4472C75.5481 62.5708 74.8367 62.7211 74.0908 62.7813L72.7343 62.8906V67.3374V71.7839L72.1205 72.3139C71.5898 72.7722 71.2866 72.8438 69.8783 72.8438H68.2499V76.1082V79.3726L67.6191 80.0034C67.2721 80.3504 66.337 81.0585 65.5409 81.5771L64.0937 82.5202V85.3215C64.0937 87.9861 64.0672 88.1543 63.5499 88.769C63.2509 89.1244 62.3188 89.8236 61.4785 90.3228C59.5682 91.4576 58.9507 92.2598 58.5064 94.1837C58.3134 95.0193 57.9514 95.9217 57.7018 96.189C56.733 97.2265 54.3703 97.4037 53.1859 96.528C52.6426 96.1264 52.4739 95.7362 51.8577 93.4572C51.5173 92.1992 50.5548 91.1608 48.753 90.1086C46.7484 88.9376 46.5937 88.5979 46.5937 85.3613V82.7634L44.5703 81.249L42.5468 79.7344L42.4867 76.2891L42.4263 72.8438L40.846 72.8405C39.9767 72.8385 39.1573 72.7648 39.0249 72.6764C38.3901 72.2525 38.2812 71.4527 38.2812 67.2195V62.879L37.3992 62.9633C36.3932 63.0591 35.3333 62.6931 35.073 62.1596C34.9757 61.9601 34.8455 60.0742 34.7838 57.9688L34.6718 54.1406H31.4063H28.1408L28.1907 56.7656C28.3003 62.5286 29.2958 68.2224 30.9896 72.7742C31.6968 74.6747 31.72 74.8234 31.4197 75.542C31.0351 76.4628 30.3255 76.7552 29.7469 76.2315C28.8574 75.4268 26.8334 68.3613 26.1443 63.6563C25.9592 62.393 25.7442 59.3169 25.6661 56.8203C25.588 54.3239 25.4703 52.2813 25.4043 52.2813C25.3384 52.2813 23.8944 53.6594 22.1954 55.3438C20.4966 57.0281 18.9553 58.4063 18.7702 58.4063C18.2623 58.4063 17.2812 57.552 17.2812 57.1097C17.2812 56.8877 19.4678 54.6147 22.3671 51.823C28.152 46.2527 33.3339 41.2788 34.093 40.5676C34.5723 40.1185 34.5848 40.0494 34.2739 39.566C33.8769 38.9493 33.4676 36.8511 33.4713 35.4519C33.4785 32.6336 35.2675 29.4591 37.74 27.8777C39.6764 26.6389 41.3662 26.1848 43.5822 26.3075L45.4925 26.4134L46.2619 25.4745C47.1887 24.3434 47.2101 24.0505 46.4296 23.1794C45.512 22.1554 44.4622 21.9783 41.4133 22.3335ZM48.1963 26.8783L47.7207 27.4822L49.1109 28.7254L50.5008 29.9688H55.455H60.4091L61.6995 28.8203C62.4091 28.1888 62.9888 27.5734 62.9875 27.4531C62.9864 27.3328 62.8007 27.0128 62.5747 26.7422C62.1648 26.2509 62.1536 26.25 55.4181 26.262L48.6718 26.2743L48.1963 26.8783ZM41.5913 28.8816C39.3614 29.344 37.4077 30.9116 36.4678 32.9928C35.8148 34.4385 35.808 37.1247 36.4538 38.5267C37.1214 39.9766 38.3501 41.2379 39.7772 41.9388C40.8585 42.4697 41.2654 42.546 42.9843 42.5392C44.6772 42.5329 45.1084 42.4509 46.0606 41.9547C48.259 40.8096 49.6413 38.6496 49.8257 36.0719C49.9725 34.0211 49.4832 32.6856 47.997 31.0802C46.2314 29.1734 43.9543 28.3918 41.5913 28.8816ZM66.5752 28.8713C64.5284 29.3048 62.7945 30.5885 61.7889 32.4146C61.2125 33.4611 61.1487 33.7761 61.1526 35.5469C61.1581 37.9757 61.5908 39.0436 63.2185 40.6459C64.6239 42.0293 66.1587 42.6563 68.1406 42.6563C72.9244 42.6563 76.2781 38.2108 74.9472 33.633C74.4966 32.083 72.8538 30.2197 71.2446 29.4333C69.9702 28.8105 67.9883 28.572 66.5752 28.8713ZM42.2174 30.842C40.2268 31.4016 37.8437 33.9325 37.8437 35.4874C37.8437 36.337 38.4378 36.9688 39.2371 36.9688C39.9824 36.9688 40.4444 36.5803 41.6362 34.9512C41.9639 34.5034 42.6717 33.8343 43.2096 33.4642C44.1599 32.8103 44.3493 32.3953 44.0516 31.6192C43.8473 31.0872 42.8496 30.6644 42.2174 30.842ZM66.0187 31.395C65.1137 31.8949 63.4735 34.0382 63.3038 34.9429C63.0855 36.1073 63.5578 36.8408 64.5813 36.9265C65.3476 36.9909 65.4329 36.9254 66.5059 35.45C67.1236 34.601 67.7081 33.9063 67.805 33.9063C67.9019 33.9063 68.1452 33.5609 68.3455 33.1389C68.6557 32.485 68.6673 32.2827 68.4236 31.7717C68.0811 31.0538 66.956 30.8774 66.0187 31.395ZM52.1718 35.5478V37.844H55.4557L58.7396 37.8438L58.7369 35.5469L58.7343 33.2502L55.4531 33.2509L52.1718 33.2515V35.5478ZM50.7694 40.9841C50.06 42.1321 48.3511 43.6113 46.9909 44.2547C44.224 45.5637 41.679 45.582 39.0048 44.312L37.4062 43.5529V51.8545V60.1563H38.0482C38.8922 60.1563 39.6902 60.4715 40.2412 61.0225C40.6605 61.4418 40.6874 61.7319 40.6874 65.8438V70.2188H42.0675C43.5019 70.2188 43.8696 70.3843 44.4836 71.3066C44.777 71.7469 44.8437 72.4415 44.8437 75.0496V78.2519L46.4922 79.5145C47.433 80.2351 48.3721 81.172 48.6797 81.6968C49.1647 82.5243 49.2187 82.8592 49.2187 85.0373V87.4582L50.38 88.1136C52.5888 89.3603 53.9872 91.2942 54.5628 93.8984C54.8548 95.219 55.9479 94.3692 56.3217 92.5313C56.6422 90.9556 57.7423 89.6998 60.2505 88.0469L61.5781 87.1719L61.6874 84.5469C61.7518 83.0047 61.9132 81.7182 62.0788 81.4279C62.3934 80.8771 64.268 79.3347 65.2238 78.8406L65.8437 78.5201V75.3467C65.8437 72.1429 66.0657 70.961 66.7511 70.5189C66.9138 70.4139 67.7359 70.2789 68.5781 70.2188L70.1093 70.1094L70.2187 65.8438C70.29 63.0599 70.4215 61.4152 70.5969 61.1089C70.9084 60.5653 71.9344 60.1563 72.9857 60.1563H73.7187V51.84V43.5238L72.6287 44.0762C68.4849 46.1762 64.3857 45.4357 60.9765 41.9718L59.4999 40.4716V43.7515C59.4999 46.7397 59.461 47.0702 59.0624 47.4688C58.5731 47.9581 57.7545 48.0421 57.3562 47.6438C57.1735 47.4611 57.0937 46.2971 57.0937 43.8156V40.25H55.8906H54.6874V43.745C54.6874 47.2288 54.6857 47.241 54.1421 47.5972C53.4237 48.0679 52.5489 47.8446 52.2735 47.1203C52.1574 46.8151 52.0624 45.1443 52.0624 43.4077C52.0624 40.4405 52.0371 40.25 51.6429 40.25C51.4025 40.25 51.0291 40.5639 50.7694 40.9841ZM49.362 47.2126C48.8446 47.7842 48.914 48.7414 49.5676 50.0531C50.2077 51.3378 51.4731 52.4764 53.0643 53.1996C53.9299 53.5929 54.5072 53.6841 56.0144 53.6653C58.1732 53.6384 59.5533 53.0882 60.9398 51.7018C62.9144 49.7274 63.1329 46.6386 61.2828 46.8554C60.8216 46.9092 60.6381 47.1286 60.3117 48.0156C59.7848 49.4478 58.8037 50.4368 57.4702 50.8797C55.0289 51.6906 51.9544 50.3978 51.4847 48.363C51.1485 46.9064 50.1357 46.3575 49.362 47.2126ZM67.1562 52.5C66.7589 52.8973 66.7187 53.2291 66.7187 56.1094C66.7187 59.0334 66.7544 59.3169 67.1752 59.7378C67.5104 60.0729 67.7864 60.1569 68.2143 60.0539C69.2402 59.8067 69.3437 59.4416 69.3437 56.0676C69.3437 53.2291 69.303 52.8968 68.9062 52.5C68.6656 52.2594 68.2718 52.0625 68.0312 52.0625C67.7906 52.0625 67.3968 52.2594 67.1562 52.5ZM41.6874 54.3749C41.406 54.6564 41.3437 55.3037 41.3437 57.9462C41.3437 61.0372 41.3651 61.1938 41.8499 61.6494C42.4768 62.2381 42.7544 62.2455 43.3124 61.6875C43.7099 61.29 43.7499 60.9584 43.7499 58.0637C43.7499 56.2857 43.6498 54.6906 43.5235 54.4543C43.2446 53.9335 42.1752 53.8873 41.6874 54.3749ZM51.7135 56.023C51.3428 56.4327 51.2968 56.8448 51.2968 59.761C51.2968 62.9416 51.3121 63.051 51.8133 63.4568C52.47 63.9888 52.8283 63.9842 53.3749 63.4375C53.7744 63.0381 53.8124 62.7084 53.8124 59.6433C53.8124 56.6692 53.7669 56.2452 53.4124 55.9245C52.8681 55.4319 52.2143 55.4698 51.7135 56.023ZM57.4765 58.4238C57.1256 58.6281 57.0937 59.1837 57.0937 65.0766C57.0937 71.4731 57.0963 71.5083 57.58 71.8469C58.2224 72.2971 58.5359 72.2765 59.0624 71.75C59.4798 71.3326 59.4999 71.0209 59.4999 64.9764C59.4999 58.9361 59.4803 58.6298 59.0769 58.4139C58.5482 58.1311 57.9731 58.1346 57.4765 58.4238ZM62.0057 63.7558C61.4779 64.2834 61.4687 64.3563 61.4687 67.9875C61.4687 71.2891 61.5114 71.7207 61.8688 72.0442C62.3971 72.5224 63.2808 72.5043 63.7317 72.0062C64.0388 71.6669 64.0933 71.0452 64.0904 67.9046C64.0884 65.8689 64.0147 64.0948 63.9264 63.9625C63.7638 63.719 62.9227 63.2188 62.6762 63.2188C62.6027 63.2188 62.301 63.4605 62.0057 63.7558ZM47.0749 63.7C46.8905 63.8844 46.8124 65.1166 46.8124 67.8438C46.8124 71.6067 46.8273 71.7356 47.2987 72.0657C47.9176 72.4992 48.4393 72.4981 48.875 72.0626C49.1609 71.7765 49.2187 71.0819 49.2187 67.9219C49.2187 64.7618 49.1609 64.0673 48.875 63.7812C48.4682 63.3745 47.4466 63.3284 47.0749 63.7ZM51.8437 74.9643C51.0359 75.2531 50.9687 75.6737 50.9687 80.4425C50.9687 85.0758 50.9729 85.1178 51.4915 85.6365C52.095 86.24 52.7708 86.1713 53.2724 85.4554C53.5305 85.0868 53.5937 84.084 53.5937 80.3578V75.7192L53.0173 75.266C52.4107 74.7889 52.3665 74.7775 51.8437 74.9643ZM57.4557 75.4314C57.1425 75.7774 57.0937 76.4654 57.0937 80.5381C57.0937 84.8199 57.1298 85.2773 57.4938 85.6067C58.0254 86.0878 58.5302 86.0635 59.0624 85.5313C59.4719 85.1218 59.4999 84.8022 59.4999 80.5488C59.4999 76.7891 59.4411 75.9196 59.1594 75.5175C58.7464 74.9278 57.9479 74.8873 57.4557 75.4314ZM38.7355 79.3894C38.2311 79.8939 38.1469 80.1896 37.8579 82.4688C37.4845 85.4114 37.1947 86.7724 36.6167 88.2969C35.2651 91.861 35.1487 92.7695 35.9736 93.31C36.8974 93.9153 37.3605 93.5511 38.3129 91.4712C40.2209 87.3051 40.47 87.0625 42.8408 87.0625C44.5727 87.0625 45.2812 86.6596 45.2812 85.6745C45.2812 84.7735 44.5311 84.3362 42.9159 84.2951C40.9637 84.2452 40.6874 83.9125 40.6874 81.6113C40.6874 79.8315 40.4847 79.3336 39.6595 79.0891C39.329 78.9911 39.0398 79.0851 38.7355 79.3894ZM75.281 92.7896C75.1775 93.0685 74.9741 93.7996 74.8289 94.4138L74.5653 95.5308L73.3674 95.818C70.9907 96.3883 70.9644 96.9474 73.2648 98.0077L74.8125 98.721V99.6457C74.8125 100.964 75.0424 101.938 75.3536 101.938C75.5009 101.938 76.0644 101.488 76.6058 100.939L77.5899 99.9408L79.026 100.73C79.8159 101.164 80.5192 101.427 80.5888 101.315C80.6583 101.202 80.3704 100.353 79.9491 99.4282C79.5276 98.5036 79.2498 97.6316 79.3316 97.4908C79.4136 97.3497 79.8575 96.7778 80.3184 96.2196C81.7265 94.5142 81.3931 94.0378 79.1903 94.6087C78.4402 94.803 77.787 94.9224 77.7387 94.8741C77.6903 94.8257 77.3812 94.2543 77.052 93.604C76.3673 92.2528 75.6098 91.9043 75.281 92.7896ZM44.929 97.8965C44.5803 98.4288 44.5926 98.4907 45.2606 99.5654C45.8911 100.579 45.9237 100.715 45.6179 101.053C45.1664 101.552 45.1928 102.227 45.6813 102.669C46.1838 103.124 46.5624 103.127 47.0553 102.681C47.4096 102.361 47.4836 102.361 47.9414 102.681C49.3489 103.667 50.9166 102.094 49.6601 100.957C49.2303 100.568 49.232 100.558 49.8789 99.8215C50.6519 98.9409 50.6789 98.6843 50.0777 97.9202C49.556 97.2569 48.7007 97.1618 47.955 97.6844C47.5149 97.9926 47.4225 97.9926 46.9824 97.6844C46.2349 97.1607 45.3514 97.2521 44.929 97.8965Z" fill="#DDDDDD"/>
</svg>
