<svg width="512" height="512" viewBox="0 0 512 512" fill="none" xmlns="http://www.w3.org/2000/svg">
<path d="M496.762 212.227H346.362C386.852 98.2281 350.765 16.234 349.113 12.598C347.118 8.20404 343.16 5.01504 338.441 4.00104C333.721 2.98604 328.803 4.26704 325.179 7.45204C266.304 59.19 266.474 169.687 268.946 212.229H248.813C252.084 177.033 254.204 97.663 215.411 45.375C211.308 39.845 204.004 37.756 197.602 40.271C193.823 41.755 104.857 77.414 86.847 146.08C85.745 150.28 86.487 154.75 88.888 158.369C91.287 161.988 95.118 164.41 99.415 165.029C100.66 165.208 126.148 168.647 160.429 156.35L169.898 212.228H15.238C6.823 212.228 0 219.051 0 227.466C0 235.881 6.823 242.704 15.238 242.704H114.538V493.101C114.538 501.516 121.361 508.339 129.776 508.339H382.232C390.647 508.339 397.47 501.516 397.47 493.101V242.703H496.762C505.177 242.703 512 235.88 512 227.465C512 219.05 505.177 212.227 496.762 212.227ZM328.849 49.472C336.087 80.75 342.216 139.815 313.819 212.227H299.534C297.622 180.163 296.456 98.478 328.849 49.472ZM165.444 121.127C149.77 128.923 135.572 132.465 124.747 134.011C142.771 103.59 179.225 82.751 197.613 73.711C223.879 119.034 220.855 184.802 218.144 212.228H200.811L187.253 132.225C186.447 127.47 183.438 123.377 179.14 121.19C174.842 119.003 169.763 118.979 165.444 121.127ZM366.993 477.863H145.014V304.228H366.993V477.863ZM366.993 273.752H145.014V242.705H366.993V273.752Z" fill="white"/>
</svg>
