<svg width="512" height="512" viewBox="0 0 512 512" fill="none" xmlns="http://www.w3.org/2000/svg">
<path d="M377.507 0H134.495C106.724 0 84.1309 22.593 84.1309 50.363V461.637C84.1309 489.407 106.725 512 134.495 512H377.505C405.276 512 427.869 489.407 427.87 461.637V50.363C427.871 22.593 405.277 0 377.507 0ZM397.346 461.637C397.346 472.576 388.445 481.476 377.506 481.476H134.495C123.555 481.476 114.655 472.576 114.655 461.637V50.363C114.655 39.424 123.556 30.524 134.495 30.524H377.506C388.446 30.524 397.346 39.424 397.346 50.363V461.637Z" fill="white"/>
<path d="M157.791 63.449C149.362 63.449 142.529 70.282 142.529 78.711V104.612C142.529 113.041 149.362 119.874 157.791 119.874C166.22 119.874 173.053 113.042 173.053 104.612V78.711C173.053 70.282 166.22 63.449 157.791 63.449Z" fill="white"/>
<path d="M354.207 392.126C345.778 392.126 338.945 398.959 338.945 407.388V433.289C338.945 441.718 345.778 448.551 354.207 448.551C362.636 448.551 369.469 441.718 369.469 433.289V407.388C369.469 398.96 362.635 392.126 354.207 392.126Z" fill="white"/>
<path d="M320.654 248.368L269.217 159.276C266.491 154.554 261.453 151.645 256 151.645C250.547 151.645 245.509 154.554 242.783 159.276L191.346 248.368C188.619 253.09 188.619 258.908 191.346 263.63L242.783 352.722C245.509 357.444 250.547 360.353 256 360.353C261.452 360.353 266.491 357.444 269.217 352.722L320.654 263.63C323.381 258.908 323.381 253.091 320.654 248.368ZM255.999 314.568L222.185 256L255.999 197.432L289.813 256L255.999 314.568Z" fill="white"/>
</svg>
