<svg width="512" height="512" viewBox="0 0 512 512" fill="none" xmlns="http://www.w3.org/2000/svg">
<path d="M496.822 82.717H315.995C290.138 82.717 269.159 91.363 256 106.111C242.84 91.363 221.862 82.717 196.004 82.717H15.178C6.796 82.717 0 89.513 0 97.895V414.105C0 422.487 6.796 429.283 15.178 429.283H496.822C505.204 429.283 512 422.487 512 414.105V97.895C512 89.513 505.204 82.717 496.822 82.717ZM30.356 398.927V370.121H196.839C215.759 370.121 231.926 382.131 238.121 398.927H30.356ZM240.822 354.222C228.496 345.145 213.286 339.766 196.839 339.766H30.356V113.073H196.004C206.518 113.073 240.822 115.575 240.822 147.773V354.222ZM481.644 398.927H273.88C280.075 382.131 296.242 370.121 315.162 370.121H481.645L481.644 398.927ZM481.644 339.766H315.161C298.713 339.766 283.504 345.144 271.178 354.222V147.773C271.178 115.576 305.481 113.073 315.995 113.073H481.644V339.766Z" fill="white"/>
<path d="M434.989 268.543C416.483 263.651 403.558 246.844 403.558 227.67C403.558 208.496 416.483 191.69 434.99 186.798C440.9 185.236 445.296 180.283 446.143 174.229C446.99 168.176 444.124 162.204 438.871 159.079C426.579 151.766 412.494 147.902 398.139 147.902C354.155 147.902 318.371 183.685 318.371 227.669C318.371 271.655 354.154 307.439 398.139 307.439C412.495 307.439 426.578 303.575 438.87 296.262C444.123 293.136 446.988 287.166 446.142 281.112C445.293 275.059 440.897 270.105 434.989 268.543ZM392.282 276.738C367.785 273.833 348.726 252.936 348.726 227.671C348.726 202.406 367.785 181.51 392.282 178.605C380.325 191.672 373.2 209.021 373.2 227.671C373.2 246.323 380.325 263.67 392.282 276.738Z" fill="white"/>
<path d="M176.067 162.909H87.0237C78.6417 162.909 71.8457 169.705 71.8457 178.087C71.8457 186.469 78.6417 193.265 87.0237 193.265H176.067C184.449 193.265 191.245 186.469 191.245 178.087C191.245 169.705 184.449 162.909 176.067 162.909Z" fill="white"/>
<path d="M176.067 212.493H87.0237C78.6417 212.493 71.8457 219.289 71.8457 227.671C71.8457 236.053 78.6417 242.849 87.0237 242.849H176.067C184.449 242.849 191.245 236.053 191.245 227.671C191.245 219.289 184.449 212.493 176.067 212.493Z" fill="white"/>
<path d="M176.067 262.078H87.0237C78.6417 262.078 71.8457 268.874 71.8457 277.256C71.8457 285.638 78.6417 292.434 87.0237 292.434H176.067C184.449 292.434 191.245 285.638 191.245 277.256C191.245 268.874 184.449 262.078 176.067 262.078Z" fill="white"/>
</svg>
