<svg width="512" height="512" viewBox="0 0 512 512" fill="none" xmlns="http://www.w3.org/2000/svg">
<g clip-path="url(#clip0_699_99359)">
<path d="M507.527 70.6549L442.074 5.20295C436.113 -0.759055 426.447 -0.759055 420.485 5.20295L5.93439 419.755C-0.0276093 425.717 -0.0276093 435.382 5.93439 441.344L71.3874 506.797C74.3684 509.778 78.2754 511.269 82.1814 511.269C86.0874 511.269 89.9954 509.779 92.9754 506.797L507.527 92.2439C510.39 89.3809 511.999 85.4979 511.999 81.4499C511.999 77.4019 510.39 73.5169 507.527 70.6549ZM82.1804 474.412L38.3174 430.549L342.738 126.128L386.601 169.991L82.1804 474.412ZM408.191 148.403L364.328 104.54L431.281 37.5869L475.145 81.4499L408.191 148.403Z" fill="white"/>
<path d="M119.344 183.373C99.927 179.303 84.751 164.127 80.68 144.709C79.198 137.639 72.963 132.576 65.739 132.576C58.515 132.576 52.28 137.64 50.798 144.709C46.727 164.126 31.551 179.302 12.134 183.372C5.064 184.853 0 191.089 0 198.313C0 205.537 5.063 211.772 12.133 213.254C31.55 217.325 46.726 232.501 50.796 251.918C52.279 258.988 58.513 264.052 65.737 264.052C72.961 264.052 79.196 258.988 80.678 251.919C84.749 232.502 99.926 217.326 119.343 213.256C126.413 211.773 131.476 205.539 131.476 198.315C131.478 191.091 126.413 184.855 119.344 183.373ZM65.739 213.139C61.465 207.575 56.477 202.587 50.913 198.313C56.477 194.039 61.465 189.051 65.739 183.488C70.013 189.052 75.001 194.04 80.565 198.314C75.001 202.588 70.013 207.576 65.739 213.139Z" fill="white"/>
<path d="M461.796 316.759C442.379 312.688 427.203 297.511 423.133 278.095C421.65 271.025 415.416 265.961 408.192 265.961C400.968 265.961 394.733 271.025 393.251 278.094C389.18 297.511 374.003 312.687 354.586 316.758C347.516 318.24 342.453 324.475 342.453 331.699C342.453 338.923 347.517 345.158 354.586 346.64C374.003 350.711 389.179 365.887 393.249 385.304C394.732 392.374 400.966 397.438 408.19 397.438C415.414 397.438 421.649 392.374 423.131 385.305C427.202 365.888 442.379 350.712 461.796 346.642C468.866 345.159 473.929 338.925 473.929 331.701C473.929 324.478 468.867 318.241 461.796 316.759ZM408.19 346.526C403.916 340.962 398.928 335.974 393.364 331.7C398.928 327.426 403.916 322.438 408.19 316.874C412.464 322.438 417.452 327.427 423.016 331.7C417.454 335.974 412.466 340.962 408.19 346.526Z" fill="white"/>
<path d="M277.473 75.0051C250.741 69.4011 229.849 48.5091 224.246 21.7771C222.763 14.7071 216.529 9.64307 209.305 9.64307C202.081 9.64307 195.846 14.7071 194.364 21.7761C188.76 48.5081 167.868 69.4001 141.136 75.0031C134.066 76.4861 129.002 82.7201 129.002 89.9441C129 97.1681 134.064 103.402 141.134 104.884C167.866 110.488 188.758 131.381 194.361 158.113C195.844 165.183 202.078 170.247 209.302 170.247C216.526 170.247 222.761 165.183 224.243 158.114C229.848 131.382 250.74 110.49 277.472 104.887C284.542 103.404 289.606 97.1701 289.606 89.9461C289.606 82.7231 284.543 76.4871 277.473 75.0051ZM209.303 116.575C202.205 106.087 193.161 97.0421 182.673 89.9441C193.161 82.8461 202.206 73.8021 209.303 63.3151C216.401 73.8031 225.445 82.8471 235.933 89.9451C225.445 97.0431 216.4 106.088 209.303 116.575Z" fill="white"/>
</g>
<defs>
<clipPath id="clip0_699_99359">
<rect width="512" height="512" fill="white"/>
</clipPath>
</defs>
</svg>
