<svg width="228" height="228" viewBox="0 0 228 228" fill="none" xmlns="http://www.w3.org/2000/svg">
<g clip-path="url(#clip0_1543_10011)">
<path fill-rule="evenodd" clip-rule="evenodd" d="M82.499 24.2949C78.6858 26.195 75.1879 30.8352 74.1267 35.401C73.4017 38.519 73.5358 44.4644 74.3596 45.7304C76.1858 48.5372 79.853 46.6246 83.7187 40.8494C84.8605 39.1434 86.2036 38.361 86.8377 39.032C87.0341 39.24 87.0261 40.4121 86.8194 41.6367C85.732 48.0808 86.7847 57.6114 89.2549 63.6908C91.7691 69.8788 94.5443 72.6251 98.9275 73.2632C103.699 73.9575 111.257 69.7631 106.942 68.8154C104.899 68.3666 102.803 65.867 102.544 63.5688C102.237 60.8448 103.296 58.9308 105.682 57.8959C110.163 55.9521 114.717 56.4099 117.379 59.0724C118.688 60.3812 118.898 60.8898 118.898 62.7378C118.898 65.4907 117.541 67.5953 114.966 68.8341L113.045 69.7586L114.126 70.7984C115.718 72.3312 118.79 73.424 121.57 73.4476C124.497 73.4721 127.844 71.7821 129.709 69.3369C133.875 63.8751 136.356 51.2216 134.947 42.6213C134.185 37.9637 135.332 37.4837 138.16 41.2778C141.583 45.8694 142.639 46.7578 144.672 46.7578C146.879 46.7578 147.658 45.7888 148.075 42.5273C148.912 35.9763 145.177 27.6953 140.023 24.6752C136.997 22.9015 133.778 22.7764 129.134 24.2517C125.483 25.4117 125.153 25.4398 119.344 25.0875C116.037 24.8867 110.927 24.8212 107.988 24.9415C98.0289 25.3489 95.2906 25.21 92.2892 24.1448C88.5107 22.8035 85.3958 22.8516 82.499 24.2949ZM44.1109 45.6868C39.3821 46.9577 37.152 49.8291 37.225 54.5507C37.2913 58.84 39.717 62.5147 43.218 63.6311C44.4716 64.031 45.2562 63.9972 47.0032 63.4672C50.3421 62.4546 50.8814 62.5869 53.311 65.016C56.141 67.8464 60.2013 75.5971 62.9752 83.4649C65.4351 90.4407 66.6094 92.2505 69.6375 93.7298C75.0436 96.3714 81.9482 95.5266 94.5799 90.6785L97.6481 89.5006L97.3876 91.7036C97.0416 94.6249 95.3962 97.0055 92.519 98.7485C87.7568 101.633 83.1287 102.636 72.3633 103.117C55.6467 103.863 48.2184 106.433 43.7871 113.002C39.7895 118.93 39.3442 126.698 42.8123 130.022C46.9163 133.955 53.1471 133.426 55.9544 128.907C60.9878 120.804 61.2193 120.673 71.494 120.168C79.7657 119.762 82.9608 119.325 89.2117 117.744C97.9883 115.526 105.959 111.212 112.168 105.32C115.419 102.236 120.02 96.6439 121.972 93.4043C123.14 91.4663 123.94 91.3051 124.926 92.8089C125.589 93.8206 125.552 94.0375 124.306 96.5059C121.972 101.131 117.548 106.29 111.996 110.862C102.401 118.763 90.3165 123.01 74.031 124.202C70.0828 124.491 69.3053 124.683 68.2918 125.614C67.0168 126.785 64.9283 131.028 63.0429 136.277C61.0897 141.714 58.7006 147.078 57.5553 148.601C56.2848 150.289 53.5087 151.895 47.3719 154.491C41.8148 156.842 38.9533 158.952 37.0767 162.082C34.4983 166.383 34.5879 169.623 37.3617 172.396C39.7121 174.746 41.1086 174.993 43.7417 173.523C46.3877 172.046 46.7912 172.047 48.5635 173.538C50.9366 175.535 52.5838 175.226 55.4467 172.246C57.1474 170.476 58.4798 169.54 60.0299 169.025C61.2322 168.626 62.6327 167.855 63.1422 167.311C63.6516 166.769 64.984 164.137 66.1031 161.465C69.4652 153.437 73.7014 146.702 77.7756 142.909C82.357 138.643 89.4432 134.854 95.2363 133.573C99.9036 132.541 108.006 132.444 112.219 133.371C113.811 133.721 115.344 134.015 115.625 134.023C115.907 134.032 116.389 132.987 116.695 131.701C117.813 127.016 123.736 114.7 126.813 110.66C128.038 109.052 128.814 108.434 129.605 108.434C130.375 108.434 130.738 108.709 130.832 109.364C130.905 109.876 129.144 113.984 126.917 118.493C121.706 129.049 120.523 132.263 120.839 135.021C121.235 138.491 123.229 141.928 127.137 145.88C131.137 149.925 132.973 151.264 138.725 154.333C145.794 158.105 146.276 158.41 146.846 159.481C147.825 161.32 146.751 165.446 144.883 167.023C144.43 167.406 142.705 168.28 141.051 168.965C137.29 170.523 133.979 173.897 133.209 176.956C131.74 182.787 133.708 187.477 137.623 187.477C139.1 187.477 141.71 186.075 141.951 185.151C142.232 184.08 143.024 184.352 143.709 185.756C144.745 187.879 145.975 188.592 148.558 188.566C152.983 188.523 153.9 187.224 159.241 173.449C163.049 163.626 163.358 161.823 161.762 158.732C161.25 157.741 159.083 154.735 156.948 152.053C151.722 145.491 150.328 142.504 150.308 137.824C150.289 133.345 151.045 131.708 155.652 126.246C159.841 121.279 161.472 118.848 162.439 116.125C163.012 114.511 163.369 114.062 163.936 114.242C166 114.897 170.412 115.331 175.008 115.33C187.756 115.327 199.966 109.831 208.518 100.244C210.268 98.2813 210.633 97.5751 210.633 96.1496C210.633 94.7999 210.39 94.2677 209.511 93.6915C207.957 92.6735 206.379 93.0204 200.504 95.6713C181.177 104.391 167.673 104.068 156.599 94.6186C150.81 89.6792 146.512 83.712 140.496 72.2626C138.537 68.5331 136.833 65.4796 136.711 65.476C136.588 65.4729 135.95 66.6281 135.292 68.0433C132.981 73.0112 128.107 76.9981 123.431 77.7457C121.869 77.996 121.308 78.3901 120.018 80.1478C118.069 82.8027 115.461 84.5399 112.515 85.1442C108.449 85.9782 104.929 84.4 101.891 80.3802C100.497 78.5366 99.8765 78.0962 98.0948 77.6861C93.3272 76.5888 89.2362 73.3269 86.945 68.7954L85.6652 66.2642L84.2451 69.0911C82.2171 73.1287 81.3163 74.0862 79.885 73.7268C77.9755 73.2476 74.7688 69.4758 71.7679 64.1797C65.2819 52.7321 59.9631 47.4204 53.2326 45.6676C49.9894 44.8229 47.3033 44.8287 44.1109 45.6868ZM99.5874 47.2356C97.6414 48.7661 98.3887 50.7464 101.175 51.4416C102.114 51.6758 102.626 51.4928 103.513 50.6057C104.88 49.2382 104.942 48.3872 103.758 47.2031C102.613 46.0582 101.069 46.0702 99.5874 47.2356ZM117.854 47.1269C115.477 49.7538 119.557 52.6751 122.35 50.3452C123.588 49.313 123.621 48.3631 122.461 47.2031C121.324 46.0658 118.851 46.0252 117.854 47.1269ZM106.907 60.8452C104.885 63.416 106.053 65.5054 109.682 65.806C113.038 66.0843 114.301 65.6965 115.105 64.1401C116.475 61.4927 114.486 59.6718 110.226 59.6718C108.168 59.6718 107.7 59.8375 106.907 60.8452ZM110.184 73.5264C109.8 74.1476 110.959 74.914 111.486 74.3872C111.914 73.9592 111.502 73.0312 110.883 73.0312C110.667 73.0312 110.352 73.2539 110.184 73.5264ZM105.65 75.6185C104.855 75.9983 104.203 76.5478 104.203 76.84C104.203 77.8384 108.093 80.9845 109.7 81.286C111.87 81.693 114.15 80.8335 115.759 79.0002C117.28 77.2684 117.508 75.9195 116.338 75.5829C115.909 75.4595 115.205 75.2132 114.773 75.0356C114.163 74.7849 113.881 75.0218 113.504 76.1012C112.653 78.5433 109.124 78.5767 108.279 76.1511C107.758 74.6593 107.69 74.6455 105.65 75.6185ZM106.207 156.575C93.5922 156.946 75.5459 158.124 72.7289 158.759C72.0315 158.916 71.49 159.697 70.8016 161.538C69.2234 165.758 66.7403 170.108 65.2775 171.214C64.5213 171.786 63.0598 172.478 62.0298 172.752C60.6809 173.111 59.7066 173.801 58.5439 175.219C55.6298 178.776 50.7652 180.046 47.2436 178.169C45.9215 177.465 45.5759 177.439 44.5718 177.963C42.8742 178.849 39.0054 178.724 37.0544 177.721C33.1624 175.719 31.4199 172.587 31.4052 167.569C31.3954 164.149 31.3375 163.928 30.5039 164.112C30.014 164.221 27.409 164.797 24.7148 165.393C14.9193 167.559 4.65617 171.457 1.53587 174.197C-0.503218 175.987 -0.632359 178.47 1.22459 180.197C6.43341 185.044 28.8268 191.459 52.1015 194.771C74.5266 197.962 87.7974 198.72 123.352 198.841C153.719 198.945 163.963 198.717 184.137 197.487C190.505 197.098 198.721 196.597 202.395 196.372C206.068 196.147 210.878 195.767 213.082 195.528C215.286 195.289 218.666 194.963 220.592 194.805L224.095 194.516L223.848 193.112C223.713 192.339 223.167 189.703 222.637 187.254C221.814 183.457 221.711 181.948 221.936 177.012C222.081 173.828 222.495 169.92 222.858 168.328C223.22 166.736 223.523 164.709 223.531 163.824C223.546 162.239 223.515 162.21 221.432 161.922C220.268 161.761 215.008 161.328 209.742 160.961C204.476 160.593 198.565 160.108 196.605 159.881C194.646 159.654 190.538 159.348 187.477 159.2C184.415 159.051 178.437 158.623 174.192 158.248C169.947 157.873 166.395 157.644 166.3 157.739C166.204 157.835 166.337 158.678 166.595 159.613C167.238 161.941 166.473 166.062 164.357 171.668C158.313 187.681 157.206 189.675 153.249 191.671C150.211 193.203 147.942 193.465 145.586 192.554C144.391 192.091 142.078 191.746 139.72 191.678C136.772 191.594 135.33 191.326 133.779 190.576C126.686 187.142 126.379 176.175 133.181 169.229C135.09 167.278 140.085 164.32 141.467 164.32C141.801 164.32 142.299 163.825 142.575 163.22C143.009 162.269 142.931 161.997 142.009 161.214C141.422 160.715 139.31 159.486 137.316 158.48L133.691 156.652L122.398 156.541C116.187 156.48 108.901 156.495 106.207 156.575ZM188.985 163.87C186.089 165.027 185.265 168.857 187.442 171.034C189.87 173.462 193.791 172.285 194.419 168.941C195.01 165.79 191.764 162.76 188.985 163.87ZM178.603 169.947C176.57 172.53 177.827 176.626 180.971 177.664C183.559 178.518 185.328 177.194 185.938 173.947C186.213 172.477 186.08 172.171 184.462 170.552C182.226 168.317 180.061 168.093 178.603 169.947ZM196.816 169.532C195.084 170.726 194.631 171.535 194.616 173.461C194.59 176.764 196.942 178.648 199.669 177.508C202.861 176.174 204.087 172.422 202.139 169.947C201.032 168.539 198.539 168.345 196.816 169.532ZM173.735 178.245C172.803 178.693 172.714 178.963 172.946 180.654C173.3 183.241 173.997 184.218 176.277 185.323C178.103 186.209 178.3 186.222 179.705 185.552C182.477 184.23 182.285 180.355 179.359 178.571C177.762 177.597 175.371 177.458 173.735 178.245ZM189.035 178.184C187.54 178.929 186.4 180.864 186.456 182.56C186.5 183.867 186.271 184.289 185.116 185.027C181.942 187.058 181.038 190.089 183.008 192.097C184.011 193.119 187.041 193.291 188.128 192.388C189.058 191.617 190.478 191.58 191.789 192.292C192.324 192.582 193.686 192.82 194.815 192.82C196.402 192.82 197.117 192.572 197.961 191.727C199.66 190.029 199.37 188.759 196.605 185.772C195.258 184.317 194.156 182.783 194.156 182.363C194.156 180.98 192.798 178.703 191.665 178.187C190.366 177.595 190.217 177.595 189.035 178.184ZM201.771 178.372C199.838 179.211 199.087 180.215 199.069 181.985C199.048 184.047 199.475 184.837 200.94 185.453C202.772 186.223 204.246 185.819 206.003 184.061C207.25 182.814 207.516 182.215 207.516 180.649C207.516 179.603 207.275 178.508 206.981 178.214C206.257 177.49 203.619 177.57 201.771 178.372Z" fill="white"/>
</g>
<defs>
<clipPath id="clip0_1543_10011">
<rect width="228" height="228" fill="white"/>
</clipPath>
</defs>
</svg>
