<svg width="228" height="228" viewBox="0 0 228 228" fill="none" xmlns="http://www.w3.org/2000/svg">
<path fill-rule="evenodd" clip-rule="evenodd" d="M125.611 14.288C124.527 14.5009 122.678 14.9947 121.501 15.3853C120.324 15.7762 118.975 15.9735 118.504 15.8239C117.387 15.4694 108.335 16.3556 104.741 17.1714C100.534 18.1266 99.4003 18.8502 99.0298 20.8185C98.6161 23.0152 99.8799 29.283 101.836 34.7336C102.671 37.0604 103.454 39.2647 103.577 39.6321C103.722 40.0658 101.854 42.1329 98.25 45.5293C92.1016 51.3229 86.6572 57.4552 81.2689 64.6577C79.3096 67.2766 77.506 69.3691 77.2611 69.3077C76.3705 69.085 73.459 62.7905 72.3645 58.7213C71.1207 54.0967 70.8655 48.9351 71.6938 45.1361C72.1026 43.2609 72.0701 42.5538 71.5144 41.2236C70.1936 38.0628 65.7391 37.4456 63.4952 40.1126C61.5959 42.3698 61.2285 44.5096 61.2464 53.2141C61.2602 60.1418 61.4035 61.7734 62.3035 65.2375C63.7886 70.9553 65.5129 75.1992 68.5677 80.6538C71.0379 85.0651 71.2298 85.6088 71.1666 88.0184C71.0321 93.1395 73.2257 98.2405 77.0358 101.666C80.9056 105.146 82.6632 105.761 88.7279 105.761C91.606 105.761 93.9603 105.884 93.9603 106.035C93.9603 106.186 93.0786 108.19 92.0005 110.488C84.7103 126.033 84.5055 126.553 84.7116 129.037C84.8626 130.859 85.1935 131.686 86.1865 132.722C88.7871 135.437 92.8618 135.482 95.3983 132.823C96.3472 131.829 104.961 115.055 108.895 106.542C109.513 105.205 109.964 104.73 110.437 104.921C111.792 105.469 118.424 105.955 125.232 106.004C129.083 106.032 132.704 106.189 133.278 106.353C134.315 106.65 134.296 106.714 130.136 117.116C125.388 128.992 125.26 129.855 127.865 132.542C131.368 136.157 136.298 135.29 138.643 130.647C142.027 123.945 149.423 105.385 150.071 101.97C150.661 98.8573 149.691 95.9044 147.254 93.3964C144.486 90.5495 142.452 89.9915 132.65 89.3913L124.358 88.8836L125.571 85.2988C126.927 81.2906 128.6 77.8025 130.6 74.8117C132.073 72.6101 134.48 69.9133 134.971 69.9133C135.143 69.9133 137.859 71.4394 141.007 73.3044C144.155 75.1693 148.333 77.6034 150.292 78.7127C152.252 79.8224 155.157 81.5613 156.749 82.5771C160.369 84.8865 161.779 85.4992 163.472 85.4992C166.244 85.4992 168.945 83.1765 169.479 80.3332C170.172 76.6375 168.386 73.6847 163.951 71.1905C162.562 70.4094 159.611 68.6994 157.394 67.3906L153.363 65.0104L151.416 65.9514C148.566 67.3283 144.075 67.892 141.017 67.257C137.459 66.5187 133.431 64.3692 131.542 62.2014C130.018 60.4513 127.839 56.3647 127.113 53.8936L126.79 52.7915L128.299 53.9337C135.713 59.546 139.041 61.0805 144.404 61.3593C148.094 61.5512 148.473 61.4835 151.167 60.1578C153.728 58.8967 158.085 54.941 158.085 53.8763C158.085 53.6812 159.183 52.9024 160.525 52.1453C165.406 49.3902 166.215 44.0678 162.202 41.1145C161.48 40.5828 159.306 39.6067 157.372 38.9454C152.067 37.1312 151.482 36.6948 151.159 34.3119C150.697 30.8964 149.556 26.5862 148.627 24.7466C147.293 22.1041 143.528 18.3751 140.513 16.7127C136.072 14.2626 130.424 13.344 125.611 14.288ZM132.843 26.0104C129.19 27.659 129.091 33.9793 132.688 35.8393C136.623 37.874 140.718 35.2738 140.718 30.7414C140.718 26.9656 136.432 24.3908 132.843 26.0104ZM152.853 123.704L150.07 123.838V127.217C150.07 133.559 148.224 136.601 143.065 138.762C140.248 139.941 139.641 140.025 133.816 140.037C128.477 140.048 127.164 139.906 124.672 139.044C121.243 137.858 118.766 135.954 117.549 133.568C116.867 132.231 116.671 130.949 116.671 127.822V123.796H112.441H108.21L108.208 127.025C108.202 134.273 106.042 137.147 98.9149 139.386C96.8424 140.037 94.8006 140.282 91.3446 140.294C80.2055 140.332 74.8426 136.569 74.1128 128.202C73.9444 126.268 73.7556 124.687 73.6937 124.687C72.2821 124.687 52.52 127.844 45.6439 129.168C34.6269 131.289 28.698 132.83 27.5487 133.87C27.0602 134.312 26.7182 135.222 26.7182 136.081C26.7182 138.474 28.0439 139.027 40.3002 141.749C58.4324 145.777 75.3832 148.639 89.5072 150.058C92.0789 150.317 94.9846 150.62 95.9642 150.733C105.974 151.882 127.804 152.775 143.835 152.69C175.754 152.52 194.559 150.461 212.413 145.181C218.547 143.368 222.21 140.786 222.21 138.277C222.21 135.298 213.165 131.932 196.382 128.666C184.379 126.331 171.958 124.755 156.972 123.667C156.237 123.614 154.384 123.63 152.853 123.704ZM22.1973 171.453C18.3908 173.464 17.575 177.692 20.0465 182.6C25.0776 192.591 32.4239 199.055 42.0814 201.991C46.2197 203.249 55.2556 203.141 59.6713 201.781C64.7256 200.224 69.7309 197.429 73.0191 194.327L75.9279 191.583L77.637 193.548C82.4561 199.089 92.2107 203.036 101.125 203.054C108.173 203.068 116.13 200.191 121.858 195.557L124.595 193.343L127.202 195.561C130.122 198.047 135.577 200.868 139.605 201.976C141.074 202.38 144.494 202.813 147.203 202.939C151.27 203.128 152.784 203.003 155.886 202.226C162.178 200.65 168.784 196.857 172.099 192.917L173.327 191.457L175.533 193.664C181.972 200.103 190.841 203.421 200.347 202.945C204.273 202.75 205.814 202.44 209.519 201.106C216.334 198.651 220.314 195.636 225.718 188.834L227.999 185.962V178.775V171.587L226.865 171.071C226.241 170.786 224.868 170.554 223.814 170.554C220.401 170.554 218.197 172.901 216.136 178.733C215.293 181.117 211.824 185.215 209.314 186.792C201.704 191.572 192.399 190.838 186.117 184.962C183.494 182.508 182.064 180.25 180.791 176.551C180.297 175.113 179.444 173.45 178.897 172.856C176.712 170.483 173.101 169.918 170.054 171.473C168.611 172.209 168.032 172.896 167.147 174.924C166.539 176.317 165.604 178.448 165.069 179.661C163.671 182.83 160.08 186.32 156.444 188.042C153.571 189.403 153.137 189.48 148.278 189.48C143.336 189.48 143.032 189.424 140.054 187.957C136.315 186.115 133.516 183.39 131.14 179.28C128.966 175.52 127.272 174.417 124.097 174.695C121.29 174.94 119.99 175.974 117.663 179.811C111.165 190.527 99.8411 193.06 89.6466 186.077C86.6866 184.049 84.6244 181.162 83.0974 176.906C81.5878 172.7 80.2616 171.31 77.2112 170.738C73.1264 169.971 70.0613 172.074 68.5806 176.657C66.9321 181.76 63.1705 186.065 58.4133 188.295C56.1364 189.362 55.3785 189.479 50.765 189.479C46.0968 189.48 45.4106 189.371 43.0032 188.243C37.9405 185.872 34.7961 182.369 32.9726 177.069C32.4916 175.671 31.6932 173.959 31.198 173.264C29.3281 170.638 25.2811 169.823 22.1973 171.453Z" fill="white"/>
</svg>
