<svg width="228" height="228" viewBox="0 0 228 228" fill="none" xmlns="http://www.w3.org/2000/svg">
<path fill-rule="evenodd" clip-rule="evenodd" d="M122.906 23.3807C121.559 23.7084 116.85 25.3169 112.442 26.9552C104.355 29.9606 99.6415 31.1278 95.4747 31.1563C94.2256 31.1647 92.5722 31.3918 91.8009 31.6608C90.5687 32.0905 90.3986 32.3493 90.3986 33.7983C90.3986 36.1135 92.2538 38.7529 95.2494 40.6998C98.7651 42.9847 101.643 43.7359 106.217 43.5618C108.61 43.4709 109.947 43.5818 109.849 43.8633C109.763 44.1082 109.234 45.9175 108.675 47.884L107.657 51.459L102.701 54.7645C89.9248 63.2865 81.8709 69.9136 70.071 81.6133L62.4352 89.1845L60.2474 88.9743C54.4499 88.4172 49.6058 83.4596 47.063 75.4805C46.5189 73.7736 44.9767 66.5181 44.9767 65.6662C44.9767 65.0552 43.3313 64.125 42.251 64.125C40.4127 64.125 38.7441 65.0806 36.7732 67.2627C34.6036 69.6638 33.8413 71.5519 33.5269 75.3046C33.3866 76.9789 33.0909 78.2374 32.87 78.1011C32.6496 77.9644 31.9531 78.1906 31.3226 78.6039C30.2934 79.2785 30.1977 79.5738 30.3834 81.5069C30.8056 85.899 33.9512 90.2773 37.9631 92.0559C38.8817 92.4633 39.6317 92.9082 39.6303 93.0445C39.6285 93.1812 39.0238 93.6363 38.2864 94.0558C36.3501 95.1579 36.1929 96.0245 37.6531 97.5488C40.1527 100.157 48.2511 102.242 54.3492 101.847L58.2301 101.596L58.5258 103.828C58.9662 107.147 60.4024 110.595 62.4388 113.222C63.4354 114.507 67.0202 118.372 70.4059 121.811C76.7458 128.251 77.9321 130.02 77.9267 133.023C77.9232 134.968 76.7008 140.296 74.7512 146.862C73.9207 149.658 73.4986 151.878 73.6682 152.553C74.0752 154.175 76.3962 155.41 79.0431 155.414C83.1489 155.42 95.2182 153.538 96.6477 152.668C99.133 151.157 99.4171 148.05 97.256 146.021C96.3631 145.182 95.5348 144.942 93.0487 144.801C91.3462 144.705 89.9533 144.531 89.9533 144.415C89.9533 144.299 90.9695 141.476 92.2115 138.141C95.2423 130.005 95.5691 126.917 94.1677 119.678C93.7825 117.688 92.92 117.78 104.061 118.622C112.368 119.25 113.703 119.678 114.327 121.91C114.895 123.941 114.643 131.266 113.806 137.046C113.371 140.047 113.134 142.811 113.278 143.188C113.653 144.165 117.041 145.596 119.007 145.607C120.921 145.619 130.981 143.722 134.413 142.703C137.205 141.873 139.828 139.714 139.828 138.244C139.828 136.546 138.888 134.972 137.28 133.978C135.958 133.161 135.373 133.086 132.459 133.359C129.805 133.608 129.094 133.544 128.901 133.042C128.769 132.696 129.469 129.268 130.459 125.424C132.252 118.458 132.691 114.295 131.862 112.136C131.129 110.23 125.395 105.115 120.293 101.816L118.348 100.558L113.016 103.061C110.083 104.438 106.797 105.802 105.714 106.091C103.844 106.591 103.685 106.558 102.573 105.447L101.401 104.275L103.804 102.742C107.434 100.426 116.001 95.6406 120.012 93.6897C123.355 92.0634 123.807 91.961 127.36 92.0194C130.199 92.0657 133.24 92.596 139.533 94.1422C151.975 97.1983 154.966 97.8231 163.244 99.0949C173.691 100.7 180.165 101.003 182.767 100.009C186.453 98.6015 188.781 94.6106 188.138 90.8014C187.697 88.1941 186.056 87.0893 180.921 85.9417C154.024 79.9322 143.359 76.6387 138.158 72.736C136.361 71.3876 136.335 70.3732 138.047 68.4236C138.782 67.5868 139.383 66.678 139.383 66.4041C139.383 65.8011 140.495 65.7553 141.541 66.315C141.961 66.5395 143.769 66.9264 145.559 67.1745C154.788 68.4534 164.092 63.4664 167.633 55.3434C168.083 54.3094 168.845 53.108 169.326 52.6724C170.675 51.4518 171.445 49.6479 171.445 47.7103C171.445 45.2767 169.851 44.0271 165.135 42.7633C161.008 41.6572 150.563 37.9785 149.809 37.3653C149.542 37.1488 149.069 36.1175 148.757 35.0737C146.977 29.1172 142.607 25.1071 136.028 23.3936C132.846 22.5649 126.288 22.5586 122.906 23.3807ZM136.266 35.4887C134.335 36.1785 133.846 39.1354 135.474 40.2754C136.824 41.2212 138.315 41.146 139.383 40.0781C140.626 38.8352 140.511 37.2116 139.1 36.1028C137.906 35.1627 137.452 35.0648 136.266 35.4887ZM159.58 129.152C152.58 129.568 143.836 130.571 143.836 130.957C143.836 131.122 144.168 131.533 144.573 131.869C146.438 133.416 147.119 138.393 145.874 141.374C144.961 143.558 141.753 146.865 139.382 148.067C135.802 149.881 126.384 152.105 120.217 152.594C114.363 153.057 109.685 150.831 106.84 146.228C105.95 144.788 105.884 144.264 106.139 140.675C106.296 138.465 106.246 136.711 106.026 136.711C105.29 136.711 99.5293 138.574 99.1486 138.935C98.9402 139.133 99.2042 139.432 99.7346 139.601C102.333 140.425 105.26 144.386 105.81 147.818C106.529 152.316 103.44 157.409 98.7749 159.416C95.6003 160.781 86.3895 162.181 80.1564 162.244C75.7042 162.29 74.7445 162.164 72.8088 161.281C70.0224 160.009 68.2572 158.374 67.196 156.082C66.1442 153.81 66.1442 152.152 67.1956 148.774C67.6596 147.283 67.9268 146.062 67.7888 146.062C67.0878 146.062 45.2662 152.965 32.9533 157.082C23.99 160.079 18.1133 162.291 16.6753 163.207C12.9761 165.567 9.8113 169.927 9.0556 173.705C8.85165 174.725 8.95496 175.008 9.53253 175.008C10.3301 175.008 20.4587 173.584 26.9416 172.56C29.1459 172.212 31.751 171.823 32.7306 171.696C39.0349 170.877 49.7768 169.391 58.7814 168.093C77.8711 165.342 81.6576 164.805 88.6174 163.867C97.6804 162.644 124.012 158.692 136.043 156.749C150.5 154.413 152.836 154.042 156.973 153.419C159.422 153.05 163.931 152.357 166.992 151.878C191.131 148.099 198.729 146.953 199.636 146.953C201.07 146.953 202.617 148.719 202.617 150.355C202.617 152.959 201.184 153.668 193.144 155.046C183.431 156.71 155.944 161.156 140.051 163.634C132.948 164.741 124.632 166.056 121.57 166.555C118.509 167.054 112.644 167.954 108.538 168.557C104.431 169.159 100.623 169.748 100.077 169.867C98.8881 170.125 97.2845 170.348 91.9572 170.994C89.7529 171.261 86.0457 171.773 83.7189 172.132C79.96 172.712 74.5865 173.469 58.3361 175.709C55.7644 176.064 51.3558 176.655 48.5392 177.025C39.409 178.22 21.2576 180.806 17.1447 181.497C14.9404 181.868 12.493 182.27 11.7057 182.392L10.2744 182.612L11.8593 184.711C13.8717 187.374 17.2596 190.551 18.7033 191.129C20.6435 191.905 29.8312 194.046 36.2931 195.228C55.3766 198.719 69.8154 199.997 86.6135 199.682C96.8654 199.49 97.5174 199.45 108.656 198.352C138.288 195.428 165.686 188.184 187.699 177.452C200.762 171.084 209.896 165.073 215.476 159.172C219.827 154.572 221.388 151.55 221.668 147.18C221.94 142.948 221.604 141.299 219.965 138.825C216.396 133.437 207.463 130.303 192.397 129.153C185.802 128.649 168.043 128.649 159.58 129.152Z" fill="white"/>
</svg>
