<svg width="228" height="228" viewBox="0 0 228 228" fill="none" xmlns="http://www.w3.org/2000/svg">
<path fill-rule="evenodd" clip-rule="evenodd" d="M70.9441 15.6574C68.1635 18.0604 65.0125 22.0018 63.0121 25.5786L61.4179 28.4295L56.4104 28.3662C51.7742 28.3083 51.2158 28.3952 48.8797 29.5378C47.1274 30.3955 45.8738 31.43 44.7766 32.9253C43.9073 34.1094 43.1962 35.2668 43.1962 35.4975C43.1962 36.4473 40.9135 37.9525 38.5266 38.5755C33.4189 39.9096 28.8878 42.5908 27.5653 45.0623C26.8104 46.4726 28.2635 49.9714 30.6455 52.4799C34.8662 56.925 39.4172 58.1835 49.2079 57.613C52.6368 57.4135 55.7429 57.2933 56.1102 57.3458C56.4776 57.3988 58.7349 57.5738 61.1258 57.7346L65.4738 58.0276L67.1375 56.2245C70.1843 52.9225 73.8871 44.6522 75.8607 36.7399C77.0796 31.8535 78.1617 21.7101 77.8308 18.2688C77.3615 13.385 74.7292 12.3866 70.9441 15.6574ZM48.0176 36.3725C46.7752 36.7007 45.7754 38.6449 46.0969 40.1078C46.6696 42.7155 49.561 43.5523 51.4545 41.6584C53.9816 39.1317 51.5756 35.4311 48.0176 36.3725ZM78.2454 46.7247C76.6026 51.4094 73.7704 56.9241 71.437 59.9834C69.9675 61.9103 67.9676 63.1647 65.7971 63.521C64.1633 63.789 64.1067 63.8652 63.0531 67.1997C62.4613 69.0727 61.8401 71.3371 61.6722 72.2326C61.3965 73.7013 61.1979 73.8883 59.6389 74.1519C56.7355 74.6422 45.7109 80.674 41.5663 84.0392C37.8929 87.0219 37.563 91.1072 40.7688 93.922C42.1158 95.1043 42.6827 95.2985 44.7922 95.2985C47.5362 95.2985 48.3008 94.9694 53.6356 91.4919C60.5108 87.0103 66.5635 85.1053 74.0341 85.0719C77.1833 85.0576 77.4852 84.9784 77.4852 84.1657C77.4852 83.6758 77.703 83.275 77.9697 83.275C79.0202 83.275 92.1806 90.7937 92.1806 91.3944C92.1806 91.6594 90.3036 94.8002 88.0093 98.3742C83.0615 106.083 81.0477 109.942 81.0477 111.713C81.0477 113.994 82.7818 121.568 85.0378 129.142C88.3259 140.181 88.3277 139.616 84.9923 143.271C84.0474 144.306 83.2743 145.352 83.2743 145.593C83.2743 146.505 85.3851 147.131 88.3954 147.112C92.5119 147.087 96.2218 145.672 98.7489 143.162C100.431 141.492 100.642 141.054 100.642 139.227C100.642 138.096 100.061 135.415 99.351 133.268C96.8034 125.563 95.6188 119.897 95.8419 116.484C96.0748 112.915 96.7107 111.455 100.767 105.174L103.447 101.023L105.495 101.259C106.622 101.389 109.111 101.623 111.027 101.778C113.63 101.989 114.454 102.207 114.287 102.642C113.605 104.418 113.023 108.967 113.241 110.81C113.38 111.979 114.303 114.929 115.293 117.365C116.283 119.801 117.989 123.985 119.085 126.664C120.18 129.342 120.989 131.676 120.88 131.851C120.772 132.027 119.631 132.417 118.344 132.72C113.976 133.747 112.299 135.195 112.866 137.454C113.059 138.222 113.774 138.837 115.208 139.472C116.984 140.258 117.897 140.354 121.76 140.165C127.053 139.906 130.51 138.767 132.57 136.602C135.321 133.711 135.006 131.557 130.018 119.118C126.373 110.029 126.43 110.936 128.939 102.17C129.785 99.2141 130.481 96.0079 130.485 95.0451C130.502 91.6834 131.797 84.1625 132.647 82.5006C134.272 79.3216 137.044 77.1186 143.229 74.0891L149.078 71.224L152.308 65.1147C154.085 61.7549 156.081 58.0036 156.744 56.7789C158.42 53.6831 158.678 52.3414 157.89 50.8175C157.182 49.4487 156.393 48.986 154.767 48.986C153.574 48.986 151.896 50.7543 146.548 57.6473L142.801 62.4754L137.864 64.7972C129.697 68.6376 130.389 68.5468 126.011 66.3505C123.936 65.3102 120.035 63.2124 117.341 61.689C112.793 59.1177 88.68 46.3542 82.5988 43.2989L79.9193 41.9527L78.2454 46.7247ZM190.595 107.387C182.47 108.23 168.195 110.489 161.416 112.004C151.066 114.317 136.267 118.241 136.267 118.671C136.267 118.769 136.855 120.614 137.574 122.771C138.293 124.928 139.021 127.956 139.193 129.501C139.451 131.824 139.627 132.261 140.218 132.035C142.112 131.308 146.556 131.29 149.731 131.996C157.505 133.726 162.806 138.989 163.328 145.495C163.467 147.224 163.753 148.291 164.079 148.291C164.656 148.291 168.055 145.933 186.81 132.525C211.457 114.903 211.785 114.625 211.386 111.651C211.115 109.631 210.084 108.328 208.087 107.483C206.451 106.79 196.859 106.738 190.595 107.387ZM106.431 126.236C104.274 126.887 103.113 127.462 103.152 127.859C103.186 128.198 103.737 130.25 104.377 132.421C107.166 141.883 105.471 146.232 97.4188 150.279C93.6813 152.158 90.1651 152.91 86.3862 152.64C82.7493 152.38 80.4221 151.305 79.0167 149.237C77.2114 146.581 77.6812 144.007 80.6634 140.211C82.0274 138.475 82.3115 136.502 81.3808 135.23C80.8616 134.52 80.5793 134.557 77.2617 135.768C63.8796 140.652 47.9837 148.607 40.4027 154.213C33.5097 159.311 30.8561 165.27 33.7373 169.182C35.0109 170.911 39.8096 173.099 44.781 174.219C48.7074 175.103 50.441 175.216 60.1181 175.217C72.0987 175.22 79.6317 174.447 92.9603 171.848C114.54 167.64 149.408 156.809 156.069 152.246C160.518 149.197 159.687 143.49 154.273 139.904C148.426 136.031 141.202 136.277 135.984 140.527C131.352 144.3 127.386 145.619 120.668 145.619C115.074 145.619 112.325 144.797 109.797 142.368C108.248 140.881 107.787 140.081 107.547 138.462C106.959 134.51 108.789 130.893 112.274 129.114L113.998 128.235L112.998 126.69C111.805 124.849 111.169 124.805 106.431 126.236ZM171.224 147.87C169.264 149.35 167.484 150.739 167.267 150.956C166.702 151.521 169.335 154.679 172.647 157.411C175.833 160.038 180.05 162.237 183.809 163.229C190.889 165.099 201.304 162.811 203.303 158.947C204.59 156.457 203.911 153.224 201.748 151.54C200.267 150.387 197.625 150.423 193.935 151.645C191.194 152.553 189.859 152.766 188.145 152.571C185.246 152.239 181.037 150.078 177.976 147.35C176.633 146.153 175.366 145.174 175.16 145.176C174.954 145.177 173.183 146.389 171.224 147.87ZM162.763 160.403C160.296 161.296 158.882 162.657 156.424 166.507C153.264 171.453 150.929 173.863 147.622 175.592C145.345 176.782 144.489 176.985 141.833 176.965C140.118 176.951 137.44 176.573 135.88 176.124L133.046 175.308L127.758 177.052C124.85 178.01 122.469 178.976 122.466 179.197C122.452 180.548 129.719 185.775 133.515 187.143C136.684 188.285 142.675 188.671 145.929 187.943C152.348 186.506 159.721 181.501 163.505 176.011C164.222 174.971 164.952 174.119 165.126 174.119C165.301 174.119 166.497 175.499 167.784 177.187C171.348 181.861 177.412 186.038 182.994 187.664C185.819 188.487 190.89 188.58 194.247 187.87C206.017 185.379 217.16 171.767 212.081 166.083C211.205 165.103 210.32 164.64 208.972 164.46C205.958 164.055 204.708 164.869 201.982 169.007C198.618 174.115 195.207 176.503 190.478 177.058C186.642 177.509 181.651 175.707 178.174 172.616C177.588 172.096 176.011 169.966 174.67 167.884C171.919 163.614 170.394 161.833 168.774 160.995C167.112 160.136 164.273 159.856 162.763 160.403ZM25.8593 164.545C24.8858 166.83 24.7429 171.077 25.5582 173.501C27.5675 179.477 35.7964 186.584 42.1924 187.869C50.0046 189.438 57.81 187.101 63.1025 181.61L64.5284 180.13L56.4229 180.089C48.01 180.046 43.9042 179.501 37.8524 177.623C30.9091 175.467 27.5025 171.801 26.7343 165.658L26.4284 163.209L25.8593 164.545ZM114.892 171.72C113.789 172.067 110.583 172.832 107.767 173.42C104.95 174.007 101.042 175.079 99.0829 175.802C97.0496 176.551 94.087 177.243 92.1806 177.415C89.1159 177.69 76.0344 179.463 75.8452 179.629C75.5922 179.85 81.648 184.44 83.7196 185.597C87.6909 187.816 90.8135 188.511 95.7141 188.27C99.1528 188.102 100.593 187.8 103.188 186.706C109.367 184.1 113.87 180.115 116.686 174.762C118.743 170.851 118.573 170.562 114.892 171.72ZM163.85 187.9C161.749 188.538 160.614 189.36 156.673 193.095C152.426 197.119 149.815 198.684 145.5 199.79C138.791 201.51 132.532 199.351 126.565 193.257C122.794 189.407 120.907 188.368 117.689 188.371C114.983 188.372 113.613 189.21 109.474 193.39C102.556 200.378 94.2913 202.145 86.3407 198.334C83.9075 197.168 82.1116 195.808 79.0723 192.829C74.9612 188.8 73.5554 187.923 71.2077 187.923C68.8725 187.923 66.8147 189.16 62.6946 193.038C56.5952 198.78 51.597 200.791 45.0767 200.125C40.4094 199.65 36.6786 197.536 31.8763 192.647C27.437 188.128 26.1211 187.464 23.3887 188.366C19.946 189.502 18.9765 193.648 21.2997 197.299C21.9931 198.388 24.2218 200.839 26.2529 202.747C30.2995 206.546 35.9647 209.682 40.4348 210.597C43.9229 211.31 51.9034 211.198 55.0148 210.392C59.1237 209.327 63.7714 206.813 67.472 203.655L70.8456 200.777L74.2768 203.7C78.0588 206.923 83.5446 209.852 87.1926 210.597C90.6701 211.308 99.094 211.2 102.218 210.404C106.126 209.408 109.97 207.32 114.215 203.886C116.288 202.21 118.18 200.838 118.419 200.838C118.659 200.838 119.023 201.137 119.228 201.503C119.432 201.869 120.795 203.188 122.256 204.433C134.056 214.499 151.586 213.478 163.311 202.043L165.641 199.771L168.485 202.642C171.683 205.87 174.932 207.973 179.354 209.68C182.152 210.759 182.858 210.838 189.704 210.839C196.302 210.841 197.308 210.738 199.566 209.832C206.982 206.858 215.842 198.822 216.69 194.302C217.478 190.098 212.736 186.583 208.93 188.551C208.262 188.896 206.255 190.798 204.469 192.775C201.731 195.807 200.621 196.669 197.389 198.27C193.683 200.107 193.415 200.17 189.292 200.17C185.306 200.17 184.807 200.064 181.631 198.547C178.976 197.279 177.389 196.081 174.367 193.058C169.448 188.139 167.007 186.942 163.85 187.9Z" fill="white"/>
</svg>
